<svg width="239" height="152" viewBox="0 0 239 152" fill="none" xmlns="http://www.w3.org/2000/svg">
<g clip-path="url(#clip0_73_195)">
<path d="M50.7156 35.7949L59.7545 48.1082C59.7545 48.1082 67.461 51.3421 76.468 57.8352L74.312 61.1938C74.312 61.1938 59.4454 55.119 55.6409 52.5522L48.6937 41.6837L50.7156 35.7949Z" fill="#A0616A"/>
<path d="M81.8731 63.7993C82.7357 62.5396 81.7114 60.3431 79.5854 58.8934C77.4593 57.4436 75.0365 57.2895 74.1739 58.5492C73.3113 59.8089 74.3355 62.0054 76.4616 63.4552C78.5876 64.905 81.0104 65.059 81.8731 63.7993Z" fill="#A0616A"/>
<path d="M46.2974 25.2836L49.2555 24.4463C49.2555 24.4463 50.9774 24.4496 51.9488 26.1373C52.9202 27.8251 59.7982 42.8734 59.4722 43.4563C59.1462 44.0393 58.6911 44.1681 59.2752 44.4934C59.8594 44.8187 60.3943 44.6538 59.9961 45.1413C59.598 45.6288 60.1482 46.6997 60.1482 46.6997L52.5602 52.2864L46.2974 25.2836V25.2836Z" fill="#264B8D"/>
<path d="M34.8208 149.023L38.4297 149.023L40.1464 135.132L34.8201 135.132L34.8208 149.023Z" fill="#A0616A"/>
<path d="M47.1851 148.941C47.2975 149.13 47.3568 149.739 47.3568 149.959C47.3568 150.634 46.8084 151.181 46.1319 151.181H34.9558C34.4943 151.181 34.1202 150.808 34.1202 150.347V149.883C34.1202 149.883 33.5673 148.488 34.7056 146.768C34.7056 146.768 36.1203 148.114 38.2343 146.005L38.8577 144.878L43.3701 148.171L45.8713 148.478C46.4185 148.546 46.9037 148.468 47.1851 148.941V148.941Z" fill="#2F2E41"/>
<path d="M47.8824 145.513L51.4414 146.11L55.4407 132.695L50.188 131.814L47.8824 145.513Z" fill="#A0616A"/>
<path d="M60.0894 147.477C60.1688 147.681 60.1261 148.292 60.0897 148.509C59.9776 149.175 59.3459 149.624 58.6788 149.512L47.6571 147.664C47.202 147.588 46.8951 147.158 46.9715 146.703L47.0486 146.246C47.0486 146.246 46.7351 144.778 48.1432 143.27C48.1432 143.27 49.3148 144.832 51.7498 143.101L52.5516 142.093L56.4549 146.087L58.8705 146.803C59.399 146.96 59.8904 146.964 60.0894 147.477H60.0894Z" fill="#2F2E41"/>
<path d="M55.2802 74.2363C55.2802 74.2363 60.1289 79.901 60.1289 85.0936C60.1289 90.2861 60.2472 106.598 60.2472 106.598C60.2472 106.598 57.4089 132.063 56.6994 134.187C55.9898 136.311 55.635 139.852 55.635 139.852L48.7759 138.2C48.7759 138.2 47.8298 114.243 50.6681 108.578L43.809 89.224L41.4438 143.982H33.4812C33.4812 143.982 29.3812 115.187 31.5099 107.634C31.5099 107.634 26.7795 78.8389 27.9621 77.1867C29.1447 75.5345 55.2802 74.2363 55.2802 74.2363Z" fill="#2F2E41"/>
<path d="M37.6594 17.8262L44.0455 18.2982L46.1742 21.8386C46.1742 21.8386 51.1411 23.9629 51.8507 27.0312C52.5602 30.0996 52.7968 65.9756 52.7968 65.9756L56.3446 71.1682L56.1081 75.6527L27.7256 77.0689V72.7572L25.1239 67.6278C25.1239 67.6278 27.9621 26.5592 28.6717 26.3231C29.3812 26.0871 34.8212 22.3107 34.8212 22.3107L37.6594 17.8262V17.8262Z" fill="#264B8D"/>
<path d="M40.5497 16.9483C44.991 16.9483 48.5914 13.3554 48.5914 8.92335C48.5914 4.49131 44.991 0.898438 40.5497 0.898438C36.1084 0.898438 32.508 4.49131 32.508 8.92335C32.508 13.3554 36.1084 16.9483 40.5497 16.9483Z" fill="#A0616A"/>
<path d="M46.9731 2.46898C46.5639 1.31087 45.4287 0.608269 44.1985 0.635636C44.1463 0.636783 44.0942 0.636301 44.0426 0.634186C43.4231 0.608907 42.8284 0.397738 42.2209 0.273856C41.0886 0.0429509 39.8947 0.120258 38.8019 0.495228C38.4622 0.611788 38.1221 0.758358 37.7629 0.758399C37.4036 0.758449 37.0124 0.561888 36.9247 0.214266C36.904 0.528997 36.8832 0.843712 36.8625 1.15843C36.7456 0.903703 36.6287 0.648963 36.5118 0.394226L36.2777 1.41009L35.5277 0.561086C35.5948 0.935297 35.3761 1.31246 35.0801 1.55171C34.7841 1.79097 34.4185 1.92332 34.0681 2.07238C32.5555 2.71575 31.1354 3.85485 30.6995 5.43695C30.4242 6.43651 30.5682 7.49735 30.7141 8.5237C30.8431 9.43104 30.9833 10.3697 31.4776 11.1421C31.7944 11.6372 32.251 12.0539 32.4439 12.6089C32.6237 13.1263 32.5556 13.7186 32.8115 14.2031C33.0684 14.6897 33.5987 14.965 34.1178 15.1499C34.6369 15.3348 35.1887 15.4656 35.6357 15.7873C36.0827 16.1091 36.6015 17.0361 37.5754 16.9862L37.8897 16.3969C38.2131 16.134 37.0164 16.3424 37.0039 15.9264C36.9914 15.5103 38.4438 15.2533 38.238 14.8913C37.9223 14.3361 37.4952 13.853 37.1395 13.3225C36.7235 12.702 36.3963 11.9771 36.5399 11.2199C36.5957 10.9253 36.7339 10.6471 36.9443 10.4331C37.551 9.81623 38.2274 10.0874 38.8847 10.1756C39.3378 10.2365 39.8789 10.1662 40.1142 9.77501C40.3894 9.31734 40.0827 8.73512 40.1202 8.20269C40.16 7.63852 40.5883 7.1759 41.0544 6.85426C41.5206 6.53263 42.0499 6.2983 42.4692 5.91788C42.8885 5.53744 43.1873 4.94311 43.0045 4.40779C44.9922 3.58195 45.2965 3.50384 47.3897 4.00747C47.29 3.48511 47.1503 2.97044 46.9731 2.46898L46.9731 2.46898Z" fill="#2F2E41"/>
<path d="M13.0237 105.106V80.7476C13.0237 80.0795 13.3091 79.4401 13.8066 78.9931C14.3042 78.5462 14.9712 78.33 15.6372 78.4001C21.806 77.5719 27.616 77.9658 32.8815 80.2146C33.4779 80.2146 33.9632 80.6988 33.9632 81.294V105.737C33.9632 106.333 33.4779 106.817 32.8815 106.817C27.0854 105.46 20.9721 105.813 14.7382 106.817C13.7928 106.817 13.0237 106.049 13.0237 105.106Z" fill="#E6E6E6"/>
<path d="M13.0237 107.274V82.6583C13.0237 81.3567 14.0848 80.2977 15.3892 80.2977C21.2881 78.7575 27.119 78.7549 32.8815 80.2977C33.4779 80.2977 33.9632 80.7819 33.9632 81.3771V105.57C33.9632 106.165 33.4794 106.648 32.8842 106.65C27.2022 105.663 21.1156 106.624 14.7382 108.985C13.7928 108.985 13.0237 108.217 13.0237 107.274Z" fill="#F2F2F2"/>
<path d="M26.6451 90.4701H21.1292C19.1482 90.4701 17.5365 88.862 17.5365 86.8851C17.5365 84.9082 19.1482 83.2998 21.1292 83.2998H26.6451C28.6263 83.2998 30.2379 84.9083 30.2379 86.8851C30.2379 88.862 28.6263 90.4701 26.6451 90.4701Z" fill="#E6E6E6"/>
<path d="M31.7006 42.123L31.4898 54.8317C31.4898 54.8317 30.8159 64.7361 29.1424 75.8822L25.1535 76.1361C25.1535 76.1361 25.6443 58.7329 25.4655 54.1536L25.7476 43.9825L31.7006 42.123H31.7006Z" fill="#A0616A"/>
<path d="M27.5248 83.7591C29.0528 83.7072 30.2206 81.5833 30.1332 79.0151C30.0457 76.447 28.736 74.4071 27.208 74.4589C25.68 74.5107 24.5121 76.6347 24.5996 79.2028C24.6871 81.771 25.9967 83.8109 27.5248 83.7591Z" fill="#A0616A"/>
<path d="M31.6386 25.9434L28.5659 26.055C28.5659 26.055 26.9286 26.5869 26.5247 28.4911C26.1208 30.3952 23.2899 50.1013 23.7798 50.5559C24.2698 51.0104 24.7425 50.9932 24.287 51.4822C23.8315 51.9711 23.2717 51.9784 23.8009 52.32C24.33 52.6615 24.1367 53.8494 24.1367 53.8494L32.6352 53.2486L31.6386 25.9434Z" fill="#264B8D"/>
<path d="M234.37 139.486H152.615C152.14 139.486 151.671 139.414 151.219 139.271L151.171 139.252C125.571 126.556 103.623 119.627 84.0714 118.068L83.997 118.053C82.0629 117.443 80.7636 115.672 80.7636 113.648V4.62417C80.7636 3.13548 81.4539 1.77699 82.6573 0.897223C83.8608 0.0174537 85.3667 -0.229411 86.7897 0.21912L151.421 20.6194C151.808 20.7416 152.209 20.8035 152.615 20.8035H234.37C236.923 20.8035 239 22.8761 239 25.4236V134.866C239 137.414 236.923 139.486 234.37 139.486ZM151.445 138.642C151.824 138.758 152.218 138.818 152.615 138.818H234.37C236.554 138.818 238.33 137.045 238.33 134.866V25.4236C238.33 23.2445 236.554 21.4718 234.37 21.4718H152.615C152.141 21.4718 151.671 21.3995 151.219 21.2567L86.5876 0.856432C85.3706 0.472023 84.0825 0.683807 83.0531 1.43631C82.0237 2.18898 81.4333 3.35085 81.4333 4.62417V113.648C81.4333 115.367 82.5288 116.872 84.1636 117.405C103.786 118.976 125.795 125.923 151.445 138.642H151.445Z" fill="#3F3D56"/>
<path d="M154.798 134.535C177.089 126.664 201.957 127.567 228.376 133.75C231.693 134.526 234.872 132.034 234.872 128.635V29.0184C234.872 26.5994 233.22 24.4843 230.865 23.9097C202.996 17.1087 176.964 15.8575 154.023 23.9389C152.342 24.5309 150.477 24.2102 149.059 23.1329C129.727 8.44803 109.942 1.08516 89.5671 3.27138C86.9016 3.55738 84.8911 5.82423 84.8911 8.49949V109.202C84.8911 111.899 86.9355 114.153 89.623 114.432C111.554 116.708 131.706 123.607 150.448 134.171C151.775 134.919 153.361 135.042 154.798 134.535Z" fill="#F2F2F2"/>
<path d="M154.082 128.949C152.564 128.949 151.069 128.533 149.751 127.717C134.011 117.962 116.863 112.263 98.7836 110.779C94.545 110.431 91.2245 106.823 91.2245 102.565V16.5484C91.2245 12.1335 94.6555 8.51606 99.0356 8.31293C112.199 7.70042 128.182 13.5584 149.332 26.7418C151.122 27.8566 153.297 28.1877 155.302 27.6512C175.402 22.2669 197.191 22.1096 221.915 27.1704C225.753 27.9562 228.539 31.3558 228.539 35.2542V119.214C228.539 121.748 227.397 124.102 225.406 125.671C223.4 127.252 220.819 127.819 218.325 127.226C194.937 121.671 174.853 122.072 156.926 128.454C155.995 128.786 155.034 128.949 154.082 128.949ZM100.915 8.93816C100.292 8.93816 99.677 8.95219 99.0667 8.98058C95.0448 9.16708 91.8943 12.4912 91.8943 16.5484V102.565C91.8943 106.478 94.9446 109.793 98.8386 110.113C117.025 111.606 134.273 117.337 150.104 127.149C152.074 128.37 154.479 128.616 156.701 127.825L156.814 128.139L156.701 127.825C174.753 121.398 194.962 120.99 218.48 126.576C220.774 127.121 223.147 126.6 224.991 125.146C226.82 123.704 227.869 121.542 227.869 119.214V35.2542C227.869 31.6717 225.309 28.5473 221.78 27.825C197.161 22.7852 175.473 22.9396 155.475 28.2967C153.291 28.8811 150.924 28.5214 148.978 27.3086C128.934 14.8151 113.585 8.93816 100.915 8.93816Z" fill="white"/>
<path d="M152.562 28.1501L151.892 28.1562L152.824 128.796L153.493 128.79L152.562 28.1501Z" fill="white"/>
<path d="M97.7532 21.5082L97.5429 22.1426L144.434 37.6255L144.644 36.9912L97.7532 21.5082Z" fill="#3F3D56"/>
<path d="M97.7532 33.895L97.5429 34.5293L144.434 50.0122L144.644 49.3779L97.7532 33.895Z" fill="#3F3D56"/>
<path d="M97.7532 46.2817L97.5429 46.916L144.434 62.399L144.644 61.7646L97.7532 46.2817Z" fill="#3F3D56"/>
<path d="M97.7532 58.6674L97.5429 59.3018L144.434 74.7847L144.644 74.1503L97.7532 58.6674Z" fill="#3F3D56"/>
<path d="M220.047 37.6631H163.847V38.3314H220.047V37.6631Z" fill="#3F3D56"/>
<path d="M220.047 49.3613H163.847V50.0296H220.047V49.3613Z" fill="#3F3D56"/>
<path d="M220.047 61.0586H163.847V61.7269H220.047V61.0586Z" fill="#3F3D56"/>
<path d="M220.047 72.7578H163.847V73.4261H220.047V72.7578Z" fill="#3F3D56"/>
<path d="M220.047 84.4551H163.847V85.1234H220.047V84.4551Z" fill="#3F3D56"/>
<path d="M220.047 96.1543H163.847V96.8226H220.047V96.1543Z" fill="#3F3D56"/>
<path d="M18.1688 146.208C17.4771 146.251 17.0947 145.393 17.6181 144.893L17.6702 144.687C17.6633 144.67 17.6564 144.654 17.6495 144.637C16.9499 142.972 14.5789 142.984 13.8853 144.651C13.2696 146.131 12.4858 147.613 12.2928 149.178C12.2062 149.868 12.2452 150.572 12.3987 151.249C10.9562 148.105 10.197 144.671 10.197 141.218C10.197 140.35 10.2446 139.483 10.3419 138.617C10.422 137.909 10.5323 137.206 10.675 136.509C11.4471 132.74 13.119 129.151 15.5304 126.153C16.6897 125.521 17.6565 124.532 18.2404 123.347C18.4502 122.92 18.6146 122.46 18.6924 121.992C18.5605 122.009 18.195 120.004 18.2945 119.881C18.1106 119.603 17.7816 119.464 17.5808 119.193C16.5821 117.842 15.2062 118.078 14.488 119.914C12.9536 120.686 12.9387 121.968 13.8802 123.201C14.4792 123.985 14.5615 125.046 15.0871 125.886C15.033 125.955 14.9768 126.022 14.9227 126.091C13.9312 127.36 13.0736 128.724 12.3507 130.157C12.555 128.564 12.2533 126.645 11.7391 125.409C11.1537 123.999 10.0565 122.812 9.09023 121.594C7.92962 120.131 5.54968 120.769 5.34521 122.624C5.34323 122.642 5.3413 122.66 5.33941 122.678C5.48293 122.759 5.62353 122.845 5.76087 122.936C6.54426 123.453 6.27352 124.665 5.34529 124.807L5.32428 124.811C5.37619 125.327 5.46486 125.838 5.59462 126.341C4.35505 131.125 7.03118 132.867 10.8523 132.945C10.9367 132.988 11.0189 133.032 11.1032 133.073C10.7161 134.16 10.4068 135.276 10.1776 136.407C9.97209 137.406 9.82934 138.416 9.74933 139.431C9.64983 140.711 9.65849 141.997 9.76663 143.275L9.76014 143.229C9.48548 141.822 8.71984 140.508 7.60816 139.597C5.9521 138.239 3.6124 137.74 1.8258 136.648C0.965784 136.123 -0.136263 136.802 0.0138324 137.797L0.021139 137.845C0.287158 137.952 0.546684 138.078 0.79757 138.218C0.941089 138.299 1.08169 138.385 1.21903 138.475C2.00242 138.992 1.73168 140.204 0.803454 140.347L0.782418 140.35C0.767283 140.352 0.7543 140.355 0.739185 140.357C1.19553 141.438 1.83137 142.442 2.62728 143.307C3.40234 147.483 6.73127 147.879 10.2922 146.663H10.2943C10.6836 148.355 11.2525 150.009 11.9835 151.584H18.0176C18.0393 151.517 18.0587 151.448 18.0782 151.381C17.5202 151.416 16.9579 151.383 16.4085 151.282C16.8562 150.734 17.3039 150.181 17.7516 149.633C17.7624 149.622 17.7711 149.611 17.7797 149.601C18.0068 149.32 18.2361 149.042 18.4632 148.761L18.4633 148.761C18.4775 147.899 18.374 147.041 18.169 146.208L18.1688 146.208Z" fill="#F2F2F2"/>
<path d="M85.6593 151.603C85.6593 151.823 85.4818 152 85.2608 152H0.445417C0.224423 152 0.0469398 151.823 0.0469398 151.603C0.0469398 151.382 0.224423 151.205 0.445417 151.205H85.2608C85.4818 151.205 85.6593 151.382 85.6593 151.603Z" fill="#CCCCCC"/>
<path d="M222.407 130.464C226.661 130.464 230.109 127.023 230.109 122.778C230.109 118.534 226.661 115.093 222.407 115.093C218.154 115.093 214.706 118.534 214.706 122.778C214.706 127.023 218.154 130.464 222.407 130.464Z" fill="#264B8D"/>
<path d="M226.014 122.489L221.235 119.736C221.012 119.607 220.733 119.768 220.733 120.025V122.445H219.299C219.115 122.445 218.965 122.594 218.965 122.779C218.965 122.963 219.115 123.113 219.299 123.113H220.733V125.532C220.733 125.79 221.012 125.95 221.235 125.822L226.014 123.068C226.237 122.939 226.237 122.618 226.014 122.489Z" fill="white"/>
<path d="M112.735 101.114C113.035 97.6891 114.46 94.4171 116.741 91.8423C118.962 89.3341 121.999 87.6135 125.273 86.9125C127.101 86.5213 128.995 86.4449 130.846 86.7085C131.289 86.7716 131.277 87.4737 130.829 87.4099C127.679 86.9613 124.422 87.5094 121.591 88.9612C118.69 90.4492 116.367 92.8695 114.932 95.7881C114.112 97.4571 113.6 99.2786 113.438 101.131C113.399 101.579 112.696 101.565 112.735 101.114Z" fill="white"/>
<path d="M130.066 83.8922L135.478 86.5568C135.675 86.6537 135.708 86.9737 135.54 87.1117L130.417 91.3379C130.07 91.624 129.582 91.1186 129.932 90.8303L135.055 86.604L135.117 87.1588L129.705 84.4942C129.298 84.2941 129.663 83.6937 130.066 83.8922Z" fill="white"/>
</g>
<defs>
<clipPath id="clip0_73_195">
<rect width="239" height="152" fill="white"/>
</clipPath>
</defs>
</svg>
