<svg width="449" height="338" viewBox="0 0 449 338" fill="none" xmlns="http://www.w3.org/2000/svg">
<path d="M358.817 65.1423H107.107V225.864H358.817V65.1423Z" fill="#E6E6E6"/>
<path d="M351.62 85.3008H114.305V146.569H351.62V85.3008Z" fill="white"/>
<path d="M223.522 94.1506H173.335V97.0229H223.522V94.1506Z" fill="#E6E6E6"/>
<path d="M250.834 104.628H173.335V107.5H250.834V104.628Z" fill="#32A2DB"/>
<path d="M236.495 114.499H173.335V117.371H236.495V114.499Z" fill="#E6E6E6"/>
<path d="M210.207 124.333H173.335V127.205H210.207V124.333Z" fill="#E6E6E6"/>
<path d="M228.984 134.166H173.335V137.039H228.984V134.166Z" fill="#E6E6E6"/>
<path d="M156.606 93.1294H150.461V99.2562H156.606V93.1294Z" fill="#E6E6E6"/>
<path d="M156.606 103H150.461V109.127H156.606V103Z" fill="#32A2DB"/>
<path d="M156.606 112.872H150.461V118.998H156.606V112.872Z" fill="#E6E6E6"/>
<path d="M156.606 122.742H150.461V128.869H156.606V122.742Z" fill="#E6E6E6"/>
<path d="M156.606 132.614H150.461V138.74H156.606V132.614Z" fill="#E6E6E6"/>
<path d="M318.433 107.085H297.948V127.508H318.433V107.085Z" fill="#E6E6E6"/>
<path d="M351.62 155.079H114.305V216.347H351.62V155.079Z" fill="white"/>
<path d="M167.19 160.524H161.044V166.651H167.19V160.524Z" fill="#E6E6E6"/>
<path d="M156.606 160.524H150.461V166.651H156.606V160.524Z" fill="#32A2DB"/>
<path d="M254.655 173.922C252.782 170.76 250.183 168.087 247.072 166.122C243.961 164.157 240.427 162.957 236.76 162.619C233.092 162.281 229.397 162.816 225.977 164.179C222.558 165.543 219.512 167.696 217.09 170.462L215.592 169.157C218.221 166.155 221.527 163.817 225.239 162.336C228.95 160.856 232.961 160.275 236.942 160.642C240.923 161.008 244.76 162.312 248.136 164.445C251.513 166.578 254.334 169.48 256.367 172.912L254.655 173.922Z" fill="#E6E6E6"/>
<path d="M255.593 199.752L253.942 198.646C256.387 195.011 257.751 190.761 257.877 186.387C258.003 182.012 256.886 177.691 254.655 173.922L256.367 172.912C258.789 177.004 260.002 181.695 259.865 186.444C259.728 191.193 258.247 195.807 255.593 199.752V199.752Z" fill="#32A2DB"/>
<path d="M215.799 202.515C211.688 197.937 209.398 192.019 209.36 185.875C209.322 179.731 211.538 173.785 215.592 169.157L217.09 170.462C213.355 174.726 211.314 180.203 211.349 185.863C211.384 191.523 213.494 196.975 217.281 201.192L215.799 202.515Z" fill="#32A2DB"/>
<path d="M234.617 210.902C231.066 210.899 227.555 210.151 224.313 208.706C221.07 207.261 218.17 205.151 215.799 202.515L217.281 201.192C219.645 203.826 222.582 205.886 225.868 207.216C229.153 208.545 232.699 209.109 236.236 208.863C239.773 208.617 243.207 207.569 246.276 205.798C249.344 204.028 251.967 201.581 253.942 198.646L255.593 199.752C253.284 203.185 250.162 205.998 246.504 207.943C242.846 209.887 238.763 210.904 234.617 210.902V210.902Z" fill="#32A2DB"/>
<path d="M318.433 173.8H297.948V194.222H318.433V173.8Z" fill="#E6E6E6"/>
<path d="M170.092 187.074H149.607V207.497H170.092V187.074Z" fill="#E6E6E6"/>
<path d="M358.71 65H107V75.6614H358.71V65Z" fill="#32A2DB"/>
<path d="M114.947 72.4266C116.041 72.4266 116.929 71.5419 116.929 70.4506C116.929 69.3593 116.041 68.4746 114.947 68.4746C113.852 68.4746 112.965 69.3593 112.965 70.4506C112.965 71.5419 113.852 72.4266 114.947 72.4266Z" fill="white"/>
<path d="M122.47 72.4266C123.564 72.4266 124.452 71.5419 124.452 70.4506C124.452 69.3593 123.564 68.4746 122.47 68.4746C121.375 68.4746 120.488 69.3593 120.488 70.4506C120.488 71.5419 121.375 72.4266 122.47 72.4266Z" fill="white"/>
<path d="M129.993 72.4266C131.087 72.4266 131.975 71.5419 131.975 70.4506C131.975 69.3593 131.087 68.4746 129.993 68.4746C128.898 68.4746 128.011 69.3593 128.011 70.4506C128.011 71.5419 128.898 72.4266 129.993 72.4266Z" fill="white"/>
<path d="M399.349 287.464H404.444L406.869 267.868L399.348 267.869L399.349 287.464Z" fill="#FFB8B8"/>
<path d="M398.049 285.806L408.084 285.805H408.085C409.781 285.805 411.407 286.477 412.607 287.673C413.806 288.868 414.48 290.49 414.48 292.181V292.388L398.049 292.389L398.049 285.806Z" fill="#2F2E41"/>
<path d="M386.657 268.226L390.418 271.654L405.472 258.825L399.922 253.765L386.657 268.226Z" fill="#FFB8B8"/>
<path d="M386.821 266.127L394.227 272.879L394.227 272.879C395.479 274.021 396.224 275.611 396.3 277.3C396.375 278.99 395.775 280.64 394.63 281.888L394.49 282.04L382.365 270.985L386.821 266.127Z" fill="#2F2E41"/>
<path d="M407.358 218.649L405.913 247.447L409.524 278.765L398.692 280.205L391.832 240.608L389.666 213.609L407.358 218.649Z" fill="#2F2E41"/>
<path d="M424.328 208.209C424.328 208.209 428.661 236.648 419.634 246.007C410.607 255.367 398.331 271.926 398.331 271.926L389.666 261.126L411.691 237.728L407.358 221.889L389.666 213.609L392.554 193.81L418.551 193.45L424.328 208.209Z" fill="#2F2E41"/>
<path d="M404.446 142.333C409.33 142.333 413.289 138.386 413.289 133.517C413.289 128.648 409.33 124.7 404.446 124.7C399.562 124.7 395.603 128.648 395.603 133.517C395.603 138.386 399.562 142.333 404.446 142.333Z" fill="#FFB8B8"/>
<path d="M411.78 146.047L413.135 148.093L416.746 158.172L413.857 197.41L396.887 197.77L394.721 152.772L399.259 147.117L411.78 146.047Z" fill="#CCCCCC"/>
<path d="M387.86 153.852L384.972 153.492C384.972 153.492 384.25 153.852 383.889 156.372C383.527 158.892 379.195 181.211 379.195 181.211L384.972 208.569L391.471 199.93L387.499 184.811L391.471 169.691L387.86 153.852Z" fill="#2F2E41"/>
<path d="M424.689 153.492H426.855L432.271 182.65L427.217 205.329L422.161 197.05L423.606 188.05L422.884 180.131L420.356 175.451L424.689 153.492Z" fill="#2F2E41"/>
<path d="M409.671 133.517L408.063 133.116C408.063 133.116 406.857 126.303 404.044 127.105C401.23 127.906 393.995 128.708 393.995 125.502C393.995 122.296 400.828 119.491 404.848 119.892C408.867 120.292 414.001 121.622 415.298 127.506C417.379 136.938 411.006 139.32 411.006 139.32L411.112 138.977C411.407 138.023 411.428 137.007 411.173 136.042C410.919 135.077 410.398 134.202 409.671 133.517V133.517Z" fill="#2F2E41"/>
<path d="M385.333 153.492L396.887 148.813L399.595 146.833L407.719 182.651L413.135 166.452L411.51 145.753L426.494 153.492L421.439 177.971L420.717 187.33L422.884 194.89C422.884 194.89 430.466 200.29 427.939 206.049C425.411 211.809 422.523 212.169 422.523 212.169C422.523 212.169 410.246 200.65 409.524 197.77C408.802 194.89 407.719 189.85 407.719 189.85C407.719 189.85 401.581 212.889 394.36 212.529C387.138 212.169 387.138 204.609 387.138 204.609L388.944 196.69L391.832 188.41L390.388 174.731L385.333 153.492Z" fill="#2F2E41"/>
<path d="M448.642 293H352.763C352.668 293 352.577 292.962 352.51 292.896C352.443 292.829 352.405 292.738 352.405 292.643C352.405 292.549 352.443 292.458 352.51 292.391C352.577 292.324 352.668 292.287 352.763 292.287H448.642C448.737 292.287 448.828 292.324 448.895 292.391C448.962 292.458 449 292.549 449 292.643C449 292.738 448.962 292.829 448.895 292.896C448.828 292.962 448.737 293 448.642 293Z" fill="#CCCCCC"/>
<circle cx="364.5" cy="55.5" r="53.5" fill="white" fill-opacity="0.8" stroke="#616161" stroke-width="4" stroke-dasharray="4 4 4 4"/>
<path d="M337.262 45.648L342.8 34.572L348.338 45.648H337.262ZM338.796 44.634H346.804L342.8 36.808L338.796 44.634ZM356.76 36.71V37.775H360.585V36.71H356.76ZM363.315 34.415V48.17H364.47V34.415H363.315ZM355.125 40.475C356.385 41.195 357.9 42.32 358.62 43.1L359.25 42.17C358.515 41.405 356.97 40.34 355.71 39.65L355.125 40.475ZM357.195 34.4C356.49 37.115 355.245 39.605 353.58 41.135C353.85 41.315 354.33 41.675 354.525 41.87C356.205 40.175 357.525 37.565 358.32 34.625L357.195 34.4ZM361.77 37.97L360.825 38.33C362.235 40.94 364.71 43.43 367.155 44.69C367.35 44.39 367.695 43.97 367.965 43.745C365.535 42.65 363.045 40.325 361.77 37.97ZM360.27 36.71V36.965C359.49 42.305 357.12 45.605 353.925 47.285C354.195 47.465 354.63 47.87 354.825 48.125C358.035 46.325 360.51 42.74 361.41 36.905L360.69 36.665L360.48 36.71H360.27ZM376.665 35.21C377.91 35.87 379.41 36.92 380.1 37.67L380.895 36.725C380.16 35.99 378.63 35 377.4 34.37L376.665 35.21ZM375.3 41.945V43.025H383.235V41.945H375.3ZM374.235 46.67V47.75H384.105V46.67H374.235ZM374.745 37.64V38.72H383.79V37.64H374.745ZM378.6 38.03V47.165H379.755V38.03H378.6ZM371.13 35.345C372.135 35.78 373.35 36.485 373.95 37.04L374.61 36.095C373.995 35.57 372.735 34.895 371.745 34.52L371.13 35.345ZM370.26 39.44C371.28 39.815 372.555 40.445 373.185 40.94L373.785 39.98C373.14 39.5 371.85 38.915 370.845 38.585L370.26 39.44ZM370.815 47.24L371.76 48.005C372.645 46.61 373.695 44.735 374.49 43.145L373.68 42.41C372.81 44.12 371.625 46.1 370.815 47.24ZM341.705 76.51C344.99 76.51 347.645 73.855 347.645 70.57C347.645 67.285 344.99 64.63 341.705 64.63C338.435 64.63 335.765 67.285 335.765 70.57C335.765 73.855 338.435 76.51 341.705 76.51ZM341.705 75.475C338.99 75.475 336.8 73.285 336.8 70.57C336.8 67.855 338.99 65.665 341.705 65.665C344.42 65.665 346.61 67.855 346.61 70.57C346.61 73.285 344.42 75.475 341.705 75.475ZM341.705 74.755C344.03 74.755 345.905 72.895 345.905 70.57C345.905 68.245 344.03 66.385 341.705 66.385C339.38 66.385 337.52 68.245 337.52 70.57C337.52 72.895 339.38 74.755 341.705 74.755ZM341.705 73.72C339.95 73.72 338.555 72.325 338.555 70.57C338.555 68.815 339.95 67.42 341.705 67.42C343.46 67.42 344.87 68.815 344.87 70.57C344.87 72.325 343.46 73.72 341.705 73.72ZM353.098 68.785V69.835H361.813V68.785H353.098ZM353.098 72.04V73.09H361.813V72.04H353.098ZM353.098 75.325V76.375H361.813V75.325H353.098ZM352.333 65.455V77.215H353.473V66.535H361.513V77.14H362.683V65.455H352.333ZM356.728 63.385C356.578 64.12 356.248 65.17 355.978 65.875L356.983 66.07C357.313 65.425 357.703 64.45 358.033 63.55L356.728 63.385ZM370.273 67.27V68.14H377.383V67.27H370.273ZM370.273 69.535V70.405H377.383V69.535H370.273ZM376.888 64.9V75.64C376.888 75.94 376.783 76.045 376.453 76.045C376.123 76.06 374.998 76.075 373.813 76.015C373.978 76.36 374.173 76.885 374.233 77.215C375.763 77.215 376.738 77.2 377.308 77.005C377.863 76.81 378.043 76.435 378.043 75.64V64.9H376.888ZM367.213 72.145L367.378 73.27C369.988 73.09 373.813 72.79 377.413 72.49L377.428 71.545C373.693 71.785 369.688 72.025 367.213 72.145ZM379.453 68.23C376.858 72.115 372.313 74.68 367.078 76.06C367.303 76.3 367.678 76.825 367.828 77.095C373.033 75.55 377.668 72.925 380.518 68.77L379.453 68.23ZM373.258 63.37C373.078 63.985 372.688 64.87 372.358 65.47L373.363 65.71C373.738 65.17 374.218 64.345 374.608 63.58L373.258 63.37ZM369.568 64.9V72.595H370.678V65.89H377.263V64.9H369.568ZM384.073 66.13L384.208 67.45C385.828 67.105 389.653 66.73 391.258 66.565C389.893 67.375 388.468 69.295 388.468 71.62C388.468 74.98 391.618 76.45 394.393 76.555L394.828 75.325C392.398 75.235 389.653 74.29 389.653 71.365C389.653 69.595 390.958 67.3 393.103 66.61C393.868 66.4 395.173 66.37 396.043 66.385L396.028 65.185C395.023 65.215 393.628 65.305 391.978 65.44C389.218 65.68 386.383 65.95 385.423 66.055C385.123 66.085 384.643 66.115 384.073 66.13ZM393.868 68.215L393.118 68.545C393.568 69.175 393.988 69.94 394.333 70.66L395.113 70.315C394.783 69.64 394.213 68.71 393.868 68.215ZM395.503 67.585L394.768 67.93C395.233 68.56 395.683 69.31 396.043 70.03L396.808 69.655C396.463 68.995 395.878 68.08 395.503 67.585Z" fill="#333333"/>
<circle cx="55.5" cy="157.5" r="53.5" fill="white" fill-opacity="0.8" stroke="#616161" stroke-width="4" stroke-dasharray="4 4 4 4"/>
<path d="M17.03 148.747H22.061V150.255H17.03V148.747ZM16.12 147.993V151.009H23.01V147.993H16.12ZM18.863 150.645C18.772 151.152 18.564 151.893 18.382 152.387L19.227 152.543C19.448 152.075 19.721 151.399 19.955 150.749L18.863 150.645ZM15.197 152.049V156.053H16.133V152.92H23.075V156.04H24.05V152.049H15.197ZM15.691 154.701V155.559H23.504V154.701H15.691ZM14.196 146.147V148.708H15.093V146.992H24.011V148.708H24.96V146.147H14.196ZM23.166 144.197C22.828 144.821 22.217 145.692 21.736 146.238L22.516 146.576C23.023 146.056 23.647 145.263 24.18 144.548L23.166 144.197ZM14.963 144.626C15.431 145.159 15.925 145.9 16.146 146.381L17.017 145.978C16.796 145.497 16.263 144.782 15.795 144.262L14.963 144.626ZM18.213 144.366C18.603 144.938 19.032 145.731 19.201 146.238L20.085 145.9C19.916 145.393 19.461 144.613 19.058 144.067L18.213 144.366ZM28.119 152.114V152.933H39.507V152.114H28.119ZM28.171 146.407V147.239H39.455V146.407H28.171ZM28.691 148.63V149.436H38.987V148.63H28.691ZM29.354 150.385V151.139H38.35V150.385H29.354ZM33.293 149.007V156.053H34.255V149.007H33.293ZM32.097 144.08V146.797H33.02V144.08H32.097ZM34.554 144.08V146.758H35.49V144.08H34.554ZM32.981 152.439C31.876 153.57 29.705 154.571 27.781 155C27.989 155.208 28.275 155.585 28.418 155.832C30.355 155.286 32.552 154.155 33.761 152.803L32.981 152.439ZM34.567 152.413L33.8 152.738C35.022 154.142 37.193 155.325 39.169 155.871C39.312 155.598 39.611 155.208 39.832 155C37.856 154.584 35.672 153.583 34.567 152.413ZM37.57 144.236C37.349 144.834 36.92 145.692 36.569 146.238L37.362 146.498C37.726 145.991 38.194 145.224 38.571 144.509L37.57 144.236ZM35.828 146.992C35.672 147.46 35.334 148.136 35.074 148.591L35.893 148.838C36.179 148.422 36.517 147.824 36.842 147.239L35.828 146.992ZM29.224 144.509C29.64 145.12 30.108 145.952 30.29 146.472L31.161 146.147C30.979 145.614 30.498 144.795 30.056 144.21L29.224 144.509ZM30.914 147.33C31.2 147.759 31.486 148.37 31.59 148.76L32.552 148.552C32.435 148.162 32.136 147.577 31.837 147.148L30.914 147.33ZM48.1 148.682C47.333 148.682 46.709 149.306 46.709 150.06C46.709 150.827 47.333 151.451 48.1 151.451C48.854 151.451 49.478 150.827 49.478 150.06C49.478 149.306 48.854 148.682 48.1 148.682ZM67.964 146.758L67.145 146.108C66.963 146.173 66.664 146.199 66.313 146.199C65.013 146.199 59.228 146.199 58.565 146.199C58.11 146.199 57.59 146.16 57.239 146.108V147.265C57.486 147.239 58.045 147.2 58.565 147.2C59.306 147.2 65.039 147.2 66.209 147.2C65.52 148.435 63.843 150.541 61.763 151.984L62.569 152.712C64.87 151.048 66.664 148.76 67.639 147.161C67.717 147.044 67.834 146.901 67.964 146.758ZM61.841 152.933C62.673 153.778 63.713 154.922 64.194 155.585L65.143 154.831C64.584 154.155 63.57 153.089 62.751 152.27C61.815 151.36 60.307 150.125 59.709 149.696L58.877 150.372C59.566 150.866 61.061 152.153 61.841 152.933ZM71.513 149.371V150.645C71.929 150.619 72.618 150.593 73.333 150.593C74.295 150.593 79.482 150.593 80.47 150.593C81.042 150.593 81.588 150.632 81.861 150.645V149.371C81.562 149.397 81.107 149.449 80.457 149.449C79.495 149.449 74.282 149.449 73.333 149.449C72.592 149.449 71.916 149.41 71.513 149.371ZM89.856 144.951L88.595 144.717C88.569 145.055 88.504 145.419 88.4 145.744C88.257 146.251 88.023 146.914 87.672 147.564C87.217 148.357 86.294 149.696 85.358 150.359L86.385 150.983C87.191 150.294 88.153 148.981 88.66 147.967C89.024 147.252 89.323 146.459 89.518 145.874C89.622 145.601 89.739 145.25 89.856 144.951ZM88.218 147.187L88.088 148.201C89.037 148.201 94.51 148.201 95.173 148.201C95.472 148.201 95.979 148.201 96.382 148.227V147.109C96.005 147.174 95.485 147.187 95.173 147.187C94.523 147.187 89.037 147.187 88.218 147.187ZM92.989 147.733H91.897C91.819 151.334 90.35 153.154 89.011 154.155C88.725 154.389 88.335 154.623 87.958 154.766L89.063 155.507C91.39 154.038 92.872 151.737 92.989 147.733ZM15.782 164.393V165.472C16.12 165.446 16.549 165.42 16.978 165.42C17.719 165.42 21.502 165.42 22.23 165.42C22.594 165.42 23.049 165.446 23.439 165.472V164.393C23.062 164.432 22.594 164.458 22.23 164.458C21.502 164.458 17.719 164.458 16.965 164.458C16.536 164.458 16.159 164.432 15.782 164.393ZM14.235 167.656V168.735C14.586 168.709 14.976 168.696 15.366 168.696C16.12 168.696 23.179 168.696 23.868 168.696C24.193 168.696 24.596 168.709 24.895 168.722V167.656C24.57 167.695 24.141 167.708 23.868 167.708C23.179 167.708 16.12 167.708 15.366 167.708C14.963 167.708 14.586 167.695 14.235 167.656ZM20.358 168.176L19.266 168.189C19.253 169.619 19.149 170.893 18.499 171.92C17.992 172.752 17.056 173.493 16.055 173.922L17.017 174.624C18.109 174.052 19.097 173.129 19.565 172.258C20.15 171.166 20.358 169.814 20.358 168.176ZM28.0986 170.659L28.6056 171.621C30.3346 171.088 32.1416 170.23 33.2336 169.58C34.5856 168.761 35.9376 167.63 36.6916 166.824L35.8856 166.044C35.2096 166.863 34.0136 167.942 32.7916 168.683C31.7256 169.333 29.8146 170.243 28.0986 170.659ZM32.6746 169.281V173.883C32.6746 174.273 32.6356 174.819 32.6096 175.014H33.8186C33.7666 174.819 33.7536 174.273 33.7536 173.883V169.008L32.6746 169.281ZM43.7766 164.484L43.0226 165.277C43.9976 165.914 45.6096 167.318 46.2726 167.994L47.0786 167.162C46.3636 166.447 44.6866 165.095 43.7766 164.484ZM42.6586 173.194L43.3346 174.26C45.5056 173.857 47.1436 173.051 48.4566 172.232C50.4196 170.997 51.9276 169.229 52.8116 167.617L52.1876 166.499C51.4336 168.111 49.8606 170.035 47.8456 171.296C46.6106 172.063 44.9206 172.856 42.6586 173.194ZM65.0706 163.6L64.3686 163.899C64.7196 164.393 65.1616 165.173 65.4216 165.706L66.1236 165.381C65.8636 164.861 65.3956 164.068 65.0706 163.6ZM66.4876 163.08L65.8116 163.379C66.1756 163.86 66.5916 164.601 66.8776 165.16L67.5796 164.848C67.3326 164.367 66.8386 163.561 66.4876 163.08ZM65.9286 166.187L65.0706 165.667C64.8496 165.758 64.5636 165.797 64.2126 165.797C63.8096 165.797 60.5986 165.797 60.0656 165.797L59.6496 166.733H64.4726C64.1996 167.916 63.4066 169.593 62.3926 170.789C61.2096 172.167 59.5976 173.35 57.2056 174.052L58.1416 174.897C60.5856 174 62.1456 172.804 63.3286 171.361C64.4726 169.957 65.2786 168.189 65.6296 166.889C65.6946 166.681 65.8246 166.382 65.9286 166.187ZM61.5736 164.224L60.3776 163.834C60.2996 164.159 60.1046 164.64 59.9746 164.861C59.4026 166.031 58.1286 167.916 55.8796 169.255L56.7896 169.931C58.8696 168.54 60.2346 166.681 61.0016 165.251C61.1316 165.004 61.3656 164.562 61.5736 164.224ZM78.3139 174.065C77.6033 174.065 76.9793 173.918 76.4419 173.623C75.9046 173.32 75.4843 172.908 75.1809 172.388C74.8776 171.859 74.7259 171.257 74.7259 170.581C74.7259 169.905 74.8689 169.307 75.1549 168.787C75.4496 168.267 75.8483 167.86 76.3509 167.565C76.8623 167.262 77.4343 167.11 78.0669 167.11C78.7083 167.11 79.2759 167.257 79.7699 167.552C80.2726 167.838 80.6669 168.245 80.9529 168.774C81.2389 169.294 81.3819 169.896 81.3819 170.581C81.3819 170.624 81.3776 170.672 81.3689 170.724C81.3689 170.767 81.3689 170.815 81.3689 170.867H75.4279V170.178H80.8749L80.5109 170.451C80.5109 169.957 80.4026 169.519 80.1859 169.138C79.9779 168.748 79.6919 168.445 79.3279 168.228C78.9639 168.011 78.5436 167.903 78.0669 167.903C77.5989 167.903 77.1786 168.011 76.8059 168.228C76.4333 168.445 76.1429 168.748 75.9349 169.138C75.7269 169.528 75.6229 169.974 75.6229 170.477V170.62C75.6229 171.14 75.7356 171.599 75.9609 171.998C76.1949 172.388 76.5156 172.696 76.9229 172.921C77.3389 173.138 77.8113 173.246 78.3399 173.246C78.7559 173.246 79.1416 173.172 79.4969 173.025C79.8609 172.878 80.1729 172.652 80.4329 172.349L80.9529 172.947C80.6496 173.311 80.2683 173.588 79.8089 173.779C79.3583 173.97 78.8599 174.065 78.3139 174.065ZM86.7186 174.065C86.0773 174.065 85.5833 173.892 85.2366 173.545C84.89 173.198 84.7166 172.709 84.7166 172.076V165.667H85.6396V172.024C85.6396 172.423 85.7393 172.73 85.9386 172.947C86.1466 173.164 86.4413 173.272 86.8226 173.272C87.23 173.272 87.568 173.155 87.8366 172.921L88.1616 173.584C87.9796 173.749 87.7586 173.87 87.4986 173.948C87.2473 174.026 86.9873 174.065 86.7186 174.065ZM83.4946 167.942V167.175H87.7196V167.942H83.4946ZM93.7347 174.065C93.0587 174.065 92.452 173.918 91.9147 173.623C91.386 173.32 90.97 172.908 90.6667 172.388C90.3633 171.859 90.2117 171.257 90.2117 170.581C90.2117 169.896 90.3633 169.294 90.6667 168.774C90.97 168.254 91.386 167.847 91.9147 167.552C92.452 167.257 93.0587 167.11 93.7347 167.11C94.3153 167.11 94.8397 167.223 95.3077 167.448C95.7757 167.673 96.144 168.011 96.4127 168.462L95.7237 168.93C95.4897 168.583 95.1993 168.328 94.8527 168.163C94.506 167.998 94.129 167.916 93.7217 167.916C93.2363 167.916 92.7987 168.029 92.4087 168.254C92.0187 168.471 91.711 168.778 91.4857 169.177C91.2603 169.576 91.1477 170.044 91.1477 170.581C91.1477 171.118 91.2603 171.586 91.4857 171.985C91.711 172.384 92.0187 172.696 92.4087 172.921C92.7987 173.138 93.2363 173.246 93.7217 173.246C94.129 173.246 94.506 173.164 94.8527 172.999C95.1993 172.834 95.4897 172.583 95.7237 172.245L96.4127 172.713C96.144 173.155 95.7757 173.493 95.3077 173.727C94.8397 173.952 94.3153 174.065 93.7347 174.065Z" fill="#333333"/>
<circle cx="302.5" cy="282.5" r="53.5" fill="white" fill-opacity="0.8" stroke="#616161" stroke-width="4" stroke-dasharray="4 4 4 4"/>
<path d="M272.045 269.05V270.295C272.435 270.265 272.915 270.235 273.425 270.235C274.265 270.235 277.76 270.235 278.6 270.235C279.02 270.235 279.545 270.265 279.995 270.295V269.05C279.56 269.095 279.02 269.125 278.6 269.125C277.76 269.125 274.265 269.125 273.395 269.125C272.915 269.125 272.465 269.095 272.045 269.05ZM270.26 272.815V274.06C270.665 274.03 271.115 274.015 271.565 274.015C272.435 274.015 280.58 274.015 281.375 274.015C281.75 274.015 282.23 274.03 282.56 274.06V272.815C282.185 272.86 281.69 272.89 281.375 272.89C280.58 272.89 272.435 272.89 271.565 272.89C271.1 272.89 270.665 272.86 270.26 272.815ZM277.325 273.415L276.065 273.43C276.05 275.08 275.945 276.55 275.195 277.735C274.595 278.695 273.515 279.55 272.36 280.045L273.47 280.855C274.745 280.21 275.87 279.13 276.425 278.125C277.085 276.865 277.325 275.305 277.325 273.415ZM280.775 267.82L279.98 268.165C280.385 268.735 280.895 269.635 281.18 270.235L281.99 269.875C281.69 269.275 281.15 268.36 280.775 267.82ZM282.41 267.22L281.63 267.565C282.05 268.12 282.545 268.975 282.875 269.62L283.67 269.26C283.385 268.705 282.815 267.775 282.41 267.22ZM288.065 273.505V274.975C288.545 274.945 289.34 274.915 290.165 274.915C291.275 274.915 297.26 274.915 298.4 274.915C299.06 274.915 299.69 274.96 300.005 274.975V273.505C299.66 273.535 299.135 273.595 298.385 273.595C297.275 273.595 291.26 273.595 290.165 273.595C289.31 273.595 288.53 273.55 288.065 273.505ZM310.325 273.13L309.5 273.97C311.36 275.125 313.925 276.97 315.305 278.23L316.19 277.18C314.705 275.98 312.245 274.255 310.325 273.13ZM317.18 270.4L316.19 269.8C315.95 269.89 315.62 269.935 315.215 269.935H310.445L309.965 271.015H315.515C315.17 272.41 314.225 274.315 313.07 275.695C311.72 277.3 309.68 278.89 306.89 279.73L307.955 280.675C310.805 279.625 312.755 278.02 314.12 276.34C315.44 274.72 316.385 272.725 316.835 271.195C316.91 270.955 317.06 270.61 317.18 270.4ZM312.125 268.225L310.76 267.79C310.67 268.18 310.43 268.72 310.28 268.975C309.59 270.355 308.045 272.605 305.48 274.21L306.47 274.975C308.87 273.325 310.565 271.06 311.45 269.41C311.6 269.125 311.87 268.615 312.125 268.225ZM328.55 268.15L327.32 268.045C327.275 268.75 327.065 269.65 326.735 270.475C326.225 271.75 325.22 273.49 323.06 275.56L324.095 276.325C324.59 275.71 325.01 275.17 325.445 274.75C326.135 274.135 327.08 273.655 328.04 273.655C328.82 273.655 329.42 274.06 329.435 274.93C329.45 275.71 329.435 277.255 329.375 278.05H330.53C330.515 277.12 330.485 275.395 330.485 274.615C330.485 273.4 329.585 272.71 328.43 272.71C327.77 272.71 326.915 272.92 326.33 273.265C326.93 272.485 327.485 271.48 327.86 270.565C328.25 269.56 328.415 268.735 328.55 268.15ZM323.405 269.77V270.895C324.245 270.955 325.235 270.985 325.88 270.985C327.785 270.985 330.575 270.85 332.675 270.535V269.425C330.56 269.8 327.965 269.92 325.94 269.92C325.25 269.92 324.215 269.875 323.405 269.77ZM334.865 273.385L334.385 272.275C333.965 272.485 333.59 272.65 333.14 272.86C332.15 273.325 330.935 273.79 329.51 274.525C327.725 275.44 325.865 276.565 325.865 278.395C325.865 280.21 327.59 280.675 329.72 280.675C331.025 280.675 332.69 280.555 333.83 280.42L333.875 279.205C332.555 279.445 330.935 279.58 329.765 279.58C328.22 279.58 327.065 279.4 327.065 278.23C327.065 277.195 328.115 276.385 329.6 275.605C331.055 274.855 332.48 274.285 333.545 273.865C333.95 273.715 334.49 273.505 334.865 273.385ZM272.195 291.785V292.835H280.91V291.785H272.195ZM272.195 295.04V296.09H280.91V295.04H272.195ZM272.195 298.325V299.375H280.91V298.325H272.195ZM271.43 288.455V300.215H272.57V289.535H280.61V300.14H281.78V288.455H271.43ZM275.825 286.385C275.675 287.12 275.345 288.17 275.075 288.875L276.08 289.07C276.41 288.425 276.8 287.45 277.13 286.55L275.825 286.385ZM291.56 287.24L291.26 288.395C292.415 288.695 295.655 289.355 297.095 289.55L297.38 288.41C296.045 288.275 292.85 287.66 291.56 287.24ZM291.23 289.985L289.97 289.82C289.88 291.38 289.505 294.53 289.205 295.895L290.33 296.165C290.42 295.925 290.555 295.685 290.78 295.43C291.83 294.155 293.45 293.42 295.415 293.42C296.945 293.42 298.07 294.275 298.07 295.46C298.07 297.515 295.76 298.88 291.02 298.31L291.38 299.525C296.945 299.99 299.33 298.175 299.33 295.505C299.33 293.735 297.8 292.355 295.505 292.355C293.705 292.355 292.055 292.94 290.615 294.2C290.765 293.225 291.035 291.005 291.23 289.985ZM304.52 294.38L304.82 295.475C306.215 295.07 308.015 294.5 309.725 293.96L309.59 292.94C307.73 293.48 305.81 294.05 304.52 294.38ZM304.715 289.43V290.48H309.575V289.43H304.715ZM306.8 286.415V298.91C306.8 299.12 306.725 299.195 306.515 299.195C306.335 299.195 305.705 299.195 305.03 299.18C305.165 299.48 305.33 299.93 305.36 300.2C306.365 300.215 306.965 300.185 307.355 300.005C307.745 299.84 307.895 299.525 307.895 298.91V286.415H306.8ZM310.1 289.865V300.155H311.165V290.93H317.09V300.065H318.215V289.865H310.1ZM310.745 293.87V294.935H317.42V293.87H310.745ZM310.775 298.025V299.105H317.45V298.025H310.775ZM313.55 286.43V298.685H314.615V286.43H313.55ZM323.885 298.16V299.27H334.475V298.16H323.885ZM328.49 286.49V298.79H329.645V286.49H328.49ZM323.33 293.975V300.215H324.47V293.975H323.33ZM333.875 293.975V300.17H335.03V293.975H333.875ZM323.915 287.84V293.015H334.43V287.84H333.26V291.92H325.025V287.84H323.915Z" fill="#333333"/>
</svg>
