<svg width="789" height="604" viewBox="0 0 789 604" fill="none" xmlns="http://www.w3.org/2000/svg">
<rect width="789" height="604" fill="white"/>
<rect x="529" y="163" width="223" height="43" rx="21.5" fill="#264B8D" fill-opacity="0.05" stroke="#264B8D" stroke-width="2"/>
<path d="M563.364 175.179H560.361C560.466 175.746 560.508 176.418 560.571 177.321C560.739 180.786 560.781 186.54 560.781 189.438C560.781 190.026 560.592 190.299 560.067 190.299C559.353 190.299 558.219 190.215 557.253 190.068L557.505 192.798C558.702 192.882 559.857 192.924 561.138 192.924C562.734 192.924 563.511 192.147 563.49 190.803C563.448 186.561 563.301 180.786 563.238 177.321C563.217 176.649 563.259 175.851 563.364 175.179ZM551.373 178.686V181.479C552.108 181.437 552.99 181.395 553.767 181.395C554.922 181.395 565.191 181.395 566.01 181.395C566.577 181.395 567.396 181.416 568.047 181.437V178.665C567.543 178.728 566.556 178.833 565.884 178.833C564.855 178.833 555.153 178.833 553.683 178.833C552.969 178.833 551.961 178.749 551.373 178.686ZM550.239 188.682L552.171 190.866C555.783 188.955 559.5 185.658 561.201 183.117L561.18 180.87H559.815C558.303 183.348 554.628 186.582 550.239 188.682ZM577.161 176.04L575.166 178.161C576.699 179.211 579.345 181.5 580.437 182.676L582.579 180.492C581.34 179.211 578.61 177.027 577.161 176.04ZM574.515 190.026L576.3 192.798C579.24 192.294 581.949 191.139 584.091 189.858C587.472 187.821 590.265 184.923 591.84 182.067L590.223 179.127C588.879 181.962 586.149 185.154 582.558 187.296C580.521 188.493 577.812 189.564 574.515 190.026ZM599.883 175.893V178.623C600.492 178.56 601.374 178.539 602.067 178.539C603.306 178.539 608.934 178.539 610.089 178.539C610.866 178.539 611.853 178.581 612.399 178.623V175.893C611.832 175.977 610.803 176.019 610.131 176.019C608.913 176.019 603.39 176.019 602.067 176.019C601.353 176.019 600.45 175.977 599.883 175.893ZM614.184 182.004L612.315 180.828C612.021 180.975 611.454 181.059 610.761 181.059C609.333 181.059 601.815 181.059 600.387 181.059C599.715 181.059 598.833 180.996 597.93 180.912V183.642C598.812 183.579 599.862 183.558 600.387 183.558C602.256 183.558 609.459 183.558 610.509 183.558C610.152 184.713 609.48 186.036 608.367 187.17C606.75 188.829 604.251 190.194 601.08 190.866L603.18 193.239C605.868 192.462 608.556 191.055 610.677 188.682C612.231 186.96 613.134 184.902 613.785 182.865C613.848 182.655 614.037 182.277 614.184 182.004ZM619.602 183.852L620.904 186.498C624.222 185.511 627.624 183.936 629.997 182.529C632.475 181.038 635.037 179.064 636.948 177.132L634.68 174.99C633.315 176.649 630.921 178.749 628.779 180.072C626.427 181.521 623.361 182.886 619.602 183.852ZM628.338 181.437V190.194C628.338 191.118 628.254 192.441 628.17 192.945H631.509C631.362 192.42 631.32 191.118 631.32 190.194V180.723L628.338 181.437ZM646.461 176.04L644.466 178.161C645.999 179.211 648.645 181.5 649.737 182.676L651.879 180.492C650.64 179.211 647.91 177.027 646.461 176.04ZM643.815 190.026L645.6 192.798C648.54 192.294 651.249 191.139 653.391 189.858C656.772 187.821 659.565 184.923 661.14 182.067L659.523 179.127C658.179 181.962 655.449 185.154 651.858 187.296C649.821 188.493 647.112 189.564 643.815 190.026ZM665.949 177.615L666.222 180.492C668.637 179.967 672.942 179.505 674.895 179.295C673.488 180.366 671.787 182.76 671.787 185.763C671.787 190.32 675.945 192.693 680.334 192.966L681.321 190.089C677.772 189.921 674.538 188.661 674.538 185.217C674.538 182.718 676.449 179.988 678.969 179.316C680.103 179.064 681.909 179.043 683.043 179.043L683.022 176.334C681.531 176.397 679.242 176.544 677.058 176.712C673.215 177.048 669.75 177.342 668.007 177.51C667.608 177.552 666.768 177.594 665.949 177.615ZM680.04 181.101L678.486 181.752C679.137 182.676 679.578 183.516 680.124 184.65L681.699 183.957C681.3 183.117 680.544 181.836 680.04 181.101ZM682.371 180.135L680.859 180.828C681.531 181.752 682.014 182.55 682.581 183.684L684.156 182.928C683.715 182.109 682.917 180.87 682.371 180.135ZM692.598 180.135V182.403H703.497V180.135H692.598ZM688.692 183.915V186.288H707.508V183.915H688.692ZM693.774 185.805C693.459 188.682 692.892 190.635 688.083 191.706C688.65 192.231 689.301 193.281 689.553 193.953C695.097 192.483 696.105 189.711 696.504 185.805H693.774ZM699.192 185.406V190.572C699.192 192.84 699.78 193.575 702.237 193.575C702.72 193.575 704.442 193.575 704.925 193.575C706.92 193.575 707.592 192.777 707.844 189.711C707.193 189.543 706.101 189.144 705.597 188.745C705.513 190.95 705.387 191.307 704.694 191.307C704.295 191.307 702.93 191.307 702.594 191.307C701.859 191.307 701.733 191.202 701.733 190.53V185.406H699.192ZM696.693 174.192V177.993H699.381V174.192H696.693ZM689.07 176.208V181.206H691.632V178.581H704.4V181.206H707.109V176.208H689.07ZM723.846 174.171V182.403H726.408V174.171H723.846ZM721.914 190.74V192.987H728.739V190.74H721.914ZM719.394 176.901V179.169H731.028V176.901H719.394ZM719.982 181.479V183.768H730.545V181.479H719.982ZM720.633 185.532V193.869H722.943V187.779H727.647V193.848H730.062V185.532H720.633ZM714.48 174.192C713.997 175.662 713.094 177.678 712.338 178.938L714.039 179.631C714.858 178.476 715.845 176.607 716.706 174.969L714.48 174.192ZM717 176.67C715.887 178.917 713.976 182.004 712.359 183.894L713.892 184.671C715.509 182.886 717.567 179.967 719.121 177.552L717 176.67ZM711.246 179.169C712.317 180.177 713.598 181.626 714.123 182.634L715.404 180.66C714.858 179.736 713.556 178.392 712.422 177.426L711.246 179.169ZM716.475 181.731C717.273 183.18 718.05 185.091 718.302 186.288L720.213 185.406C719.94 184.188 719.1 182.361 718.26 180.954L716.475 181.731ZM711.225 183.432L711.435 185.616C713.493 185.49 716.223 185.301 718.848 185.091L718.869 183.096C716.055 183.243 713.178 183.369 711.225 183.432ZM716.853 187.002C717.357 188.283 717.903 189.984 718.092 191.076L720.066 190.362C719.814 189.291 719.247 187.653 718.701 186.393L716.853 187.002ZM712.128 186.519C711.96 188.304 711.624 190.173 711.015 191.412C711.54 191.622 712.485 192.063 712.926 192.336C713.535 190.992 713.997 188.892 714.207 186.876L712.128 186.519ZM714.564 184.545V193.911H716.811V184.545H714.564Z" fill="#264B8D"/>
<path d="M529 252.346H380V253H529V252.346Z" fill="#E6E6E6"/>
<path d="M466.512 251.323H442.282L443.104 240.396H465.691L466.512 251.323Z" fill="#E6E6E6"/>
<path d="M468.155 250.062H441.051V252.584H468.155V250.062Z" fill="#E6E6E6"/>
<path d="M500.803 170H408.197C407.543 170 406.917 170.266 406.454 170.739C405.992 171.211 405.733 171.853 405.733 172.522V172.522V230.31H503.267V172.522C503.267 172.191 503.203 171.863 503.08 171.557C502.956 171.251 502.774 170.973 502.545 170.739C502.317 170.504 502.045 170.319 501.746 170.192C501.447 170.065 501.127 170 500.803 170H500.803Z" fill="#3F3D56"/>
<path d="M405.733 230.31V239.766C405.733 240.097 405.797 240.425 405.92 240.731C406.044 241.037 406.226 241.315 406.454 241.549C406.683 241.783 406.955 241.969 407.254 242.095C407.553 242.222 407.873 242.287 408.197 242.287H500.803C501.457 242.287 502.083 242.022 502.545 241.549C503.007 241.076 503.267 240.434 503.267 239.766V230.31H405.733Z" fill="#E6E6E6"/>
<path d="M498.544 175.253H410.661V225.687H498.544V175.253Z" fill="#E6E6E6"/>
<path d="M454.603 238.715C455.964 238.715 457.067 237.586 457.067 236.193C457.067 234.801 455.964 233.672 454.603 233.672C453.242 233.672 452.139 234.801 452.139 236.193C452.139 237.586 453.242 238.715 454.603 238.715Z" fill="#3F3D56"/>
<path d="M413.401 177.384C413.659 177.384 413.869 177.169 413.869 176.905C413.869 176.641 413.659 176.427 413.401 176.427C413.143 176.427 412.934 176.641 412.934 176.905C412.934 177.169 413.143 177.384 413.401 177.384Z" fill="white"/>
<path d="M415.176 177.384C415.434 177.384 415.644 177.169 415.644 176.905C415.644 176.641 415.434 176.427 415.176 176.427C414.918 176.427 414.708 176.641 414.708 176.905C414.708 177.169 414.918 177.384 415.176 177.384Z" fill="white"/>
<path d="M416.951 177.384C417.209 177.384 417.418 177.169 417.418 176.905C417.418 176.641 417.209 176.427 416.951 176.427C416.693 176.427 416.483 176.641 416.483 176.905C416.483 177.169 416.693 177.384 416.951 177.384Z" fill="white"/>
<path d="M496.012 178.531H412.934V220.887H496.012V178.531Z" fill="white"/>
<path d="M418.456 184.974C418.378 184.974 418.303 185.005 418.248 185.062C418.193 185.118 418.162 185.195 418.162 185.274V200.467C418.162 200.547 418.193 200.623 418.248 200.679C418.303 200.736 418.378 200.768 418.456 200.768H435.6C435.678 200.768 435.753 200.736 435.808 200.679C435.863 200.623 435.894 200.547 435.894 200.467V185.274C435.894 185.195 435.863 185.118 435.808 185.062C435.753 185.005 435.678 184.974 435.6 184.974H418.456Z" fill="#264B8D"/>
<path d="M445.983 185.023C445.905 185.023 445.831 185.054 445.776 185.111C445.721 185.167 445.69 185.243 445.689 185.323V200.467C445.69 200.547 445.721 200.623 445.776 200.679C445.831 200.736 445.905 200.768 445.983 200.768H463.073C463.151 200.767 463.225 200.736 463.28 200.679C463.335 200.623 463.366 200.547 463.366 200.467V185.323C463.366 185.243 463.335 185.167 463.28 185.111C463.225 185.054 463.151 185.023 463.073 185.023H445.983Z" fill="#264B8D" fill-opacity="0.5"/>
<path d="M473.222 184.864C473.144 184.864 473.069 184.896 473.014 184.952C472.959 185.008 472.928 185.085 472.928 185.164V200.467C472.928 200.547 472.959 200.623 473.014 200.679C473.069 200.736 473.144 200.767 473.222 200.768H490.489C490.567 200.767 490.642 200.736 490.697 200.679C490.752 200.623 490.783 200.547 490.783 200.467V185.164C490.783 185.085 490.752 185.008 490.697 184.952C490.642 184.896 490.567 184.864 490.489 184.864H473.222Z" fill="#264B8D" fill-opacity="0.1"/>
<path d="M418.769 208.288C418.609 208.288 418.454 208.354 418.341 208.47C418.227 208.587 418.163 208.745 418.163 208.909C418.163 209.074 418.227 209.232 418.341 209.348C418.454 209.465 418.609 209.53 418.769 209.531H434.888C435.049 209.53 435.203 209.465 435.317 209.348C435.431 209.232 435.494 209.074 435.494 208.909C435.494 208.745 435.431 208.587 435.317 208.47C435.203 208.354 435.049 208.288 434.888 208.288H418.769Z" fill="#E6E6E6"/>
<path d="M418.769 211.244C418.609 211.244 418.454 211.31 418.341 211.426C418.227 211.543 418.163 211.701 418.163 211.865C418.163 212.03 418.227 212.188 418.341 212.304C418.454 212.421 418.609 212.486 418.769 212.487H426.027C426.188 212.486 426.342 212.421 426.456 212.304C426.569 212.188 426.633 212.03 426.633 211.865C426.633 211.701 426.569 211.543 426.456 211.426C426.342 211.31 426.188 211.244 426.027 211.244H418.769Z" fill="white"/>
<path d="M446.592 208.288C446.432 208.288 446.277 208.354 446.164 208.47C446.05 208.587 445.986 208.745 445.986 208.909C445.986 209.074 446.05 209.232 446.164 209.348C446.277 209.465 446.432 209.53 446.592 209.531H462.711C462.872 209.53 463.026 209.465 463.14 209.348C463.254 209.232 463.317 209.074 463.317 208.909C463.317 208.745 463.254 208.587 463.14 208.47C463.026 208.354 462.872 208.288 462.711 208.288H446.592Z" fill="#E6E6E6"/>
<path d="M446.592 211.244C446.432 211.244 446.277 211.31 446.164 211.426C446.05 211.543 445.986 211.701 445.986 211.865C445.986 212.03 446.05 212.188 446.164 212.304C446.277 212.421 446.432 212.486 446.592 212.487H453.85C454.011 212.486 454.165 212.421 454.279 212.304C454.392 212.188 454.456 212.03 454.456 211.865C454.456 211.701 454.392 211.543 454.279 211.426C454.165 211.31 454.011 211.244 453.85 211.244H446.592Z" fill="white"/>
<path d="M473.72 208.288C473.559 208.288 473.405 208.354 473.291 208.47C473.178 208.587 473.114 208.745 473.114 208.909C473.114 209.074 473.178 209.232 473.291 209.348C473.405 209.465 473.559 209.53 473.72 209.531H489.839C490 209.53 490.154 209.465 490.268 209.348C490.381 209.232 490.445 209.074 490.445 208.909C490.445 208.745 490.381 208.587 490.268 208.47C490.154 208.354 490 208.288 489.839 208.288H473.72Z" fill="#E6E6E6"/>
<path d="M418.769 205.235C418.609 205.236 418.454 205.301 418.341 205.418C418.227 205.534 418.163 205.692 418.163 205.857C418.163 206.021 418.227 206.179 418.341 206.296C418.454 206.412 418.609 206.478 418.769 206.478H434.888C435.049 206.478 435.203 206.412 435.317 206.296C435.431 206.179 435.494 206.021 435.494 205.857C435.494 205.692 435.431 205.534 435.317 205.418C435.203 205.301 435.049 205.236 434.888 205.235H418.769Z" fill="#E6E6E6"/>
<path d="M446.592 205.235C446.432 205.236 446.277 205.301 446.164 205.418C446.05 205.534 445.986 205.692 445.986 205.857C445.986 206.021 446.05 206.179 446.164 206.296C446.277 206.412 446.432 206.478 446.592 206.478H462.711C462.872 206.478 463.026 206.412 463.14 206.296C463.254 206.179 463.317 206.021 463.317 205.857C463.317 205.692 463.254 205.534 463.14 205.418C463.026 205.301 462.872 205.236 462.711 205.235H446.592Z" fill="#E6E6E6"/>
<path d="M473.72 205.235C473.559 205.236 473.405 205.301 473.291 205.418C473.178 205.534 473.114 205.692 473.114 205.857C473.114 206.021 473.178 206.179 473.291 206.296C473.405 206.412 473.559 206.478 473.72 206.478H489.839C490 206.478 490.154 206.412 490.268 206.296C490.381 206.179 490.445 206.021 490.445 205.857C490.445 205.692 490.381 205.534 490.268 205.418C490.154 205.301 490 205.236 489.839 205.235H473.72Z" fill="#E6E6E6"/>
<path d="M473.72 211.244C473.559 211.244 473.405 211.31 473.291 211.426C473.178 211.543 473.114 211.701 473.114 211.865C473.114 212.03 473.178 212.188 473.291 212.304C473.405 212.421 473.559 212.486 473.72 212.487H480.977C481.138 212.486 481.292 212.421 481.406 212.304C481.52 212.188 481.584 212.03 481.584 211.865C481.584 211.701 481.52 211.543 481.406 211.426C481.292 211.31 481.138 211.244 480.977 211.244H473.72Z" fill="white"/>
<path d="M107.242 105.767V108.159H127.781V105.767H107.242ZM109.588 93.278V95.417H123.388V93.278H109.588ZM107.541 98.154V100.316H125.711V98.154H107.541ZM116.074 104.663V114.047H118.88V104.663H116.074ZM115.223 106.802C113.429 108.826 109.933 110.62 106.621 111.494C107.219 112.069 108.047 113.127 108.461 113.794C111.865 112.644 115.361 110.413 117.477 107.814L115.223 106.802ZM119.708 106.871L117.454 107.929C119.616 110.413 123.181 112.598 126.539 113.702C126.953 113.012 127.781 111.931 128.402 111.379C125.067 110.551 121.502 108.803 119.708 106.871ZM116.58 99.396V102.478C116.58 102.731 116.488 102.823 116.143 102.823C115.821 102.846 114.556 102.846 113.567 102.777C113.889 103.398 114.234 104.272 114.372 104.962C116.005 104.962 117.247 104.962 118.167 104.64C119.11 104.341 119.386 103.789 119.386 102.57V99.396H116.58ZM124.676 98.154V98.545C123.986 100.017 122.698 101.742 121.686 102.8L124.147 103.674C125.366 102.432 126.723 100.523 127.781 98.706L125.665 98.039L125.159 98.154H124.676ZM114.924 98.591C113.268 100.477 110.002 102.225 107.035 103.076C107.587 103.605 108.346 104.548 108.737 105.169C111.819 104.065 115.131 101.926 117.063 99.534L114.924 98.591ZM112.325 97.234C115.062 97.717 118.466 98.752 120.329 99.626L121.916 97.993C119.892 97.165 116.557 96.199 113.889 95.739L112.325 97.234ZM122.238 93.278V93.761C121.226 94.75 118.926 96.038 116.879 96.751C117.27 97.119 117.914 97.855 118.236 98.338C120.789 97.441 123.342 95.992 125.205 94.497L123.48 93.14L122.928 93.278H122.238ZM144.801 96.636V99.097H151.586V96.636H144.801ZM144.525 92.45C144.111 96.13 143.168 99.626 141.535 101.765C142.133 102.11 143.283 102.938 143.766 103.375C145.491 100.891 146.618 96.981 147.193 92.841L144.525 92.45ZM147.837 97.809H146.457V102.501C146.48 104.732 145.422 109.309 141.075 111.77C141.558 112.345 142.34 113.495 142.639 114.093C145.836 112.253 147.469 108.711 147.814 106.825C148.159 108.665 149.631 112.322 152.529 114.093C152.92 113.426 153.679 112.276 154.185 111.678C150.137 109.194 149.171 104.686 149.171 102.501V97.809H147.837ZM151.034 96.636V97.027C150.781 99.005 150.344 101.535 149.999 103.076L152.207 103.605C152.69 101.926 153.265 99.281 153.679 96.981L151.816 96.544L151.402 96.636H151.034ZM132.565 94.635V97.027H142.616V94.635H132.565ZM132.266 107.952V110.367H142.869V107.952H132.266ZM136.291 92.45V99.258H138.867V92.45H136.291ZM136.567 99.212V105.606H136.291V114.047H138.844V105.606H138.568V99.212H136.567ZM135.049 103.375H140.109V104.778H135.049V103.375ZM135.049 100.201H140.109V101.581H135.049V100.201ZM132.933 98.269V106.71H142.317V98.269H132.933ZM158.946 96.935L159.153 99.626C160.142 99.672 161.108 99.695 162.028 99.695C164.972 99.718 168.284 99.12 170.262 98.568L170.193 95.9C167.962 96.613 164.857 97.096 162.005 97.096C161.177 97.096 159.935 97.05 158.946 96.935ZM167.893 93.485L164.719 93.186C164.65 94.957 164.144 97.096 163.592 98.752C162.695 101.236 160.625 105.261 158.555 107.791L161.338 109.217C163.293 106.503 165.363 102.225 166.421 98.913C167.042 96.958 167.594 94.704 167.893 93.485ZM173.298 100.661H170.4C170.515 103.076 170.768 107.308 170.768 108.688C170.768 109.976 170.262 110.85 168.698 110.85C167.433 110.85 166.697 110.252 166.697 109.401C166.697 108.596 167.571 108.021 168.905 108.021C172.378 108.021 175 110.39 176.656 111.931L178.174 109.447C176.265 107.722 173.091 105.698 169.066 105.698C165.869 105.698 163.983 107.446 163.983 109.677C163.983 112.207 166.237 113.495 169.089 113.495C172.378 113.495 173.528 111.816 173.528 109.677C173.528 108.389 173.321 104.962 173.275 103.605C173.252 102.593 173.229 101.627 173.298 100.661ZM177.254 101.88L178.887 99.442C177.691 98.591 174.862 97.05 173.206 96.337L171.711 98.591C173.298 99.304 175.92 100.799 177.254 101.88ZM187.949 100.339V102.708H198.552V100.339H187.949ZM183.832 105.491V108.044H204.417V105.491H183.832ZM192.687 104.019V111.034C192.687 111.356 192.549 111.471 192.089 111.471C191.629 111.471 189.904 111.471 188.432 111.425C188.869 112.138 189.375 113.311 189.559 114.093C191.514 114.093 192.986 114.047 194.067 113.679C195.171 113.265 195.516 112.552 195.516 111.126V104.019H192.687ZM197.655 100.339V100.845C196.804 101.972 194.849 103.605 193.078 104.525C193.492 104.893 194.228 105.652 194.55 106.112C196.804 105.031 199.081 103.237 200.668 101.535L198.92 100.201L198.345 100.339H197.655ZM184.108 96.13V101.765H186.707V98.568H201.427V101.765H204.164V96.13H184.108ZM200.047 92.634C199.495 93.922 198.46 95.647 197.586 96.774L199.84 97.602C200.783 96.59 201.979 95.026 203.037 93.508L200.047 92.634ZM185.649 93.761C186.431 94.727 187.282 96.038 187.604 96.889L190.111 95.739C189.743 94.842 188.823 93.6 187.995 92.703L185.649 93.761ZM191.445 93.255C192.135 94.313 192.848 95.762 193.078 96.682L195.7 95.67C195.401 94.75 194.619 93.347 193.883 92.335L191.445 93.255ZM212.03 104.387V114.116H214.767V106.48H224.634V114.116H227.509V104.387H212.03ZM213.41 107.791V109.861H225.37V107.791H213.41ZM213.548 111.218V113.288H225.485V111.218H213.548ZM218.148 102.294C217.941 103.168 217.481 104.387 217.067 105.284L219.321 105.767C219.85 105.031 220.517 103.881 221.115 102.708L218.148 102.294ZM209.523 93.508V95.624H216.952V93.508H209.523ZM216.331 93.508V101.121C216.331 101.351 216.239 101.443 215.963 101.443C215.71 101.443 214.836 101.443 214.031 101.42C214.307 101.972 214.629 102.777 214.721 103.375C216.124 103.375 217.136 103.375 217.872 103.053C218.585 102.731 218.815 102.202 218.815 101.121V93.508H216.331ZM220.034 93.508V95.624H227.969V93.508H220.034ZM226.681 93.508V101.029C226.681 101.305 226.589 101.351 226.29 101.374C226.014 101.397 224.979 101.397 224.128 101.351C224.427 101.926 224.726 102.8 224.841 103.421C226.359 103.444 227.463 103.421 228.245 103.099C229.027 102.731 229.257 102.179 229.257 101.052V93.508H226.681ZM219.367 100.27L220.287 102.317C222.012 101.719 224.151 100.914 226.129 100.155L225.715 98.177C223.392 99.005 221 99.787 219.367 100.27ZM220.448 96.981C221.483 97.556 222.84 98.43 223.461 99.074L224.841 97.28C224.174 96.659 222.794 95.854 221.759 95.371L220.448 96.981ZM208.902 100.661L209.891 102.915C211.501 102.271 213.456 101.443 215.319 100.638L214.928 98.66C212.697 99.442 210.443 100.224 208.902 100.661ZM210.121 97.004C211.156 97.579 212.444 98.476 213.042 99.097L214.422 97.349C213.801 96.728 212.467 95.923 211.455 95.417L210.121 97.004ZM124.469 125.141C124.469 124.405 125.067 123.807 125.803 123.807C126.539 123.807 127.137 124.405 127.137 125.141C127.137 125.877 126.539 126.475 125.803 126.475C125.067 126.475 124.469 125.877 124.469 125.141ZM123.043 125.141C123.043 126.659 124.285 127.901 125.803 127.901C127.321 127.901 128.563 126.659 128.563 125.141C128.563 123.623 127.321 122.381 125.803 122.381C124.285 122.381 123.043 123.623 123.043 125.141ZM125.849 126.958L123.572 125.509C122.974 125.67 122.238 125.693 121.778 125.693C120.49 125.693 112.854 125.693 111.129 125.693C110.37 125.693 109.082 125.578 108.392 125.486V128.752C108.99 128.706 110.071 128.637 111.129 128.637C112.854 128.637 120.444 128.637 121.847 128.637C121.548 130.615 120.674 133.237 119.133 135.146C117.293 137.469 114.694 139.47 110.117 140.528L112.624 143.288C116.741 141.977 119.8 139.7 121.87 136.94C123.802 134.387 124.814 130.799 125.343 128.545C125.458 128.062 125.619 127.395 125.849 126.958ZM136.659 124.359V127.349C137.326 127.28 138.292 127.257 139.051 127.257C140.408 127.257 146.572 127.257 147.837 127.257C148.688 127.257 149.769 127.303 150.367 127.349V124.359C149.746 124.451 148.619 124.497 147.883 124.497C146.549 124.497 140.5 124.497 139.051 124.497C138.269 124.497 137.28 124.451 136.659 124.359ZM152.322 131.052L150.275 129.764C149.953 129.925 149.332 130.017 148.573 130.017C147.009 130.017 138.775 130.017 137.211 130.017C136.475 130.017 135.509 129.948 134.52 129.856V132.846C135.486 132.777 136.636 132.754 137.211 132.754C139.258 132.754 147.147 132.754 148.297 132.754C147.906 134.019 147.17 135.468 145.951 136.71C144.18 138.527 141.443 140.022 137.97 140.758L140.27 143.357C143.214 142.506 146.158 140.965 148.481 138.366C150.183 136.48 151.172 134.226 151.885 131.995C151.954 131.765 152.161 131.351 152.322 131.052ZM162.603 124.52L160.418 126.843C162.097 127.993 164.995 130.5 166.191 131.788L168.537 129.396C167.18 127.993 164.19 125.601 162.603 124.52ZM159.705 139.838L161.66 142.874C164.88 142.322 167.847 141.057 170.193 139.654C173.896 137.423 176.955 134.249 178.68 131.121L176.909 127.901C175.437 131.006 172.447 134.502 168.514 136.848C166.283 138.159 163.316 139.332 159.705 139.838ZM186.477 126.383V129.718C187.259 129.695 188.317 129.649 189.191 129.649C190.479 129.649 197.494 129.649 198.713 129.649C199.518 129.649 200.599 129.695 201.266 129.718V126.383C200.599 126.475 199.633 126.521 198.713 126.521C197.448 126.521 191.123 126.521 189.191 126.521C188.386 126.521 187.328 126.475 186.477 126.383ZM184.545 137.653V141.172C185.419 141.08 186.523 141.011 187.443 141.011C188.892 141.011 199.196 141.011 200.645 141.011C201.312 141.011 202.347 141.08 203.175 141.172V137.653C202.393 137.722 201.404 137.791 200.645 137.791C199.196 137.791 188.892 137.791 187.443 137.791C186.523 137.791 185.442 137.699 184.545 137.653ZM213.663 124.52L211.478 126.843C213.157 127.993 216.055 130.5 217.251 131.788L219.597 129.396C218.24 127.993 215.25 125.601 213.663 124.52ZM210.765 139.838L212.72 142.874C215.94 142.322 218.907 141.057 221.253 139.654C224.956 137.423 228.015 134.249 229.74 131.121L227.969 127.901C226.497 131.006 223.507 134.502 219.574 136.848C217.343 138.159 214.376 139.332 210.765 139.838ZM251.567 123.163L249.727 123.922C250.348 124.796 251.061 126.176 251.544 127.119L253.384 126.314C252.947 125.463 252.142 124.014 251.567 123.163ZM254.281 122.128L252.464 122.887C253.085 123.738 253.821 125.095 254.304 126.038L256.144 125.256C255.73 124.451 254.879 123.002 254.281 122.128ZM253.614 128.223L251.268 126.774C250.739 126.958 249.98 127.05 249.267 127.05C248.531 127.05 243.724 127.05 242.689 127.05L241.631 129.672H249.382C249.014 131.374 247.68 134.134 246.116 135.928C244.115 138.205 241.562 140.206 236.847 141.632L239.561 144.047C243.885 142.345 246.668 140.229 248.853 137.561C250.923 135.008 252.234 131.926 252.855 129.879C253.039 129.304 253.361 128.683 253.614 128.223ZM246.116 124.589L242.758 123.485C242.551 124.267 242.068 125.348 241.723 125.9C240.573 127.878 238.572 130.845 234.524 133.306L237.123 135.215C240.412 132.961 243.172 129.718 244.713 126.935C244.989 126.452 245.587 125.394 246.116 124.589ZM115.729 172.276C114.456 172.276 113.276 172.069 112.187 171.655C111.114 171.241 110.178 170.658 109.381 169.907C108.599 169.156 107.986 168.274 107.541 167.262C107.112 166.25 106.897 165.146 106.897 163.95C106.897 162.754 107.112 161.65 107.541 160.638C107.986 159.626 108.607 158.744 109.404 157.993C110.201 157.242 111.137 156.659 112.21 156.245C113.283 155.831 114.449 155.624 115.706 155.624C116.979 155.624 118.144 155.831 119.202 156.245C120.275 156.659 121.203 157.242 121.985 157.993C122.782 158.744 123.403 159.626 123.848 160.638C124.293 161.635 124.515 162.739 124.515 163.95C124.515 165.146 124.293 166.258 123.848 167.285C123.403 168.297 122.782 169.179 121.985 169.93C121.203 170.666 120.275 171.241 119.202 171.655C118.144 172.069 116.986 172.276 115.729 172.276ZM115.706 169.102C116.427 169.102 117.086 168.979 117.684 168.734C118.297 168.489 118.834 168.136 119.294 167.676C119.754 167.216 120.107 166.672 120.352 166.043C120.613 165.414 120.743 164.717 120.743 163.95C120.743 163.183 120.613 162.486 120.352 161.857C120.107 161.228 119.754 160.684 119.294 160.224C118.849 159.764 118.32 159.411 117.707 159.166C117.094 158.921 116.427 158.798 115.706 158.798C114.985 158.798 114.318 158.921 113.705 159.166C113.107 159.411 112.578 159.764 112.118 160.224C111.658 160.684 111.298 161.228 111.037 161.857C110.792 162.486 110.669 163.183 110.669 163.95C110.669 164.701 110.792 165.399 111.037 166.043C111.298 166.672 111.65 167.216 112.095 167.676C112.555 168.136 113.092 168.489 113.705 168.734C114.318 168.979 114.985 169.102 115.706 169.102ZM133.18 168.32L132.973 164.019L140.678 155.9H144.818L137.872 163.375L135.802 165.583L133.18 168.32ZM129.845 172V155.9H133.548V172H129.845ZM140.862 172L135.135 164.985L137.573 162.34L145.209 172H140.862ZM157.796 166.089H160.165L160.763 158.223L160.878 154.796H157.083L157.198 158.223L157.796 166.089ZM158.992 172.23C160.142 172.23 161.016 171.379 161.016 170.183C161.016 168.987 160.142 168.159 158.992 168.159C157.819 168.159 156.945 168.987 156.945 170.183C156.945 171.379 157.796 172.23 158.992 172.23Z" fill="#333333"/>
<circle cx="173" cy="129" r="96" stroke="#264B8D" stroke-width="4" stroke-dasharray="4 4"/>
<path d="M86.528 431V415.64L88.208 417.32H83.168V414.2H90.416V431H86.528ZM97.9424 431.192C97.3024 431.192 96.7504 430.976 96.2864 430.544C95.8384 430.096 95.6144 429.528 95.6144 428.84C95.6144 428.152 95.8384 427.6 96.2864 427.184C96.7504 426.752 97.3024 426.536 97.9424 426.536C98.5984 426.536 99.1504 426.752 99.5984 427.184C100.046 427.6 100.27 428.152 100.27 428.84C100.27 429.528 100.046 430.096 99.5984 430.544C99.1504 430.976 98.5984 431.192 97.9424 431.192ZM131.901 413.744C131.901 412.976 132.525 412.352 133.293 412.352C134.037 412.352 134.661 412.976 134.661 413.744C134.661 414.512 134.037 415.136 133.293 415.136C132.525 415.136 131.901 414.512 131.901 413.744ZM130.413 413.744C130.413 415.328 131.709 416.624 133.293 416.624C134.853 416.624 136.149 415.328 136.149 413.744C136.149 412.16 134.853 410.864 133.293 410.864C131.709 410.864 130.413 412.16 130.413 413.744ZM117.285 423.536C116.445 425.672 115.029 428.24 113.541 430.208L116.901 431.624C118.149 429.824 119.565 427.088 120.429 424.76C121.269 422.528 122.133 419.24 122.469 417.56C122.565 417.008 122.853 415.832 123.045 415.16L119.565 414.416C119.253 417.488 118.341 420.872 117.285 423.536ZM129.117 423.056C130.077 425.648 130.965 428.672 131.613 431.504L135.165 430.352C134.517 427.976 133.245 424.16 132.381 421.976C131.469 419.672 129.837 415.976 128.829 414.128L125.637 415.16C126.669 416.984 128.205 420.536 129.117 423.056ZM141.261 419.888V423.68C142.173 423.608 143.781 423.536 145.125 423.536C147.957 423.536 155.853 423.536 158.037 423.536C159.045 423.536 160.269 423.656 160.845 423.68V419.888C160.197 419.936 159.141 420.056 158.013 420.056C155.877 420.056 147.957 420.056 145.125 420.056C143.877 420.056 142.149 419.96 141.261 419.888ZM172.989 428.72C172.989 429.656 172.917 431.12 172.749 432.056H176.517C176.397 431.072 176.301 429.392 176.301 428.72C176.301 426.944 176.277 417.56 176.277 414.92C176.277 413.912 176.397 412.88 176.493 412.016H172.749C172.917 412.88 172.989 414.056 172.989 414.92C172.989 416.936 172.989 426.872 172.989 428.72ZM175.581 418.232V421.688C178.197 422.552 182.229 424.088 184.965 425.504L186.309 422.168C183.957 421.016 178.773 419.12 175.581 418.232ZM202.149 419.768L200.013 421.952C202.821 423.728 207.381 427.088 209.469 429.056L211.773 426.32C209.541 424.544 205.101 421.472 202.149 419.768ZM213.453 415.688L211.005 414.176C210.453 414.344 209.661 414.464 208.917 414.464H202.077L200.973 417.176H209.085C208.629 419.048 207.141 421.808 205.533 423.704C203.469 426.104 200.613 428.624 195.597 430.184L198.381 432.584C202.965 430.856 206.037 428.168 208.293 425.36C210.453 422.696 211.917 419.624 212.637 417.416C212.853 416.816 213.165 416.144 213.453 415.688ZM205.509 411.992L202.029 410.912C201.813 411.752 201.309 412.856 200.949 413.432C199.725 415.52 197.517 418.808 193.317 421.4L195.885 423.392C199.341 421.016 202.413 417.344 204.021 414.44C204.309 413.936 204.933 412.832 205.509 411.992ZM219.765 421.688L221.253 424.712C225.045 423.584 228.933 421.784 231.645 420.176C234.477 418.472 237.405 416.216 239.589 414.008L236.997 411.56C235.437 413.456 232.701 415.856 230.253 417.368C227.565 419.024 224.061 420.584 219.765 421.688ZM229.749 418.928V428.936C229.749 429.992 229.653 431.504 229.557 432.08H233.373C233.205 431.48 233.157 429.992 233.157 428.936V418.112L229.749 418.928ZM257.504 412.904L253.688 412.136C253.592 412.928 253.472 413.696 253.136 414.896C252.344 417.68 249.848 425.552 248.552 428.624L252.08 428.504C253.112 426.008 255.608 418.28 256.496 415.592C256.856 414.512 257.192 413.624 257.504 412.904ZM261.8 420.656L258.824 421.904C260.528 424.208 262.76 429.176 263.84 432.08L267.08 430.64C265.976 427.976 263.528 423.248 261.8 420.656ZM248.312 427.544C247.544 427.568 246.488 427.592 245.672 427.568L246.248 431.096C246.992 431 247.904 430.88 248.504 430.808C251.744 430.472 260 429.608 263.552 429.152L262.856 426.08C259.496 426.536 251.648 427.424 248.312 427.544ZM271.712 414.464V417.224H293.48V414.464H271.712ZM279.728 420.344V423.08H288.92V420.344H279.728ZM287.864 420.344L287.84 420.8C287.504 426.728 287.048 429.464 286.328 430.088C286.016 430.352 285.68 430.376 285.152 430.376C284.456 430.376 282.752 430.376 281.096 430.232C281.648 431.024 282.08 432.224 282.128 433.064C283.736 433.112 285.344 433.136 286.256 433.064C287.36 432.944 288.128 432.704 288.848 431.936C289.808 430.88 290.312 428.168 290.744 421.592C290.816 421.208 290.84 420.344 290.84 420.344H287.864ZM278.648 416.096C278.408 421.568 278.264 427.664 271.28 430.904C272.048 431.504 272.912 432.56 273.344 433.328C280.88 429.536 281.528 422.528 281.888 416.096H278.648ZM280.976 410.504V415.544H283.952V410.504H280.976ZM314.12 412.208C315.224 413 316.568 414.2 317.192 415.016L319.208 413.288C318.536 412.496 317.12 411.368 316.04 410.624L314.12 412.208ZM298.232 414.704V417.512H319.832V414.704H298.232ZM299.12 420.272V423.056H309.512V420.272H299.12ZM302.768 421.856V429.992H305.648V421.856H302.768ZM298.208 429.584L299.024 432.488C302.144 431.84 306.392 430.952 310.352 430.088L310.136 427.52C305.816 428.336 301.112 429.152 298.208 429.584ZM310.016 410.72C310.04 421.832 311.552 433.184 316.76 433.184C319.04 433.184 320.024 432.056 320.456 427.472C319.64 427.184 318.584 426.488 317.936 425.816C317.792 428.84 317.528 430.16 317 430.16C314.72 430.16 312.896 420.584 313.112 410.72H310.016Z" fill="#333333"/>
<line x1="83.5" y1="449" x2="83.5" y2="549" stroke="#676767"/>
<line x1="83" y1="548.5" x2="335" y2="548.5" stroke="#676767"/>
<path d="M93.554 559.834V561.148H102.95V559.834H93.554ZM93.554 564.172V565.468H103.022V564.172H93.554ZM93.41 568.528V569.824H102.932V568.528H93.41ZM92.726 559.834V565.396C92.726 568.294 92.42 571.948 89.522 574.486C89.81 574.684 90.35 575.17 90.548 575.458C93.644 572.758 94.094 568.51 94.094 565.396V559.834H92.726ZM102.356 559.834V573.442C102.356 573.838 102.212 573.964 101.798 573.982C101.384 573.982 99.908 574 98.414 573.946C98.648 574.324 98.9 574.972 98.99 575.368C100.934 575.368 102.122 575.35 102.824 575.116C103.508 574.882 103.76 574.414 103.76 573.46V559.834H102.356Z" fill="#333333"/>
<path d="M127.618 562.534C127.33 564.55 126.7 566.512 125.26 567.61L126.43 568.402C128.032 567.178 128.644 564.982 128.95 562.822L127.618 562.534ZM138.922 562.516C138.31 564.082 137.176 566.26 136.294 567.592L137.428 568.114C138.346 566.818 139.498 564.784 140.38 563.092L138.922 562.516ZM132.91 559.15H132.19V564.982C132.19 567.07 130.93 572.038 124.864 574.342C125.17 574.63 125.62 575.17 125.8 575.476C130.912 573.37 132.55 569.356 132.91 567.592C133.27 569.338 135.034 573.478 140.254 575.476C140.452 575.08 140.866 574.522 141.154 574.216C134.908 572.02 133.63 567.052 133.63 564.982V559.15H132.91Z" fill="#333333"/>
<path d="M159.972 563.506V564.856H165.39V563.506H159.972ZM167.316 558.934V573.55C167.316 573.892 167.172 574 166.83 574.018C166.452 574.018 165.3 574.036 164.004 573.982C164.22 574.396 164.49 575.062 164.544 575.458C166.218 575.458 167.262 575.422 167.874 575.17C168.468 574.936 168.72 574.504 168.72 573.55V558.934H167.316ZM164.922 563.506V563.812C164.166 567.934 162.096 571.012 159.522 572.632C159.846 572.848 160.386 573.388 160.62 573.712C163.266 571.912 165.444 568.546 166.362 563.794L165.444 563.452L165.21 563.506H164.922ZM168.648 561.868L167.568 562.12C168.9 567.448 171.348 572.038 175.452 574.072C175.686 573.658 176.154 573.118 176.496 572.848C172.464 571.084 169.89 566.71 168.648 561.868ZM174.516 561.814C173.328 563.416 171.24 565.522 169.71 566.764L170.664 567.52C172.23 566.314 174.282 564.334 175.758 562.696L174.516 561.814Z" fill="#333333"/>
<path d="M195.188 563.326V564.658H210.812V563.326H195.188ZM202.262 558.898V575.44H203.684V558.898H202.262ZM201.956 564.01C200.426 567.358 197.456 570.778 194.486 572.38C194.81 572.668 195.26 573.172 195.512 573.532C198.536 571.678 201.452 568.15 203.126 564.406L201.956 564.01ZM203.954 564.028L202.82 564.442C204.53 568.042 207.482 571.624 210.416 573.478C210.65 573.118 211.118 572.578 211.46 572.308C208.562 570.706 205.52 567.286 203.954 564.028Z" fill="#333333"/>
<path d="M237.928 560.194C239.584 562.426 242.716 564.892 245.506 566.332C245.74 565.936 246.064 565.468 246.388 565.144C243.562 563.884 240.448 561.472 238.54 558.862H237.154C235.768 561.13 232.78 563.794 229.666 565.36C229.954 565.648 230.332 566.116 230.494 566.44C233.536 564.82 236.434 562.336 237.928 560.194ZM233.464 564.37V565.594H242.5V564.37H233.464ZM231.142 567.988V569.194H244.84V567.988H231.142ZM230.314 573.676V574.864H245.704V573.676H230.314ZM237.208 564.838V574.306H238.63V564.838H237.208ZM232.636 570.112C233.356 571.12 234.058 572.524 234.292 573.424L235.462 572.92C235.21 572.02 234.472 570.652 233.734 569.662L232.636 570.112ZM242.05 569.626C241.6 570.652 240.754 572.092 240.106 572.974L241.132 573.424C241.798 572.578 242.644 571.282 243.328 570.148L242.05 569.626Z" fill="#333333"/>
<path d="M266.088 564.676V566.008H279.93V564.676H266.088ZM264.936 573.316V574.648H281.082V573.316H264.936ZM272.244 558.952V574.162H273.666V558.952H272.244Z" fill="#333333"/>
<path d="M302.168 560.104V575.242H303.554V561.472H312.536V575.17H313.958V560.104H302.168ZM303.086 566.35V567.682H313.13V566.35H303.086ZM303.068 572.722V574.072H313.166V572.722H303.068Z" fill="#333333"/>
<rect x="88" y="524" width="20" height="24" fill="#32A2DB" fill-opacity="0.9"/>
<rect x="123" y="524" width="20" height="24" fill="#32A2DB" fill-opacity="0.9"/>
<rect x="158" y="524" width="20" height="24" fill="#32A2DB" fill-opacity="0.9"/>
<rect x="193" y="524" width="20" height="24" fill="#32A2DB" fill-opacity="0.9"/>
<rect x="228" y="524" width="20" height="24" fill="#32A2DB" fill-opacity="0.9"/>
<rect x="263" y="460" width="20" height="88" fill="#32A2DB" fill-opacity="0.9"/>
<rect x="298" y="460" width="20" height="88" fill="#32A2DB" fill-opacity="0.9"/>
<path d="M467.792 431V428.48L474.272 422.36C474.784 421.896 475.16 421.48 475.4 421.112C475.64 420.744 475.8 420.408 475.88 420.104C475.976 419.8 476.024 419.52 476.024 419.264C476.024 418.592 475.792 418.08 475.328 417.728C474.88 417.36 474.216 417.176 473.336 417.176C472.632 417.176 471.976 417.312 471.368 417.584C470.776 417.856 470.272 418.28 469.856 418.856L467.024 417.032C467.664 416.072 468.56 415.312 469.712 414.752C470.864 414.192 472.192 413.912 473.696 413.912C474.944 413.912 476.032 414.12 476.96 414.536C477.904 414.936 478.632 415.504 479.144 416.24C479.672 416.976 479.936 417.856 479.936 418.88C479.936 419.424 479.864 419.968 479.72 420.512C479.592 421.04 479.32 421.6 478.904 422.192C478.504 422.784 477.912 423.448 477.128 424.184L471.752 429.248L471.008 427.832H480.488V431H467.792ZM486.935 431.192C486.295 431.192 485.743 430.976 485.279 430.544C484.831 430.096 484.607 429.528 484.607 428.84C484.607 428.152 484.831 427.6 485.279 427.184C485.743 426.752 486.295 426.536 486.935 426.536C487.591 426.536 488.143 426.752 488.591 427.184C489.039 427.6 489.263 428.152 489.263 428.84C489.263 429.528 489.039 430.096 488.591 430.544C488.143 430.976 487.591 431.192 486.935 431.192ZM523.005 415.04L520.629 413.528C519.981 413.672 519.213 413.696 518.757 413.696C517.413 413.696 509.445 413.696 507.645 413.696C506.853 413.696 505.509 413.6 504.789 413.504V416.888C505.413 416.864 506.541 416.792 507.645 416.792C509.445 416.792 517.365 416.792 518.829 416.792C518.493 418.856 517.605 421.568 515.997 423.584C514.053 426.008 511.365 428.096 506.589 429.2L509.205 432.08C513.501 430.712 516.693 428.312 518.853 425.456C520.869 422.768 521.925 419.048 522.477 416.696C522.597 416.192 522.765 415.496 523.005 415.04ZM540.117 430.472L542.133 432.128C542.373 431.96 542.661 431.696 543.165 431.432C545.877 430.064 549.309 427.472 551.301 424.88L549.477 422.216C547.845 424.544 545.493 426.44 543.525 427.28C543.525 425.816 543.525 416.672 543.525 414.752C543.525 413.672 543.693 412.712 543.693 412.664H540.141C540.141 412.712 540.309 413.648 540.309 414.728C540.309 416.672 540.309 427.448 540.309 428.72C540.309 429.368 540.237 430.016 540.117 430.472ZM529.005 430.136L531.933 432.08C533.997 430.256 535.485 427.88 536.229 425.192C536.853 422.768 536.925 417.704 536.925 414.848C536.925 413.864 537.093 412.784 537.093 412.688H533.565C533.709 413.288 533.805 413.912 533.805 414.896C533.805 417.776 533.781 422.336 533.085 424.376C532.437 426.44 531.141 428.648 529.005 430.136ZM564.741 419.768L562.605 421.952C565.413 423.728 569.973 427.088 572.061 429.056L574.365 426.32C572.133 424.544 567.693 421.472 564.741 419.768ZM576.045 415.688L573.597 414.176C573.045 414.344 572.253 414.464 571.509 414.464H564.669L563.565 417.176H571.677C571.221 419.048 569.733 421.808 568.125 423.704C566.061 426.104 563.205 428.624 558.189 430.184L560.973 432.584C565.557 430.856 568.629 428.168 570.885 425.36C573.045 422.696 574.509 419.624 575.229 417.416C575.445 416.816 575.757 416.144 576.045 415.688ZM568.101 411.992L564.621 410.912C564.405 411.752 563.901 412.856 563.541 413.432C562.317 415.52 560.109 418.808 555.909 421.4L558.477 423.392C561.933 421.016 565.005 417.344 566.613 414.44C566.901 413.936 567.525 412.832 568.101 411.992ZM582.357 421.688L583.845 424.712C587.637 423.584 591.525 421.784 594.237 420.176C597.069 418.472 599.997 416.216 602.181 414.008L599.589 411.56C598.029 413.456 595.293 415.856 592.845 417.368C590.157 419.024 586.653 420.584 582.357 421.688ZM592.341 418.928V428.936C592.341 429.992 592.245 431.504 592.149 432.08H595.965C595.797 431.48 595.749 429.992 595.749 428.936V418.112L592.341 418.928ZM620.096 412.904L616.28 412.136C616.184 412.928 616.064 413.696 615.728 414.896C614.936 417.68 612.44 425.552 611.144 428.624L614.672 428.504C615.704 426.008 618.2 418.28 619.088 415.592C619.448 414.512 619.784 413.624 620.096 412.904ZM624.392 420.656L621.416 421.904C623.12 424.208 625.352 429.176 626.432 432.08L629.672 430.64C628.568 427.976 626.12 423.248 624.392 420.656ZM610.904 427.544C610.136 427.568 609.08 427.592 608.264 427.568L608.84 431.096C609.584 431 610.496 430.88 611.096 430.808C614.336 430.472 622.592 429.608 626.144 429.152L625.448 426.08C622.088 426.536 614.24 427.424 610.904 427.544ZM634.304 414.464V417.224H656.072V414.464H634.304ZM642.32 420.344V423.08H651.512V420.344H642.32ZM650.456 420.344L650.432 420.8C650.096 426.728 649.64 429.464 648.92 430.088C648.608 430.352 648.272 430.376 647.744 430.376C647.048 430.376 645.344 430.376 643.688 430.232C644.24 431.024 644.672 432.224 644.72 433.064C646.328 433.112 647.936 433.136 648.848 433.064C649.952 432.944 650.72 432.704 651.44 431.936C652.4 430.88 652.904 428.168 653.336 421.592C653.408 421.208 653.432 420.344 653.432 420.344H650.456ZM641.24 416.096C641 421.568 640.856 427.664 633.872 430.904C634.64 431.504 635.504 432.56 635.936 433.328C643.472 429.536 644.12 422.528 644.48 416.096H641.24ZM643.568 410.504V415.544H646.544V410.504H643.568ZM676.712 412.208C677.816 413 679.16 414.2 679.784 415.016L681.8 413.288C681.128 412.496 679.712 411.368 678.632 410.624L676.712 412.208ZM660.824 414.704V417.512H682.424V414.704H660.824ZM661.712 420.272V423.056H672.104V420.272H661.712ZM665.36 421.856V429.992H668.24V421.856H665.36ZM660.8 429.584L661.616 432.488C664.736 431.84 668.984 430.952 672.944 430.088L672.728 427.52C668.408 428.336 663.704 429.152 660.8 429.584ZM672.608 410.72C672.632 421.832 674.144 433.184 679.352 433.184C681.632 433.184 682.616 432.056 683.048 427.472C682.232 427.184 681.176 426.488 680.528 425.816C680.384 428.84 680.12 430.16 679.592 430.16C677.312 430.16 675.488 420.584 675.704 410.72H672.608Z" fill="#333333"/>
<line x1="467.5" y1="449" x2="467.5" y2="549" stroke="#676767"/>
<line x1="467" y1="548.5" x2="719" y2="548.5" stroke="#676767"/>
<path d="M477.554 559.834V561.148H486.95V559.834H477.554ZM477.554 564.172V565.468H487.022V564.172H477.554ZM477.41 568.528V569.824H486.932V568.528H477.41ZM476.726 559.834V565.396C476.726 568.294 476.42 571.948 473.522 574.486C473.81 574.684 474.35 575.17 474.548 575.458C477.644 572.758 478.094 568.51 478.094 565.396V559.834H476.726ZM486.356 559.834V573.442C486.356 573.838 486.212 573.964 485.798 573.982C485.384 573.982 483.908 574 482.414 573.946C482.648 574.324 482.9 574.972 482.99 575.368C484.934 575.368 486.122 575.35 486.824 575.116C487.508 574.882 487.76 574.414 487.76 573.46V559.834H486.356Z" fill="#333333"/>
<path d="M511.618 562.534C511.33 564.55 510.7 566.512 509.26 567.61L510.43 568.402C512.032 567.178 512.644 564.982 512.95 562.822L511.618 562.534ZM522.922 562.516C522.31 564.082 521.176 566.26 520.294 567.592L521.428 568.114C522.346 566.818 523.498 564.784 524.38 563.092L522.922 562.516ZM516.91 559.15H516.19V564.982C516.19 567.07 514.93 572.038 508.864 574.342C509.17 574.63 509.62 575.17 509.8 575.476C514.912 573.37 516.55 569.356 516.91 567.592C517.27 569.338 519.034 573.478 524.254 575.476C524.452 575.08 524.866 574.522 525.154 574.216C518.908 572.02 517.63 567.052 517.63 564.982V559.15H516.91Z" fill="#333333"/>
<path d="M543.972 563.506V564.856H549.39V563.506H543.972ZM551.316 558.934V573.55C551.316 573.892 551.172 574 550.83 574.018C550.452 574.018 549.3 574.036 548.004 573.982C548.22 574.396 548.49 575.062 548.544 575.458C550.218 575.458 551.262 575.422 551.874 575.17C552.468 574.936 552.72 574.504 552.72 573.55V558.934H551.316ZM548.922 563.506V563.812C548.166 567.934 546.096 571.012 543.522 572.632C543.846 572.848 544.386 573.388 544.62 573.712C547.266 571.912 549.444 568.546 550.362 563.794L549.444 563.452L549.21 563.506H548.922ZM552.648 561.868L551.568 562.12C552.9 567.448 555.348 572.038 559.452 574.072C559.686 573.658 560.154 573.118 560.496 572.848C556.464 571.084 553.89 566.71 552.648 561.868ZM558.516 561.814C557.328 563.416 555.24 565.522 553.71 566.764L554.664 567.52C556.23 566.314 558.282 564.334 559.758 562.696L558.516 561.814Z" fill="#333333"/>
<path d="M579.188 563.326V564.658H594.812V563.326H579.188ZM586.262 558.898V575.44H587.684V558.898H586.262ZM585.956 564.01C584.426 567.358 581.456 570.778 578.486 572.38C578.81 572.668 579.26 573.172 579.512 573.532C582.536 571.678 585.452 568.15 587.126 564.406L585.956 564.01ZM587.954 564.028L586.82 564.442C588.53 568.042 591.482 571.624 594.416 573.478C594.65 573.118 595.118 572.578 595.46 572.308C592.562 570.706 589.52 567.286 587.954 564.028Z" fill="#333333"/>
<path d="M621.928 560.194C623.584 562.426 626.716 564.892 629.506 566.332C629.74 565.936 630.064 565.468 630.388 565.144C627.562 563.884 624.448 561.472 622.54 558.862H621.154C619.768 561.13 616.78 563.794 613.666 565.36C613.954 565.648 614.332 566.116 614.494 566.44C617.536 564.82 620.434 562.336 621.928 560.194ZM617.464 564.37V565.594H626.5V564.37H617.464ZM615.142 567.988V569.194H628.84V567.988H615.142ZM614.314 573.676V574.864H629.704V573.676H614.314ZM621.208 564.838V574.306H622.63V564.838H621.208ZM616.636 570.112C617.356 571.12 618.058 572.524 618.292 573.424L619.462 572.92C619.21 572.02 618.472 570.652 617.734 569.662L616.636 570.112ZM626.05 569.626C625.6 570.652 624.754 572.092 624.106 572.974L625.132 573.424C625.798 572.578 626.644 571.282 627.328 570.148L626.05 569.626Z" fill="#333333"/>
<path d="M650.088 564.676V566.008H663.93V564.676H650.088ZM648.936 573.316V574.648H665.082V573.316H648.936ZM656.244 558.952V574.162H657.666V558.952H656.244Z" fill="#333333"/>
<path d="M686.168 560.104V575.242H687.554V561.472H696.536V575.17H697.958V560.104H686.168ZM687.086 566.35V567.682H697.13V566.35H687.086ZM687.068 572.722V574.072H697.166V572.722H687.068Z" fill="#333333"/>
<rect x="472" y="492" width="20" height="56" fill="#32A2DB" fill-opacity="0.9"/>
<rect x="507" y="492" width="20" height="56" fill="#32A2DB" fill-opacity="0.9"/>
<rect x="542" y="492" width="20" height="56" fill="#32A2DB" fill-opacity="0.9"/>
<rect x="577" y="492" width="20" height="56" fill="#32A2DB" fill-opacity="0.9"/>
<rect x="612" y="492" width="20" height="56" fill="#32A2DB" fill-opacity="0.9"/>
<rect x="647" y="492" width="20" height="56" fill="#32A2DB" fill-opacity="0.9"/>
<rect x="682" y="492" width="20" height="56" fill="#32A2DB" fill-opacity="0.9"/>
<path d="M334.739 245.268L327.026 263.48L331 294H350.5L353.766 275.801L355 294H371L376.208 250.378L334.739 245.268Z" fill="#2F2E41"/>
<path d="M365.129 172.686L349.652 169.74L346.526 172.996L330.625 179.918L333.196 231.877C333.196 231.877 328.054 235.445 330.625 240.356C333.196 245.268 332.682 251.16 332.682 251.16H376.207L374.335 221.699L379.477 184.203L367.461 178.277L365.129 172.686H365.129L365.129 172.686Z" fill="#CCCCCC"/>
<path d="M353.911 233.22C358.308 234.314 362.414 232.837 363.082 229.922C363.749 227.007 360.726 223.758 356.327 222.665C354.576 222.203 352.743 222.185 350.984 222.612L332.297 218.224L330.507 227.403L349.119 230.754C350.504 231.963 352.147 232.809 353.911 233.22L353.911 233.22H353.911Z" fill="#FFB6B6"/>
<path d="M333.71 182.596L330.625 179.918C330.625 179.918 324.454 183.132 323.426 185.81C322.397 188.488 316.227 214.2 316.227 214.2C316.227 214.2 315.016 228.291 318.192 230.084C321.369 231.877 341.424 230.806 341.424 230.806L342.967 220.092L334.739 216.878L333.71 182.596V182.596Z" fill="#CCCCCC"/>
<path d="M358.362 168.22C365.869 168.22 371.955 161.881 371.955 154.061C371.955 146.241 365.869 139.902 358.362 139.902C350.855 139.902 344.769 146.241 344.769 154.061C344.769 161.881 350.855 168.22 358.362 168.22Z" fill="#FED3D3"/>
<path d="M348.613 166.63C346.985 166.782 344.327 162.443 344.445 158.24C344.521 155.537 342.268 155.005 342.101 151.519C342.003 149.487 344.999 148.854 345.205 147.224C345.577 144.272 347.406 142.285 347.634 142.044C349.605 139.959 350.996 140.637 353.313 138.221C354.708 136.766 354.351 136.368 355.29 135.722C358.002 133.86 362.875 135.878 365.789 138.597C366.797 139.538 370.556 138.51 372.198 141.166C374.132 144.296 373.683 150.679 372.854 151.521C372.35 152.033 371.199 150.783 368.079 149.98C365.191 149.237 367.916 152.912 364.577 152.295C360.629 151.566 359.856 150.315 358.378 151.065C356.815 151.858 355.593 154.315 355.948 156.246C356.124 157.204 356.634 157.738 356.346 158.225C355.821 159.115 355.219 158.243 354.545 159.135C353.762 160.174 355.708 162.837 355.342 163.095C355.268 163.147 355.044 163.14 352.943 161.035C352.104 160.195 351.859 159.678 351.694 159.758C351.429 159.886 349.687 161.576 350.352 162.911C351.387 164.987 350.063 165.052 350.352 166.45C350.651 167.893 349.648 166.534 348.613 166.63Z" fill="#2F2E41"/>
<path d="M345.795 209.647L343.738 211.254L354.537 226.788L356.594 226.252L345.795 209.647Z" fill="#3F3D56"/>
<path d="M373.564 223.867V250.979C373.564 253.377 371.691 255.327 369.389 255.327H343.362C341.06 255.327 339.188 253.377 339.188 250.979V223.867C339.188 221.469 341.06 219.519 343.362 219.519H369.389C371.691 219.519 373.564 221.469 373.564 223.867Z" fill="white"/>
<path d="M359.84 230.592H351.438C351.226 230.592 351.053 230.412 351.053 230.192C351.053 229.971 351.226 229.792 351.438 229.792H359.84C360.052 229.792 360.224 229.971 360.224 230.192C360.224 230.412 360.052 230.592 359.84 230.592Z" fill="#3F3D56"/>
<path d="M359.84 239.126H351.438C351.226 239.126 351.053 238.946 351.053 238.725C351.053 238.505 351.226 238.325 351.438 238.325H359.84C360.052 238.325 360.224 238.505 360.224 238.725C360.224 238.946 360.052 239.126 359.84 239.126Z" fill="#3F3D56"/>
<path d="M355.666 250.891H347.263C347.052 250.891 346.879 250.712 346.879 250.491C346.879 250.27 347.052 250.091 347.263 250.091H355.666C355.878 250.091 356.05 250.27 356.05 250.491C356.05 250.712 355.878 250.891 355.666 250.891Z" fill="#3F3D56"/>
<path d="M364.349 234.862H346.929C346.717 234.862 346.544 234.682 346.544 234.461C346.544 234.241 346.717 234.061 346.929 234.061H364.349C364.561 234.061 364.733 234.241 364.733 234.461C364.733 234.682 364.561 234.862 364.349 234.862Z" fill="#3F3D56"/>
<path d="M363.063 235.425C359.055 237.603 356.886 241.524 358.217 244.18C359.549 246.837 363.877 247.223 367.886 245.043C369.498 244.195 370.893 242.957 371.952 241.433L388.821 231.977L384.392 223.826L368.233 234.013C366.426 234.046 364.653 234.531 363.063 235.425V235.425Z" fill="#FED3D3"/>
<path d="M376.392 184.739C376.392 184.739 381.02 181.525 384.105 190.095C386.54 196.857 391.054 216.787 392.851 224.9C393.329 227.053 392.638 229.303 391.052 230.771L388.991 232.68L378.963 240.447L372.126 230.084L380.43 224.869L370.96 203.47L376.392 184.739L376.392 184.739V184.739Z" fill="#CCCCCC"/>
<path d="M341.08 227.296L342.226 223.953L363.54 227.773L381.646 218.224L382.562 220.85L362.853 233.025L341.08 227.296Z" fill="#E6E6E6"/>
<path d="M383.479 219.179L363.082 229.922L339.768 226.412L341.997 236.606L361.707 240.187L380.34 230.887L383.479 219.179Z" fill="#3F3D56"/>
<path d="M347.893 354.353V356.516H357.574V354.353H347.893ZM344.134 359.057V361.388H362.929V359.057H344.134ZM352.219 357.713V364.118C352.219 364.412 352.093 364.517 351.673 364.517C351.253 364.517 349.678 364.517 348.334 364.475C348.733 365.126 349.195 366.197 349.363 366.911C351.148 366.911 352.492 366.869 353.479 366.533C354.487 366.155 354.802 365.504 354.802 364.202V357.713H352.219ZM356.755 354.353V354.815C355.978 355.844 354.193 357.335 352.576 358.175C352.954 358.511 353.626 359.204 353.92 359.624C355.978 358.637 358.057 356.999 359.506 355.445L357.91 354.227L357.385 354.353H356.755ZM344.386 350.51V355.655H346.759V352.736H360.199V355.655H362.698V350.51H344.386ZM358.939 347.318C358.435 348.494 357.49 350.069 356.692 351.098L358.75 351.854C359.611 350.93 360.703 349.502 361.669 348.116L358.939 347.318ZM345.793 348.347C346.507 349.229 347.284 350.426 347.578 351.203L349.867 350.153C349.531 349.334 348.691 348.2 347.935 347.381L345.793 348.347ZM351.085 347.885C351.715 348.851 352.366 350.174 352.576 351.014L354.97 350.09C354.697 349.25 353.983 347.969 353.311 347.045L351.085 347.885ZM368.83 358.049V366.932H371.329V359.96H380.338V366.932H382.963V358.049H368.83ZM370.09 361.157V363.047H381.01V361.157H370.09ZM370.216 364.286V366.176H381.115V364.286H370.216ZM374.416 356.138C374.227 356.936 373.807 358.049 373.429 358.868L375.487 359.309C375.97 358.637 376.579 357.587 377.125 356.516L374.416 356.138ZM366.541 348.116V350.048H373.324V348.116H366.541ZM372.757 348.116V355.067C372.757 355.277 372.673 355.361 372.421 355.361C372.19 355.361 371.392 355.361 370.657 355.34C370.909 355.844 371.203 356.579 371.287 357.125C372.568 357.125 373.492 357.125 374.164 356.831C374.815 356.537 375.025 356.054 375.025 355.067V348.116H372.757ZM376.138 348.116V350.048H383.383V348.116H376.138ZM382.207 348.116V354.983C382.207 355.235 382.123 355.277 381.85 355.298C381.598 355.319 380.653 355.319 379.876 355.277C380.149 355.802 380.422 356.6 380.527 357.167C381.913 357.188 382.921 357.167 383.635 356.873C384.349 356.537 384.559 356.033 384.559 355.004V348.116H382.207ZM375.529 354.29L376.369 356.159C377.944 355.613 379.897 354.878 381.703 354.185L381.325 352.379C379.204 353.135 377.02 353.849 375.529 354.29ZM376.516 351.287C377.461 351.812 378.7 352.61 379.267 353.198L380.527 351.56C379.918 350.993 378.658 350.258 377.713 349.817L376.516 351.287ZM365.974 354.647L366.877 356.705C368.347 356.117 370.132 355.361 371.833 354.626L371.476 352.82C369.439 353.534 367.381 354.248 365.974 354.647ZM367.087 351.308C368.032 351.833 369.208 352.652 369.754 353.219L371.014 351.623C370.447 351.056 369.229 350.321 368.305 349.859L367.087 351.308ZM396.508 349.397V351.581H407.239V349.397H396.508ZM395.794 353.429V355.655H407.869V353.429H395.794ZM395.836 357.44V359.645H407.722V357.44H395.836ZM400.561 347.15V354.857H403.039V347.15H400.561ZM403.228 355.529V364.181C403.228 364.475 403.123 364.538 402.787 364.538C402.472 364.559 401.317 364.559 400.288 364.517C400.624 365.168 401.002 366.176 401.086 366.869C402.661 366.869 403.795 366.827 404.635 366.449C405.454 366.092 405.685 365.441 405.685 364.223V355.529H403.228ZM396.676 361.052C397.642 362.123 398.692 363.614 399.091 364.601L401.254 363.341C400.792 362.312 399.679 360.926 398.692 359.897L396.676 361.052ZM390.019 348.452V350.699H393.085V360.569H390.019V362.816H395.437V348.452H390.019ZM390.145 354.416V356.621H394.219V354.416H390.145ZM388.843 348.452V364.685H391.174V348.452H388.843ZM417.382 359.981V361.787H423.136V359.981H417.382ZM417.235 356.873V358.721H421.96V363.089H417.235V364.937H424.312V356.873H417.235ZM416.206 356.873V366.008H418.474V356.873H416.206ZM412.678 350.888V352.589H417.949V350.888H412.678ZM422.422 350.888V352.589H427.735V350.888H422.422ZM426.706 347.969V363.887C426.706 364.244 426.58 364.37 426.202 364.37C425.824 364.37 424.543 364.391 423.451 364.328C423.787 365 424.165 366.176 424.27 366.89C426.076 366.89 427.294 366.848 428.134 366.428C428.974 366.008 429.247 365.273 429.247 363.908V347.969H426.706ZM412.888 347.969V349.796H417.172V353.786H412.888V355.592H419.524V347.969H412.888ZM428.05 347.969H420.952V355.655H428.05V353.849H423.346V349.796H428.05V347.969ZM411.439 347.969V366.89H413.938V347.969H411.439ZM438.571 348.095V350.3H446.047V348.095H438.571ZM440.692 352.568L439.999 354.752H444.262V352.568H440.692ZM439.39 358.343C440.23 358.994 441.259 359.918 441.721 360.548L442.834 358.427C442.351 357.86 441.301 357.02 440.461 356.453L439.39 358.343ZM445.9 349.607V361.913H448.126V349.607H445.9ZM449.428 347.57V364.034C449.428 364.37 449.302 364.475 448.966 364.496C448.588 364.496 447.517 364.496 446.362 364.454C446.698 365.147 447.034 366.239 447.139 366.911C448.798 366.911 449.974 366.827 450.751 366.428C451.507 366.029 451.759 365.378 451.759 364.034V347.57H449.428ZM440.125 348.872C439.789 352.085 438.949 356.243 436.996 358.595C437.458 359.015 438.151 359.855 438.487 360.359C440.818 357.629 441.91 353.051 442.519 349.208L440.125 348.872ZM443.317 352.568V353.051C442.729 358.826 440.86 362.9 437.836 364.958C438.319 365.336 439.075 366.323 439.411 366.89C442.645 364.538 444.85 359.771 445.606 352.925L444.157 352.484L443.758 352.568H443.317ZM436.429 347.192C435.526 350.258 433.972 353.324 432.271 355.319C432.67 355.97 433.279 357.419 433.489 358.028C435.631 355.529 437.563 351.56 438.76 347.885L436.429 347.192ZM434.77 352.967V366.869H437.08V350.762L437.017 350.72L434.77 352.967Z" fill="#333333"/>
<path d="M319 369C326.18 369 332 363.18 332 356C332 348.82 326.18 343 319 343C311.82 343 306 348.82 306 356C306 363.18 311.82 369 319 369Z" stroke="#333333" stroke-width="2" stroke-linecap="round" stroke-linejoin="round"/>
<path d="M319 349.5V357.625L323.333 360.333" stroke="#333333" stroke-width="2" stroke-linecap="round" stroke-linejoin="round"/>
<rect x="533" y="224" width="170" height="43" rx="21.5" fill="#264B8D" fill-opacity="0.05" stroke="#264B8D" stroke-width="2"/>
<path d="M554.998 241.051V243.046H566.044V241.051H554.998ZM559.261 239.014V245.923H561.655V239.014H559.261ZM558.169 246.616H562.81V248.464H558.169V246.616ZM555.964 244.747V250.333H565.141V244.747H555.964ZM551.554 236.074V254.953H554.074V238.405H566.842V254.953H569.488V236.074H551.554ZM553.024 251.698V254.029H567.85V251.698H553.024ZM577.783 241.513V243.907H589.396V241.513H577.783ZM583.579 246.553V248.905H590.677V246.553H583.579ZM582.256 242.899V252.727L584.902 253.042V242.899H582.256ZM577.237 245.083C576.88 248.695 575.83 251.614 573.562 253.294C574.15 253.672 575.221 254.575 575.641 255.016C578.035 252.958 579.337 249.619 579.883 245.356L577.237 245.083ZM579.274 247.708L577.216 248.401C579.022 253.693 582.298 254.68 587.149 254.68H592.441C592.546 253.924 592.966 252.706 593.323 252.118C591.916 252.16 588.409 252.16 587.296 252.16C583.558 252.16 580.618 251.572 579.274 247.708ZM582.214 235.192V239.035H584.902V235.192H582.214ZM574.57 237.313V242.584H577.048V239.707H590.026V242.584H592.63V237.313H574.57ZM614.281 235.276C611.719 235.906 607.435 236.347 603.739 236.536C603.991 237.04 604.264 237.88 604.327 238.426C608.086 238.258 612.601 237.859 615.772 237.124L614.281 235.276ZM604.411 239.098C604.873 239.938 605.356 241.114 605.524 241.828L607.54 241.114C607.33 240.4 606.784 239.287 606.301 238.468L604.411 239.098ZM608.443 238.636C608.737 239.539 609.094 240.736 609.199 241.471L611.278 240.925C611.131 240.211 610.753 239.056 610.396 238.195L608.443 238.636ZM613.504 237.922C613.126 239.14 612.349 240.841 611.719 241.912L613.567 242.542C614.26 241.555 615.079 240.001 615.835 238.594L613.504 237.922ZM603.529 241.681V245.104H605.755V243.739H613.987V245.125H616.297V241.681H603.529ZM604.621 245.545V247.582H613.567V245.545H604.621ZM612.79 245.545V245.839C611.53 249.808 607.666 251.908 602.689 252.643C603.109 253.168 603.613 254.218 603.802 254.848C609.22 253.756 613.462 251.299 615.121 246.028L613.651 245.44L613.252 245.545H612.79ZM607.267 247.309L605.125 247.918C606.994 251.698 610.123 253.945 614.932 254.89C615.247 254.218 615.898 253.231 616.423 252.727C611.95 252.055 608.758 250.228 607.267 247.309ZM596.62 245.776L597.187 248.191C599.035 247.666 601.345 246.994 603.508 246.343L603.172 244.075C600.799 244.726 598.3 245.398 596.62 245.776ZM596.893 239.161V241.471H603.319V239.161H596.893ZM599.14 235.192V252.223C599.14 252.517 599.056 252.58 598.804 252.58C598.552 252.601 597.817 252.601 597.061 252.559C597.355 253.252 597.649 254.281 597.691 254.911C599.077 254.911 599.98 254.827 600.61 254.428C601.261 254.05 601.471 253.399 601.471 252.223V235.192H599.14ZM620.476 248.023V250.081H639.208V248.023H620.476ZM620.518 238.594V240.673H639.124V238.594H620.518ZM621.379 242.353V244.327H638.326V242.353H621.379ZM622.429 245.251V247.078H637.339V245.251H622.429ZM628.519 243.361V254.89H631.018V243.361H628.519ZM626.692 235.15V239.581H629.044V235.15H626.692ZM630.577 235.15V239.434H632.971V235.15H630.577ZM628.057 248.947C626.335 250.543 622.996 251.929 619.825 252.538C620.371 253.063 621.106 254.029 621.442 254.638C624.676 253.798 628.036 252.013 630.031 249.829L628.057 248.947ZM631.522 248.884L629.569 249.661C631.543 252.034 634.756 253.819 638.074 254.659C638.452 253.966 639.208 252.916 639.775 252.391C636.499 251.845 633.223 250.543 631.522 248.884ZM635.407 235.318C635.113 236.242 634.567 237.523 634.084 238.384L636.121 239.014C636.667 238.237 637.381 237.103 638.053 235.948L635.407 235.318ZM632.635 239.833C632.425 240.61 631.984 241.681 631.606 242.437L633.748 243.046C634.189 242.374 634.735 241.45 635.302 240.442L632.635 239.833ZM622.03 235.99C622.597 236.956 623.269 238.237 623.5 239.056L625.789 238.237C625.495 237.418 624.802 236.158 624.193 235.255L622.03 235.99ZM624.697 240.694C625.012 241.303 625.369 242.185 625.495 242.731L628.057 242.29C627.889 241.723 627.49 240.904 627.133 240.316L624.697 240.694ZM644.122 239.245L644.311 241.702C645.214 241.744 646.096 241.765 646.936 241.765C649.624 241.786 652.648 241.24 654.454 240.736L654.391 238.3C652.354 238.951 649.519 239.392 646.915 239.392C646.159 239.392 645.025 239.35 644.122 239.245ZM652.291 236.095L649.393 235.822C649.33 237.439 648.868 239.392 648.364 240.904C647.545 243.172 645.655 246.847 643.765 249.157L646.306 250.459C648.091 247.981 649.981 244.075 650.947 241.051C651.514 239.266 652.018 237.208 652.291 236.095ZM657.226 242.647H654.58C654.685 244.852 654.916 248.716 654.916 249.976C654.916 251.152 654.454 251.95 653.026 251.95C651.871 251.95 651.199 251.404 651.199 250.627C651.199 249.892 651.997 249.367 653.215 249.367C656.386 249.367 658.78 251.53 660.292 252.937L661.678 250.669C659.935 249.094 657.037 247.246 653.362 247.246C650.443 247.246 648.721 248.842 648.721 250.879C648.721 253.189 650.779 254.365 653.383 254.365C656.386 254.365 657.436 252.832 657.436 250.879C657.436 249.703 657.247 246.574 657.205 245.335C657.184 244.411 657.163 243.529 657.226 242.647ZM660.838 243.76L662.329 241.534C661.237 240.757 658.654 239.35 657.142 238.699L655.777 240.757C657.226 241.408 659.62 242.773 660.838 243.76ZM673.291 236.347L669.91 236.326C670.078 237.145 670.162 238.153 670.162 239.161C670.162 240.967 669.973 246.469 669.973 249.283C669.973 252.874 672.178 254.386 675.622 254.386C680.41 254.386 683.392 251.593 684.757 249.577L682.846 247.246C681.313 249.535 679.129 251.53 675.664 251.53C674.026 251.53 672.766 250.837 672.766 248.716C672.766 246.112 672.913 241.429 673.018 239.161C673.06 238.321 673.165 237.229 673.291 236.347Z" fill="#264B8D"/>
<path d="M400.5 397L355 372.206H446L400.5 397Z" fill="#264B8D" fill-opacity="0.3"/>
<rect x="368.943" y="336" width="63.0466" height="36.2065" fill="#264B8D" fill-opacity="0.3"/>
</svg>
