<svg width="208" height="98" viewBox="0 0 208 98" fill="none" xmlns="http://www.w3.org/2000/svg">
<circle cx="42.5" cy="42.5" r="42" stroke="#264B8D"/>
<path d="M41.7824 52.288C40.6144 52.288 39.4544 52.136 38.3024 51.832C37.1504 51.512 36.1744 51.064 35.3744 50.488L36.8864 47.512C37.5264 47.976 38.2704 48.344 39.1184 48.616C39.9664 48.888 40.8224 49.024 41.6864 49.024C42.6624 49.024 43.4304 48.832 43.9904 48.448C44.5504 48.064 44.8304 47.536 44.8304 46.864C44.8304 46.224 44.5824 45.72 44.0864 45.352C43.5904 44.984 42.7904 44.8 41.6864 44.8H39.9104V42.232L44.5904 36.928L45.0224 38.32H36.2144V35.2H47.9744V37.72L43.3184 43.024L41.3504 41.896H42.4784C44.5424 41.896 46.1024 42.36 47.1584 43.288C48.2144 44.216 48.7424 45.408 48.7424 46.864C48.7424 47.808 48.4944 48.696 47.9984 49.528C47.5024 50.344 46.7424 51.008 45.7184 51.52C44.6944 52.032 43.3824 52.288 41.7824 52.288Z" fill="#264B8D"/>
<rect x="50" y="47" width="158" height="51" rx="20" fill="#F9F9F9"/>
<path d="M72.804 71.768V74.312H85.908V71.768H72.804ZM81.3 73.28L79.26 74.024C80.508 76.712 82.644 79.544 84.684 81.152C85.116 80.456 86.028 79.472 86.652 78.968C84.636 77.744 82.452 75.416 81.3 73.28ZM76.044 66.536H82.668V68.096H76.044V66.536ZM76.044 62.816H82.668V64.328H76.044V62.816ZM73.5 60.536V70.352H85.332V60.536H73.5ZM77.436 73.088C76.308 75.44 74.076 77.816 71.796 79.04C72.396 79.544 73.284 80.576 73.716 81.248C76.116 79.688 78.324 76.808 79.596 73.832L77.436 73.088ZM78.084 61.664V69.272H77.94V82.136H80.724V69.272H80.556V61.664H78.084ZM64.86 66.992V69.152H71.892V66.992H64.86ZM64.932 60.368V62.552H71.82V60.368H64.932ZM64.86 70.256V72.44H71.892V70.256H64.86ZM63.756 63.608V65.888H72.516V63.608H63.756ZM66.108 73.592V75.872H69.516V78.608H66.108V80.888H71.916V73.592H66.108ZM64.812 73.592V81.848H67.164V73.592H64.812ZM92.46 65.432H95.868V66.584H92.46V65.432ZM92.46 62.48H95.868V63.608H92.46V62.48ZM89.916 60.56V68.528H98.532V60.56H89.916ZM88.788 69.896V72.008H99.612V69.896H88.788ZM99.516 60.632V62.648H110.58V60.632H99.516ZM93.276 70.568V78.824L95.676 80.216V70.568H93.276ZM94.524 73.952V76.016H99.18V73.952H94.524ZM104.148 61.112C103.908 62.24 103.452 63.8 103.02 64.88L105.06 65.408C105.564 64.472 106.188 63.032 106.764 61.688L104.148 61.112ZM102.828 68.84H107.196V69.968H102.828V68.84ZM102.828 71.792H107.196V72.944H102.828V71.792ZM102.828 65.864H107.196V66.992H102.828V65.864ZM100.26 63.92V74.912H109.86V63.92H100.26ZM102.204 75.08C101.388 76.064 99.948 77.048 98.508 77.672C99.036 78.056 99.948 78.896 100.356 79.352C101.844 78.536 103.548 77.168 104.58 75.8L102.204 75.08ZM89.892 72.944C89.82 75.848 89.58 78.68 88.212 80.36C88.788 80.792 89.556 81.704 89.892 82.304C91.716 80.144 92.076 76.616 92.196 72.944H89.892ZM91.812 74.96L90.108 75.464C91.812 80.888 95.1 81.704 101.052 81.704H110.316C110.46 80.984 110.868 79.88 111.252 79.328C109.284 79.424 102.66 79.424 101.052 79.424C96.156 79.4 93.156 78.992 91.812 74.96ZM105.612 75.944C106.812 76.832 108.3 78.224 109.044 79.184L111.108 77.96C110.364 77.048 108.876 75.752 107.58 74.912L105.612 75.944ZM126.684 63.56L123.396 63.464C123.156 65.984 122.628 68.744 121.932 71C120.924 74.24 120.012 75.776 118.98 75.776C118.068 75.776 117.108 74.6 117.108 72.176C117.108 69.152 119.892 65 124.98 65C129.132 65 131.484 67.688 131.484 71.456C131.484 74.984 129.084 77.168 126.036 77.912C125.388 78.056 124.716 78.176 123.78 78.296L125.604 81.128C131.652 80.192 134.748 76.616 134.748 71.576C134.748 66.32 130.98 62.192 125.052 62.192C118.836 62.192 114.012 66.944 114.012 72.464C114.012 76.52 116.22 79.472 118.908 79.472C121.524 79.472 123.588 76.496 125.028 71.648C125.868 68.816 126.348 66.008 126.684 63.56ZM146.532 73.112C146.028 75.032 145.092 77 143.7 78.2L145.788 79.88C147.396 78.368 148.284 76.04 148.836 73.904L146.532 73.112ZM152.244 74.384C152.988 75.968 153.66 78.08 153.852 79.472L156.108 78.584C155.868 77.216 155.172 75.152 154.356 73.592L152.244 74.384ZM155.244 73.904C156.588 75.728 157.908 78.272 158.364 79.952L160.788 78.68C160.236 77 158.892 74.576 157.476 72.776L155.244 73.904ZM155.22 66.56L152.748 67.352C154.068 70.016 156.276 72.368 158.94 73.568C159.348 72.848 160.212 71.792 160.836 71.264C158.412 70.376 156.3 68.576 155.22 66.56ZM150.156 62.744C149.268 67.088 146.964 69.992 143.076 71.6C143.652 72.104 144.612 73.28 144.972 73.88C149.172 71.816 151.788 68.384 153.06 63.176L150.156 62.744ZM157.116 59.768C154.164 60.608 149.124 61.064 144.684 61.184C144.996 61.856 145.356 62.96 145.428 63.656C150.036 63.584 155.412 63.152 159.252 62.024L157.116 59.768ZM144.012 65.312V67.928H160.116V65.312H144.012ZM149.508 70.736V79.256C149.508 79.496 149.412 79.568 149.124 79.592C148.836 79.592 147.9 79.592 146.988 79.568C147.324 80.312 147.636 81.368 147.708 82.112C149.244 82.112 150.348 82.088 151.14 81.68C151.956 81.272 152.148 80.528 152.148 79.304V70.736H149.508ZM138.996 61.856C140.388 62.528 142.092 63.608 142.884 64.4L144.612 62.096C143.724 61.304 141.972 60.344 140.628 59.768L138.996 61.856ZM137.868 68.36C139.26 68.96 140.988 69.992 141.78 70.76L143.46 68.456C142.596 67.688 140.844 66.776 139.452 66.248L137.868 68.36ZM138.348 80.312L140.964 81.896C142.044 79.568 143.148 76.832 144.06 74.288L141.732 72.704C140.7 75.488 139.332 78.464 138.348 80.312ZM176.052 62.528V76.016H178.836V62.528H176.052ZM181.356 60.08V78.632C181.356 79.088 181.164 79.232 180.708 79.232C180.204 79.232 178.668 79.232 177.06 79.184C177.492 80 177.948 81.32 178.092 82.16C180.3 82.16 181.884 82.064 182.892 81.608C183.852 81.128 184.212 80.336 184.212 78.632V60.08H181.356ZM164.724 74.336V76.76H173.772V74.336H164.724ZM164.724 70.376V72.8H173.772V70.376H164.724ZM167.46 59.6V68.072H170.316V59.6H167.46ZM171.396 66.2V78.776C171.396 79.088 171.3 79.16 170.988 79.184C170.652 79.184 169.596 79.208 168.66 79.16C168.996 79.88 169.332 81.056 169.428 81.824C171.132 81.824 172.26 81.8 173.1 81.344C173.964 80.912 174.18 80.144 174.18 78.824V66.2H171.396ZM162.804 61.352C163.428 62.792 164.076 64.76 164.292 66.008L166.788 65.072C166.524 63.824 165.852 61.952 165.18 60.536L162.804 61.352ZM172.5 60.344C172.188 61.856 171.54 63.92 170.988 65.24L173.388 65.864C173.988 64.616 174.708 62.744 175.356 60.968L172.5 60.344ZM163.74 66.2V81.896H166.476V68.888H172.86V66.2H163.74Z" fill="#264B8D"/>
</svg>
