<svg width="212" height="192" viewBox="0 0 212 192" fill="none" xmlns="http://www.w3.org/2000/svg">
<g clip-path="url(#clip0_72_89)">
<path d="M141.482 67.5124H70.5823C69.3652 67.511 68.1984 67.0267 67.3378 66.1657C66.4772 65.3047 65.9931 64.1373 65.9917 62.9197V7.20753C65.9927 6.31547 66.3473 5.46023 66.9778 4.82943C67.6083 4.19864 68.4631 3.8438 69.3547 3.84277H142.651C143.559 3.84381 144.428 4.20477 145.07 4.84647C145.711 5.48818 146.072 6.35821 146.073 7.2657V62.9197C146.071 64.1373 145.587 65.3047 144.727 66.1657C143.866 67.0267 142.699 67.511 141.482 67.5124Z" fill="#F2F2F2"/>
<path d="M75.0337 62.9201H137.031C138.211 62.9201 139.344 62.4508 140.178 61.6156C141.013 60.7804 141.482 59.6477 141.482 58.4665V15.727C141.482 14.5458 141.013 13.4131 140.178 12.5779C139.344 11.7426 138.211 11.2734 137.031 11.2734H75.0337C73.8531 11.2734 72.7208 11.7426 71.886 12.5779C71.0512 13.4131 70.5822 14.5458 70.5822 15.727V58.4665C70.5822 59.6477 71.0512 60.7804 71.886 61.6156C72.7208 62.4508 73.8531 62.9201 75.0337 62.9201Z" fill="white"/>
<path d="M146.009 6.94481H65.9273V4.60659C65.929 3.38489 66.4151 2.21379 67.2788 1.35018C68.1426 0.486584 69.3134 0.00101301 70.5345 0H141.402C142.623 0.00100344 143.794 0.486571 144.657 1.35017C145.521 2.21378 146.007 3.38489 146.009 4.60659V6.94481Z" fill="#CCCCCC"/>
<path d="M74.3003 4.67166C74.9584 4.67166 75.492 4.13786 75.492 3.47939C75.492 2.82091 74.9584 2.28711 74.3003 2.28711C73.6421 2.28711 73.1086 2.82091 73.1086 3.47939C73.1086 4.13786 73.6421 4.67166 74.3003 4.67166Z" fill="white"/>
<path d="M78.8237 4.67166C79.4819 4.67166 80.0154 4.13786 80.0154 3.47939C80.0154 2.82091 79.4819 2.28711 78.8237 2.28711C78.1655 2.28711 77.632 2.82091 77.632 3.47939C77.632 4.13786 78.1655 4.67166 78.8237 4.67166Z" fill="white"/>
<path d="M83.3471 4.67166C84.0053 4.67166 84.5388 4.13786 84.5388 3.47939C84.5388 2.82091 84.0053 2.28711 83.3471 2.28711C82.689 2.28711 82.1554 2.82091 82.1554 3.47939C82.1554 4.13786 82.689 4.67166 83.3471 4.67166Z" fill="white"/>
<path d="M79.5959 31.3021H76.5256C76.359 31.3019 76.1994 31.2357 76.0817 31.1179C75.9639 31.0001 75.8977 30.8404 75.8975 30.6738V27.602C75.8977 27.4354 75.9639 27.2757 76.0817 27.1579C76.1994 27.0401 76.359 26.9738 76.5256 26.9736H79.5959C79.7624 26.9738 79.9221 27.0401 80.0398 27.1579C80.1576 27.2757 80.2238 27.4354 80.224 27.602V30.6738C80.2238 30.8404 80.1576 31.0001 80.0398 31.1179C79.9221 31.2357 79.7624 31.3019 79.5959 31.3021Z" fill="#264B8D"/>
<path d="M79.5959 39.2601H76.5256C76.359 39.26 76.1994 39.1937 76.0817 39.0759C75.9639 38.9581 75.8977 38.7984 75.8975 38.6318V35.56C75.8977 35.3934 75.9639 35.2337 76.0817 35.1159C76.1994 34.9981 76.359 34.9318 76.5256 34.9316H79.5959C79.7624 34.9318 79.9221 34.9981 80.0398 35.1159C80.1576 35.2337 80.2238 35.3934 80.224 35.56V38.6318C80.2238 38.7984 80.1576 38.9581 80.0398 39.0759C79.9221 39.1937 79.7624 39.26 79.5959 39.2601Z" fill="#3F3D56"/>
<path d="M79.5959 47.2191H76.5256C76.359 47.2189 76.1994 47.1527 76.0817 47.0349C75.9639 46.9171 75.8977 46.7574 75.8975 46.5908V43.519C75.8977 43.3524 75.9639 43.1927 76.0817 43.0749C76.1994 42.9571 76.359 42.8908 76.5256 42.8906H79.5959C79.7624 42.8908 79.9221 42.9571 80.0398 43.0749C80.1576 43.1927 80.2238 43.3524 80.224 43.519V46.5908C80.2238 46.7574 80.1576 46.9171 80.0398 47.0349C79.9221 47.1527 79.7624 47.2189 79.5959 47.2191Z" fill="#CCCCCC"/>
<path d="M99.693 29.7655H84.8993C84.733 29.7651 84.5736 29.6988 84.4561 29.581C84.3386 29.4632 84.2726 29.3035 84.2726 29.1371C84.2726 28.9707 84.3386 28.8111 84.4561 28.6933C84.5736 28.5755 84.733 28.5091 84.8993 28.5088H99.693C99.7756 28.5086 99.8574 28.5247 99.9338 28.5562C100.01 28.5877 100.08 28.634 100.138 28.6924C100.196 28.7507 100.243 28.82 100.274 28.8964C100.306 28.9727 100.322 29.0545 100.322 29.1371C100.322 29.2197 100.306 29.3016 100.274 29.3779C100.243 29.4542 100.196 29.5235 100.138 29.5819C100.08 29.6403 100.01 29.6865 99.9338 29.718C99.8574 29.7495 99.7756 29.7656 99.693 29.7655Z" fill="#CCCCCC"/>
<path d="M99.693 37.7244H84.8993C84.733 37.7241 84.5736 37.6577 84.4561 37.5399C84.3386 37.4221 84.2726 37.2625 84.2726 37.0961C84.2726 36.9297 84.3386 36.7701 84.4561 36.6523C84.5736 36.5345 84.733 36.4681 84.8993 36.4678H99.693C99.8596 36.4678 100.019 36.534 100.137 36.6518C100.255 36.7696 100.321 36.9295 100.321 37.0961C100.321 37.2627 100.255 37.4226 100.137 37.5404C100.019 37.6582 99.8596 37.7244 99.693 37.7244Z" fill="#CCCCCC"/>
<path d="M99.693 45.6834H84.8993C84.733 45.6831 84.5736 45.6167 84.4561 45.4989C84.3386 45.3811 84.2726 45.2215 84.2726 45.0551C84.2726 44.8887 84.3386 44.7291 84.4561 44.6113C84.5736 44.4935 84.733 44.4271 84.8993 44.4268H99.693C99.7756 44.4266 99.8574 44.4427 99.9338 44.4742C100.01 44.5057 100.08 44.552 100.138 44.6103C100.196 44.6687 100.243 44.738 100.274 44.8143C100.306 44.8906 100.322 44.9725 100.322 45.0551C100.322 45.1377 100.306 45.2195 100.274 45.2958C100.243 45.3722 100.196 45.4415 100.138 45.4998C100.08 45.5582 100.01 45.6045 99.9338 45.636C99.8574 45.6675 99.7756 45.6836 99.693 45.6834Z" fill="#CCCCCC"/>
<path d="M136.142 37.2961C136.158 37.0319 136.167 36.766 136.167 36.4979C136.167 33.0048 134.78 29.6548 132.311 27.1848C129.842 24.7148 126.494 23.3272 123.002 23.3271V37.2961H136.142Z" fill="#264B8D"/>
<path d="M122.005 38.4934V24.5244C119.435 24.5243 116.922 25.2767 114.774 26.6887C112.627 28.1007 110.939 30.1106 109.92 32.4707C108.901 34.8307 108.594 37.4376 109.038 39.9699C109.482 42.5022 110.657 44.8492 112.418 46.7214C114.179 48.5937 116.449 49.9093 118.949 50.5061C121.448 51.1029 124.068 50.9547 126.484 50.0799C128.9 49.2051 131.008 47.6419 132.547 45.583C134.086 43.5241 134.989 41.0596 135.145 38.4934H122.005Z" fill="#3F3D56"/>
<path d="M211.722 192H0.278215C0.204428 192 0.133663 191.971 0.0814871 191.919C0.0293117 191.866 0 191.796 0 191.722C0 191.648 0.0293117 191.577 0.0814871 191.525C0.133663 191.473 0.204428 191.443 0.278215 191.443H211.722C211.796 191.443 211.866 191.473 211.919 191.525C211.971 191.577 212 191.648 212 191.722C212 191.796 211.971 191.866 211.919 191.919C211.866 191.971 211.796 192 211.722 192Z" fill="#CCCCCC"/>
<path d="M140.412 114.937C140.505 115.063 140.588 115.196 140.66 115.335L154.602 116.903L156.63 114.162L161.165 116.683L157.173 123.341L140.092 118.856C139.657 119.274 139.106 119.55 138.51 119.647C137.915 119.744 137.305 119.657 136.76 119.398C136.215 119.14 135.762 118.721 135.461 118.198C135.16 117.676 135.025 117.074 135.075 116.473C135.124 115.871 135.355 115.299 135.737 114.833C136.119 114.366 136.634 114.027 137.213 113.86C137.793 113.693 138.409 113.707 138.981 113.899C139.552 114.091 140.052 114.453 140.412 114.937Z" fill="#FFB8B8"/>
<path d="M69.272 111.335C68.9194 111.542 68.5257 111.67 68.1185 111.709C67.7113 111.747 67.3006 111.696 66.9154 111.559C66.5301 111.421 66.1796 111.201 65.8886 110.914C65.5976 110.626 65.3731 110.278 65.231 109.895L55.2912 110.102L58.0448 105.729L67.0617 106.202C67.7218 106.006 68.4309 106.059 69.0546 106.351C69.6783 106.643 70.1733 107.154 70.4457 107.786C70.7182 108.419 70.7492 109.13 70.5329 109.784C70.3165 110.438 69.8679 110.99 69.272 111.335V111.335Z" fill="#FFB8B8"/>
<path d="M64.9034 110.083C64.8245 110.347 64.6611 110.577 64.4385 110.739C64.2159 110.9 63.9464 110.984 63.6714 110.978L45.4798 110.515L29.0076 105.636C28.5544 105.502 28.1323 105.279 27.766 104.98C27.3996 104.681 27.0963 104.312 26.8737 103.895C26.6511 103.478 26.5136 103.02 26.4692 102.549C26.4249 102.079 26.4745 101.604 26.6152 101.152C26.756 100.701 26.985 100.282 27.2891 99.9196C27.5931 99.5575 27.9661 99.2594 28.3863 99.0428C28.8065 98.8262 29.2656 98.6953 29.7368 98.6577C30.208 98.6202 30.682 98.6768 31.1312 98.8241L46.013 103.706L63.8747 105.43C64.1876 105.462 64.4772 105.61 64.6867 105.844C64.8961 106.079 65.0101 106.384 65.0063 106.698L64.9546 109.746C64.9529 109.861 64.9357 109.974 64.9034 110.083Z" fill="#3F3D56"/>
<path d="M38.5219 188.33L41.9326 188.329L43.5554 175.167L38.5214 175.167L38.5219 188.33Z" fill="#FFB8B8"/>
<path d="M37.6518 187.215L44.369 187.215H44.3693C44.9314 187.215 45.4881 187.326 46.0075 187.541C46.5268 187.756 46.9987 188.071 47.3962 188.469C47.7937 188.867 48.1091 189.339 48.3242 189.859C48.5393 190.378 48.65 190.935 48.65 191.498V191.637L37.652 191.637L37.6518 187.215Z" fill="#2F2E41"/>
<path d="M28.5062 188.33L31.9168 188.329L33.5397 175.167L28.5056 175.167L28.5062 188.33Z" fill="#FFB8B8"/>
<path d="M27.6361 187.215L34.3533 187.215H34.3535C34.9157 187.215 35.4723 187.326 35.9917 187.541C36.5111 187.756 36.983 188.071 37.3805 188.469C37.778 188.867 38.0933 189.339 38.3084 189.859C38.5236 190.378 38.6343 190.935 38.6343 191.498V191.637L27.6363 191.637L27.6361 187.215Z" fill="#2F2E41"/>
<path d="M26.217 135.135L27.0315 183.482C27.0341 183.635 27.0682 183.786 27.1317 183.926C27.1952 184.065 27.2868 184.19 27.4007 184.292C27.5146 184.394 27.6483 184.472 27.7936 184.52C27.9389 184.569 28.0925 184.586 28.245 184.572L32.2363 184.209C32.4981 184.186 32.743 184.07 32.9277 183.883C33.1123 183.695 33.2247 183.449 33.2451 183.187L35.5818 153.029C35.5872 152.958 35.6196 152.892 35.6722 152.844C35.7248 152.797 35.7936 152.771 35.8646 152.772C35.9356 152.774 36.0034 152.802 36.0541 152.852C36.1047 152.902 36.1345 152.969 36.1372 153.04L37.3051 183.888C37.316 184.176 37.4379 184.448 37.6453 184.648C37.8526 184.848 38.1293 184.959 38.4172 184.959H42.6977C42.9811 184.959 43.2538 184.851 43.4602 184.657C43.6666 184.463 43.7912 184.197 43.8085 183.914L46.805 134.857L28.9992 130.403L26.217 135.135Z" fill="#2F2E41"/>
<path d="M39.1321 89.7384C42.906 89.7384 45.9654 86.6776 45.9654 82.9019C45.9654 79.1262 42.906 76.0654 39.1321 76.0654C35.3582 76.0654 32.2989 79.1262 32.2989 82.9019C32.2989 86.6776 35.3582 89.7384 39.1321 89.7384Z" fill="#FFB8B8"/>
<path d="M46.5431 136.927C46.5364 136.927 46.5298 136.927 46.5232 136.927L30.545 136.681C30.2379 136.676 29.9432 136.559 29.717 136.351C29.4909 136.143 29.349 135.859 29.3185 135.553L29.1376 133.743C29.1342 133.709 29.1181 133.677 29.0925 133.654C29.0669 133.631 29.0337 133.618 28.9992 133.618C28.9647 133.618 28.9314 133.631 28.9058 133.654C28.8803 133.677 28.8642 133.709 28.8608 133.743L28.6739 135.613C28.6449 135.906 28.5138 136.179 28.3035 136.384C28.0933 136.59 27.8173 136.715 27.5242 136.737L26.395 136.824C26.196 136.839 25.9962 136.807 25.8123 136.729C25.6284 136.651 25.4657 136.531 25.3378 136.378C25.2099 136.224 25.1205 136.043 25.077 135.848C25.0335 135.653 25.0373 135.45 25.0879 135.257L26.0602 131.549C28.0721 123.841 28.234 115.766 26.5325 107.984L26.0494 105.785C25.6852 104.142 25.8519 102.426 26.5255 100.885C27.199 99.3431 28.3446 98.0554 29.797 97.2072L32.9354 95.3667L34.3593 93.2299C34.6348 92.8174 35.0057 92.4775 35.4405 92.239C35.8753 92.0004 36.3612 91.8703 36.8569 91.8597C38.8432 91.8162 42.2505 92.1801 42.8907 95.0859C44.4771 95.6282 45.8509 96.6596 46.8148 98.032C47.7786 99.4044 48.2829 101.047 48.2552 102.724L47.7943 135.692C47.7896 136.021 47.6558 136.335 47.4217 136.566C47.1875 136.797 46.872 136.927 46.5431 136.927Z" fill="#3F3D56"/>
<path d="M38.5976 86.8424C38.5696 87.8089 37.899 88.3679 37.0757 88.8741C36.2523 89.3803 35.2899 89.5998 34.3469 89.8116C34.2203 89.8788 34.0785 89.9124 33.9351 89.9088C33.7918 89.9053 33.6518 89.8649 33.5286 89.7915C33.4054 89.718 33.3032 89.6141 33.2319 89.4896C33.1606 89.3652 33.1225 89.2245 33.1214 89.081L32.2565 85.7901C31.9506 84.7388 31.728 83.665 31.5908 82.5788C31.3825 80.4886 31.8776 78.2402 33.3358 76.7289C34.794 75.2177 37.3228 74.6809 39.0702 75.8452C41.144 73.1955 50.6227 79.0499 48.2845 80.8925C47.8685 81.2203 47.2327 80.8055 46.7047 80.7653C46.1767 80.7251 45.585 80.818 45.2496 81.2279C44.8114 81.7635 45.0023 82.5614 44.8217 83.2295C44.747 83.4646 44.6265 83.6826 44.4672 83.8708C44.3079 84.0591 44.113 84.214 43.8935 84.3265C43.6741 84.439 43.4346 84.507 43.1888 84.5264C42.943 84.5459 42.6958 84.5164 42.4614 84.4398C42.0249 84.2246 41.6142 83.9605 41.2373 83.6525C40.8323 83.3826 40.3206 83.1832 39.8647 83.3534C39.2638 83.5778 39.0503 84.3138 38.996 84.9532C38.9044 85.591 38.7713 86.222 38.5976 86.8424Z" fill="#2F2E41"/>
<path opacity="0.2" d="M40.1935 105.165L41.3063 118.804L47.1488 133L38.5242 119.082L40.1935 105.165Z" fill="black"/>
<path d="M112.07 179.853L51.0938 143.66C50.0478 143.038 49.2913 142.025 48.9903 140.846C48.6892 139.666 48.8682 138.415 49.488 137.367L77.9007 89.4522C78.3565 88.6855 79.0977 88.131 79.9616 87.9104C80.8256 87.6897 81.7417 87.8209 82.5091 88.2752L145.547 125.691C146.327 126.155 146.89 126.909 147.115 127.789C147.339 128.668 147.206 129.6 146.744 130.381L118.361 178.246C117.739 179.292 116.727 180.049 115.548 180.351C114.368 180.652 113.118 180.473 112.07 179.853Z" fill="#F2F2F2"/>
<path d="M57.2645 141.983L110.584 173.631C111.6 174.233 112.813 174.408 113.957 174.116C115.1 173.823 116.082 173.089 116.684 172.073L138.481 135.315C139.083 134.299 139.257 133.086 138.965 131.941C138.673 130.797 137.939 129.815 136.924 129.213L83.6038 97.5648C82.5884 96.9621 81.3754 96.7876 80.2315 97.0798C79.0876 97.372 78.1065 98.1068 77.5041 99.1226L55.7073 135.88C55.105 136.896 54.9306 138.11 55.2226 139.254C55.5146 140.399 56.2491 141.38 57.2645 141.983Z" fill="white"/>
<path d="M146.852 130.073L77.9793 89.1934L79.1718 87.1824C79.7964 86.1326 80.8116 85.3735 81.9949 85.0717C83.1782 84.7699 84.4328 84.95 85.4835 85.5725L146.432 121.748C147.481 122.372 148.241 123.388 148.543 124.571C148.846 125.755 148.666 127.01 148.045 128.062L146.852 130.073Z" fill="#CCCCCC"/>
<path d="M86.9477 91.6795C87.6059 91.6795 88.1394 91.1457 88.1394 90.4872C88.1394 89.8287 87.6059 89.2949 86.9477 89.2949C86.2896 89.2949 85.756 89.8287 85.756 90.4872C85.756 91.1457 86.2896 91.6795 86.9477 91.6795Z" fill="white"/>
<path d="M90.8381 93.989C91.4962 93.989 92.0298 93.4552 92.0298 92.7968C92.0298 92.1383 91.4962 91.6045 90.8381 91.6045C90.1799 91.6045 89.6464 92.1383 89.6464 92.7968C89.6464 93.4552 90.1799 93.989 90.8381 93.989Z" fill="white"/>
<path d="M94.7284 96.2976C95.3866 96.2976 95.9201 95.7638 95.9201 95.1054C95.9201 94.4469 95.3866 93.9131 94.7284 93.9131C94.0702 93.9131 93.5367 94.4469 93.5367 95.1054C93.5367 95.7638 94.0702 96.2976 94.7284 96.2976Z" fill="white"/>
<path d="M131.528 137.051L131.451 137.182L132.235 137.647L132.312 137.516L131.528 137.051Z" fill="#E6E6E6"/>
<path d="M129.867 136.242L128.283 135.302L128.361 135.171L129.944 136.111L129.867 136.242ZM126.7 134.362L125.116 133.422L125.194 133.291L126.777 134.231L126.7 134.362ZM123.532 132.482L121.949 131.542L122.026 131.411L123.61 132.351L123.532 132.482ZM120.365 130.602L118.781 129.662L118.859 129.531L120.443 130.471L120.365 130.602ZM117.198 128.722L115.614 127.782L115.692 127.651L117.275 128.591L117.198 128.722ZM114.03 126.842L112.447 125.902L112.524 125.771L114.108 126.711L114.03 126.842ZM110.863 124.962L109.279 124.022L109.357 123.891L110.941 124.831L110.863 124.962ZM107.696 123.082L106.112 122.142L106.19 122.011L107.773 122.951L107.696 123.082ZM104.528 121.202L102.945 120.262L103.022 120.131L104.606 121.071L104.528 121.202ZM101.361 119.322L99.7775 118.382L99.855 118.251L101.439 119.191L101.361 119.322ZM98.1938 117.442L96.6101 116.502L96.6876 116.371L98.2713 117.311L98.1938 117.442ZM95.0265 115.562L93.4428 114.622L93.5203 114.491L95.104 115.431L95.0265 115.562ZM91.8591 113.682L90.2755 112.742L90.353 112.612L91.9366 113.552L91.8591 113.682ZM88.6918 111.802L87.1081 110.862L87.1857 110.732L88.7693 111.672L88.6918 111.802ZM85.5245 109.922L83.9409 108.982L84.0184 108.852L85.602 109.792L85.5245 109.922ZM82.3572 108.042L80.7735 107.102L80.851 106.972L82.4347 107.912L82.3572 108.042Z" fill="#E6E6E6"/>
<path d="M78.4835 105.567L78.4059 105.697L79.1899 106.163L79.2674 106.032L78.4835 105.567Z" fill="#E6E6E6"/>
<path d="M98.5811 133.931L98.5036 134.062L99.2875 134.527L99.365 134.396L98.5811 133.931Z" fill="#E6E6E6"/>
<path d="M96.9434 133.135L95.3833 132.209L95.4608 132.078L97.021 133.005L96.9434 133.135ZM93.8232 131.283L92.263 130.357L92.3406 130.226L93.9007 131.152L93.8232 131.283ZM90.7029 129.431L89.1428 128.505L89.2203 128.374L90.7804 129.3L90.7029 129.431ZM87.5826 127.579L86.0225 126.653L86.1 126.522L87.6601 127.448L87.5826 127.579ZM84.4624 125.727L82.9022 124.801L82.9797 124.67L84.5399 125.596L84.4624 125.727ZM81.3421 123.875L79.7819 122.949L79.8594 122.818L81.4196 123.744L81.3421 123.875ZM78.2218 122.023L76.6617 121.097L76.7392 120.966L78.2993 121.892L78.2218 122.023ZM75.1015 120.171L73.5414 119.245L73.6189 119.114L75.179 120.04L75.1015 120.171Z" fill="#E6E6E6"/>
<path d="M71.2749 117.723L71.1974 117.854L71.9813 118.319L72.0588 118.188L71.2749 117.723Z" fill="#E6E6E6"/>
<path d="M79.8843 130.609L79.8068 130.739L80.5907 131.205L80.6682 131.074L79.8843 130.609Z" fill="#E6E6E6"/>
<path d="M78.2017 129.787L76.5965 128.834L76.6741 128.704L78.2792 129.656L78.2017 129.787ZM74.9914 127.881L73.3862 126.929L73.4637 126.798L75.0689 127.751L74.9914 127.881ZM71.7811 125.976L70.1759 125.023L70.2534 124.893L71.8586 125.845L71.7811 125.976Z" fill="#E6E6E6"/>
<path d="M67.8644 123.475L67.7869 123.605L68.5708 124.071L68.6483 123.94L67.8644 123.475Z" fill="#E6E6E6"/>
<path d="M74.0642 140.424L73.9867 140.555L74.7706 141.02L74.8481 140.889L74.0642 140.424Z" fill="#E6E6E6"/>
<path d="M72.3816 139.602L70.7764 138.65L70.8539 138.519L72.4591 139.472L72.3816 139.602ZM69.1712 137.697L67.5661 136.744L67.6436 136.613L69.2487 137.566L69.1712 137.697ZM65.961 135.791L64.3558 134.839L64.4333 134.708L66.0385 135.661L65.961 135.791Z" fill="#E6E6E6"/>
<path d="M62.0442 133.289L61.9667 133.42L62.7506 133.885L62.8282 133.754L62.0442 133.289Z" fill="#E6E6E6"/>
<path d="M66.3269 136.144L111.512 162.963C112.607 163.611 113.914 163.798 115.146 163.484C116.379 163.169 117.436 162.378 118.087 161.284L131.289 139.02L131.198 138.969L101.244 146.619L98.8711 137.324C98.8277 137.152 98.7452 136.992 98.6299 136.858C98.5147 136.723 98.3699 136.617 98.2068 136.548C97.9574 136.447 97.6819 136.432 97.4228 136.504L81.7255 140.512L79.9904 133.716C79.953 133.57 79.8871 133.432 79.7965 133.31C79.7058 133.189 79.5922 133.087 79.4621 133.01C79.3319 132.933 79.1879 132.882 79.0381 132.86C78.8883 132.839 78.7358 132.847 78.5892 132.885C78.4832 132.913 68.2687 135.62 66.3269 136.144Z" fill="#264B8D"/>
<path d="M66.0569 136.16L66.0193 136.013L78.5806 132.805C78.9124 132.72 79.2641 132.771 79.5585 132.946C79.853 133.12 80.0661 133.405 80.1511 133.737L81.851 140.399L97.4612 136.412C97.793 136.328 98.1447 136.378 98.4391 136.553C98.7335 136.728 98.9466 137.012 99.0317 137.344L101.369 146.506L131.479 138.815L131.517 138.963L101.26 146.69L98.8845 137.382C98.8475 137.237 98.7823 137.1 98.6926 136.981C98.6029 136.861 98.4906 136.76 98.3619 136.683C98.2332 136.607 98.0907 136.557 97.9426 136.535C97.7945 136.514 97.6437 136.522 97.4987 136.559L81.7414 140.584L80.0039 133.774C79.9288 133.482 79.7408 133.231 79.481 133.076C79.2212 132.922 78.9109 132.877 78.6181 132.952L66.0569 136.16Z" fill="#3F3D56"/>
<path d="M80.6295 132.204C81.2168 132.204 81.6929 131.728 81.6929 131.14C81.6929 130.552 81.2168 130.076 80.6295 130.076C80.0422 130.076 79.5661 130.552 79.5661 131.14C79.5661 131.728 80.0422 132.204 80.6295 132.204Z" fill="#3F3D56"/>
<path d="M99.3263 135.525C99.9136 135.525 100.39 135.049 100.39 134.461C100.39 133.874 99.9136 133.397 99.3263 133.397C98.739 133.397 98.2629 133.874 98.2629 134.461C98.2629 135.049 98.739 135.525 99.3263 135.525Z" fill="#3F3D56"/>
<path d="M131.899 138.088C132.487 138.088 132.963 137.611 132.963 137.024C132.963 136.436 132.487 135.96 131.899 135.96C131.312 135.96 130.836 136.436 130.836 137.024C130.836 137.611 131.312 138.088 131.899 138.088Z" fill="#3F3D56"/>
<path d="M48.515 138.286C48.1961 138.03 47.9372 137.707 47.7566 137.339C47.5759 136.972 47.478 136.57 47.4695 136.161C47.4611 135.752 47.5424 135.346 47.7078 134.972C47.8732 134.597 48.1185 134.264 48.4267 133.995L44.7045 124.771L49.7687 125.795L52.5269 134.396C52.9445 134.944 53.1467 135.626 53.0952 136.313C53.0438 137 52.7422 137.644 52.2477 138.124C51.7532 138.603 51.1001 138.885 50.4121 138.914C49.7242 138.944 49.0491 138.721 48.515 138.286Z" fill="#FFB8B8"/>
<path d="M48.4533 134.29C48.179 134.309 47.9057 134.238 47.6757 134.087C47.4457 133.937 47.2715 133.714 47.1802 133.455L41.1547 116.276L39.867 99.1368C39.8315 98.6652 39.8901 98.1912 40.0393 97.7425C40.1885 97.2937 40.4255 96.8791 40.7363 96.5227C41.0471 96.1664 41.4257 95.8754 41.8499 95.6668C42.2742 95.4581 42.7356 95.3359 43.2075 95.3073C43.6794 95.2787 44.1522 95.3442 44.5986 95.5001C45.0449 95.6559 45.4558 95.899 45.8074 96.2152C46.159 96.5313 46.4442 96.9143 46.6466 97.3417C46.8489 97.7692 46.9643 98.2326 46.986 98.705L47.707 114.357L52.4358 131.676C52.5173 131.98 52.482 132.303 52.3371 132.582C52.1921 132.861 51.948 133.076 51.6527 133.184L48.786 134.218C48.6789 134.257 48.5669 134.281 48.4533 134.29Z" fill="#3F3D56"/>
<path d="M160.174 119.068C160.061 119.019 159.957 118.954 159.863 118.874L154.26 114.152C154.125 114.038 154.015 113.898 153.938 113.74C153.86 113.582 153.816 113.409 153.808 113.233C153.8 113.057 153.829 112.882 153.893 112.717C153.957 112.553 154.054 112.404 154.178 112.279L159.263 107.171C159.476 106.954 159.76 106.822 160.063 106.798C160.366 106.774 160.668 106.859 160.913 107.039L164.758 109.833C164.998 110.007 165.17 110.26 165.243 110.548C165.317 110.835 165.288 111.139 165.161 111.408L161.834 118.445C161.693 118.744 161.44 118.977 161.13 119.093C160.82 119.209 160.477 119.2 160.174 119.068L160.174 119.068Z" fill="#264B8D"/>
<path d="M182.03 185.86L178.683 186.771L173.578 174.29L178.517 172.945L182.03 185.86Z" fill="#FFB8B8"/>
<path d="M175.965 186.483L182.487 184.708L183.592 188.774L173.074 191.637L173.056 191.57C172.767 190.509 172.912 189.378 173.457 188.424C174.003 187.47 174.905 186.772 175.965 186.483Z" fill="#2F2E41"/>
<path d="M153.419 188.416L149.951 188.416L148.301 175.031L153.42 175.032L153.419 188.416Z" fill="#FFB8B8"/>
<path d="M147.404 187.424H154.163V191.637H143.262V191.568C143.262 190.469 143.698 189.415 144.475 188.637C145.252 187.86 146.305 187.424 147.404 187.424Z" fill="#2F2E41"/>
<path d="M158.644 100.046C162.482 100.046 165.593 96.9336 165.593 93.0943C165.593 89.255 162.482 86.1426 158.644 86.1426C154.807 86.1426 151.696 89.255 151.696 93.0943C151.696 96.9336 154.807 100.046 158.644 100.046Z" fill="#FFB8B8"/>
<path d="M153.207 178.872H148.467C148.143 178.872 147.832 178.748 147.596 178.526C147.359 178.304 147.216 178 147.196 177.677C145.783 155.215 146.609 139.102 149.795 126.97C149.809 126.917 149.827 126.865 149.847 126.814L150.101 126.179C150.195 125.942 150.357 125.739 150.568 125.596C150.779 125.453 151.028 125.377 151.283 125.378H161.029C161.213 125.378 161.395 125.417 161.561 125.494C161.728 125.571 161.877 125.683 161.996 125.823L163.32 127.368C163.346 127.398 163.37 127.429 163.393 127.461C169.363 135.79 174.713 152.073 180.908 173.958C181 174.276 180.964 174.617 180.807 174.909C180.651 175.201 180.387 175.42 180.071 175.52L174.978 177.15C174.685 177.243 174.37 177.227 174.088 177.105C173.806 176.984 173.577 176.766 173.443 176.49L160.225 149.062C160.133 148.87 159.981 148.713 159.792 148.615C159.604 148.516 159.389 148.481 159.179 148.514C158.968 148.547 158.775 148.647 158.626 148.799C158.477 148.951 158.381 149.147 158.352 149.358L154.468 177.771C154.426 178.076 154.275 178.355 154.043 178.557C153.811 178.759 153.515 178.871 153.207 178.872Z" fill="#2F2E41"/>
<path d="M162.786 127.482C162.772 127.482 162.759 127.481 162.746 127.481L150.907 127.107C150.602 127.099 150.311 126.981 150.086 126.775C149.861 126.57 149.718 126.29 149.682 125.988C148.181 113.834 152.297 110.578 154.136 109.742C154.29 109.673 154.423 109.565 154.523 109.429C154.623 109.293 154.686 109.133 154.706 108.966L154.865 107.692C154.892 107.467 154.979 107.253 155.116 107.073C158 103.336 161.938 102.139 164.029 101.758C164.198 101.728 164.372 101.732 164.54 101.771C164.708 101.81 164.866 101.882 165.005 101.984C165.144 102.086 165.261 102.215 165.348 102.364C165.436 102.512 165.492 102.677 165.514 102.848L165.753 104.677C165.777 104.852 165.847 105.017 165.954 105.156C171.969 113.022 165.269 124.637 163.864 126.885C163.75 127.067 163.59 127.218 163.402 127.322C163.213 127.427 163.001 127.481 162.786 127.482Z" fill="#264B8D"/>
<path d="M166.289 88.7702C165.773 87.205 165.392 85.5984 165.151 83.968C165.075 83.0188 165.318 81.9976 166.009 81.3426C167.302 80.117 169.498 80.7008 170.851 81.8607C172.805 83.5371 173.78 86.1133 174.148 88.6622C174.516 91.2112 174.354 93.8032 174.443 96.3771C174.531 98.951 174.899 101.598 176.211 103.814C177.523 106.03 179.957 107.731 182.524 107.542C183.56 107.486 184.544 107.069 185.305 106.363C185.679 106.007 185.961 105.568 186.13 105.08C186.298 104.593 186.348 104.072 186.274 103.561C187.586 105.912 186.921 109.098 184.963 110.946C183.006 112.794 179.996 113.316 177.422 112.527C174.849 111.738 172.732 109.76 171.467 107.384C170.202 105.007 169.738 102.262 169.805 99.5701C169.857 97.5032 170.208 95.4193 169.859 93.3814C169.51 91.3435 168.235 89.2743 166.225 88.7944L166.289 88.7702Z" fill="#2F2E41"/>
<path d="M157.262 91.4498C156.919 92.5953 155.608 93.3016 154.429 93.1079C153.842 92.9857 153.299 92.7068 152.857 92.3008C152.416 91.8948 152.093 91.3768 151.922 90.8018C151.598 89.6368 151.73 88.3921 152.292 87.3216C152.602 86.6799 153.035 86.1057 153.567 85.6317C154.099 85.1577 154.719 84.7934 155.392 84.5594C156.069 84.3351 156.789 84.2767 157.493 84.3893C158.197 84.5018 158.863 84.7819 159.436 85.206C159.497 84.9486 159.626 84.7122 159.808 84.5211C159.991 84.3299 160.221 84.191 160.476 84.1185C160.988 83.9804 161.528 83.9884 162.035 84.1415C163.498 84.5585 164.766 85.481 165.612 86.745C166.449 88.005 167.002 89.4314 167.234 90.9259C167.633 93.1671 167.486 95.6161 166.227 97.513C164.969 99.4099 162.395 100.53 160.307 99.6256C160.177 98.9596 160.485 98.289 160.842 97.7119C161.199 97.1349 161.622 96.5727 161.759 95.9081C161.896 95.2435 161.633 94.4306 160.991 94.2133C160.443 94.0278 159.858 94.3282 159.281 94.3645C158.953 94.3851 158.625 94.3191 158.331 94.173C158.036 94.0269 157.785 93.806 157.603 93.5323C157.421 93.2587 157.314 92.9419 157.293 92.6138C157.272 92.2857 157.338 91.9579 157.483 91.6631L157.262 91.4498Z" fill="#2F2E41"/>
<path d="M139.652 120.088C139.767 120.195 139.873 120.31 139.97 120.433L153.958 119.344L155.433 116.27L160.361 117.89L157.695 125.181L140.075 123.998C139.727 124.491 139.238 124.866 138.671 125.073C138.105 125.28 137.489 125.31 136.906 125.159C136.322 125.007 135.798 124.682 135.404 124.225C135.01 123.769 134.764 123.203 134.699 122.603C134.634 122.004 134.753 121.398 135.04 120.868C135.327 120.338 135.769 119.907 136.307 119.634C136.845 119.361 137.453 119.258 138.05 119.34C138.648 119.421 139.206 119.682 139.652 120.088V120.088Z" fill="#FFB8B8"/>
<path d="M160.285 122.746C160.167 122.713 160.055 122.662 159.951 122.597L153.757 118.682C153.608 118.588 153.48 118.464 153.381 118.318C153.283 118.172 153.216 118.007 153.184 117.834C153.152 117.661 153.157 117.483 153.198 117.311C153.238 117.14 153.314 116.979 153.42 116.838L157.762 111.084C157.944 110.841 158.207 110.671 158.504 110.606C158.801 110.54 159.111 110.584 159.379 110.729L163.569 112.972C163.83 113.112 164.035 113.339 164.147 113.614C164.259 113.889 164.271 114.194 164.182 114.478L161.845 121.902C161.746 122.218 161.527 122.483 161.236 122.641C160.945 122.798 160.604 122.836 160.285 122.746Z" fill="#264B8D"/>
</g>
<defs>
<clipPath id="clip0_72_89">
<rect width="212" height="192" fill="white"/>
</clipPath>
</defs>
</svg>
