<svg width="447" height="299" viewBox="0 0 447 299" fill="none" xmlns="http://www.w3.org/2000/svg">
<rect x="88" y="26" width="271" height="82" rx="34" fill="white" stroke="#616161" stroke-width="4" stroke-dasharray="8 8"/>
<path d="M124.528 62H130.048V61.064H127.612C127.168 61.064 126.64 61.1 126.172 61.148C128.248 59.192 129.628 57.404 129.628 55.64C129.628 54.068 128.644 53.048 127.072 53.048C125.956 53.048 125.188 53.564 124.468 54.344L125.104 54.956C125.596 54.38 126.22 53.936 126.94 53.936C128.032 53.936 128.548 54.68 128.548 55.688C128.548 57.188 127.288 58.952 124.528 61.364V62ZM135.432 62.168C137.088 62.168 138.156 60.644 138.156 57.572C138.156 54.524 137.088 53.048 135.432 53.048C133.752 53.048 132.684 54.524 132.684 57.572C132.684 60.644 133.752 62.168 135.432 62.168ZM135.432 61.28C134.424 61.28 133.74 60.164 133.74 57.572C133.74 55.016 134.424 53.924 135.432 53.924C136.428 53.924 137.1 55.016 137.1 57.572C137.1 60.164 136.428 61.28 135.432 61.28ZM143.349 62.168C144.921 62.168 146.181 61.22 146.181 59.66C146.181 58.448 145.341 57.668 144.309 57.416V57.368C145.245 57.032 145.869 56.324 145.869 55.256C145.869 53.852 144.789 53.048 143.313 53.048C142.305 53.048 141.525 53.492 140.865 54.092L141.453 54.8C141.945 54.296 142.569 53.936 143.277 53.936C144.189 53.936 144.753 54.488 144.753 55.328C144.753 56.288 144.141 57.008 142.329 57.008V57.86C144.357 57.86 145.065 58.556 145.065 59.612C145.065 60.62 144.321 61.256 143.277 61.256C142.269 61.256 141.609 60.776 141.093 60.236L140.541 60.956C141.117 61.592 141.969 62.168 143.349 62.168ZM151.625 62.168C153.281 62.168 154.349 60.644 154.349 57.572C154.349 54.524 153.281 53.048 151.625 53.048C149.945 53.048 148.877 54.524 148.877 57.572C148.877 60.644 149.945 62.168 151.625 62.168ZM151.625 61.28C150.617 61.28 149.933 60.164 149.933 57.572C149.933 55.016 150.617 53.924 151.625 53.924C152.621 53.924 153.293 55.016 153.293 57.572C153.293 60.164 152.621 61.28 151.625 61.28ZM159.709 51.884C159.121 53.504 158.125 55.064 156.985 56.06C157.213 56.18 157.585 56.48 157.765 56.636C158.881 55.556 159.949 53.888 160.609 52.112L159.709 51.884ZM159.517 53.372L159.085 54.248H167.257V53.372H159.517ZM158.929 56.096V59.78H159.829V56.936H166.993V56.096H158.929ZM156.949 59.324V60.2H167.821V59.324H156.949ZM162.529 53.828V62.972H163.453V53.828H162.529ZM176.581 53.816L175.585 53.792C175.465 55.04 175.213 56.396 174.865 57.536C174.253 59.564 173.605 60.38 173.041 60.38C172.501 60.38 171.817 59.708 171.817 58.196C171.817 56.432 173.461 54.26 176.101 54.26C178.405 54.26 179.737 55.844 179.737 57.764C179.737 59.84 178.225 60.992 176.689 61.34C176.401 61.4 176.041 61.448 175.657 61.484L176.209 62.372C179.065 62 180.721 60.32 180.721 57.812C180.721 55.376 178.933 53.396 176.125 53.396C173.185 53.396 170.869 55.664 170.869 58.268C170.869 60.26 171.937 61.484 173.017 61.484C174.121 61.484 175.081 60.212 175.813 57.752C176.185 56.468 176.425 55.064 176.581 53.816ZM191.065 51.86V59.612H191.953V52.688H194.845V51.86H191.065ZM197.905 62H199.021V53.204H197.905V62ZM204.685 62H205.813V54.14H208.465V53.204H202.033V54.14H204.685V62ZM214.988 58.292V62.96H215.816V59.12H220.112V62.9H220.976V58.292H214.988ZM220.532 51.968C219.2 52.448 216.764 52.82 214.676 53.048C214.784 53.252 214.904 53.6 214.94 53.816C217.088 53.612 219.596 53.24 221.24 52.676L220.532 51.968ZM217.58 53.012V58.772H218.444V53.012H217.58ZM214.112 55.448V56.312H221.756V55.448H214.112ZM215.552 61.616V62.444H220.508V61.616H215.552ZM211.364 52.712C212.108 53.108 213.104 53.696 213.608 54.056L214.136 53.324C213.62 52.976 212.6 52.436 211.868 52.076L211.364 52.712ZM210.776 56.024C211.508 56.408 212.504 56.984 212.996 57.32L213.5 56.588C212.996 56.24 211.988 55.712 211.28 55.364L210.776 56.024ZM211.064 62.192L211.82 62.804C212.528 61.688 213.368 60.188 214.004 58.916L213.356 58.328C212.66 59.696 211.712 61.28 211.064 62.192ZM226.064 52.772V53.636H233.828V52.772H226.064ZM226.064 55.568V56.42H233.816V55.568H226.064ZM226.004 58.436V59.288H233.84V58.436H226.004ZM225.56 52.772V57.116C225.56 58.808 225.428 60.944 224.108 62.432C224.3 62.552 224.66 62.852 224.804 63.032C226.232 61.436 226.448 58.952 226.448 57.128V52.772H225.56ZM233.468 52.772V61.736C233.468 61.964 233.384 62.036 233.156 62.048C232.928 62.048 232.112 62.06 231.26 62.024C231.392 62.264 231.536 62.66 231.572 62.9C232.712 62.912 233.408 62.9 233.816 62.756C234.212 62.6 234.356 62.324 234.356 61.736V52.772H233.468ZM229.328 53.096V62.852H230.24V53.096H229.328ZM242.54 52.292C242.456 53.888 242.456 59.66 237.56 62.156C237.836 62.36 238.136 62.636 238.292 62.864C243.26 60.164 243.44 54.176 243.536 52.292H242.54ZM243.5 52.532L242.636 52.616C242.72 53.72 243.056 60.428 248.144 62.864C248.288 62.612 248.564 62.312 248.828 62.108C243.884 59.84 243.536 53.468 243.5 52.532ZM256.316 54.512V55.376H262.1V54.512H256.316ZM259.916 51.944V61.748C259.916 61.964 259.844 62.024 259.616 62.036C259.4 62.036 258.62 62.048 257.84 62.024C257.96 62.288 258.104 62.696 258.164 62.948C259.184 62.948 259.892 62.936 260.3 62.78C260.696 62.636 260.852 62.36 260.852 61.736V51.944H259.916ZM259.82 54.908C258.98 56.936 257.252 59.204 255.62 60.32C255.848 60.5 256.124 60.812 256.268 61.052C257.924 59.792 259.652 57.452 260.54 55.34L259.82 54.908ZM251.324 54.5V55.364H255.872V54.5H251.324ZM253.328 51.92V62.948H254.228V51.92H253.328ZM253.28 55.028C252.86 56.792 251.876 58.832 250.904 59.912C251.072 60.128 251.312 60.5 251.408 60.764C252.44 59.552 253.424 57.212 253.916 55.256L253.28 55.028ZM254.144 55.616L253.676 56.072C254.108 56.576 255.224 58.076 255.608 58.712L256.184 57.932C255.884 57.548 254.528 55.964 254.144 55.616ZM268.232 63.032V55.28H267.344V62.204H264.452V63.032H268.232ZM284.24 53.816L283.244 53.792C283.124 55.04 282.872 56.396 282.524 57.536C281.912 59.564 281.264 60.38 280.7 60.38C280.16 60.38 279.476 59.708 279.476 58.196C279.476 56.432 281.12 54.26 283.76 54.26C286.064 54.26 287.396 55.844 287.396 57.764C287.396 59.84 285.884 60.992 284.348 61.34C284.06 61.4 283.7 61.448 283.316 61.484L283.868 62.372C286.724 62 288.38 60.32 288.38 57.812C288.38 55.376 286.592 53.396 283.784 53.396C280.844 53.396 278.528 55.664 278.528 58.268C278.528 60.26 279.596 61.484 280.676 61.484C281.78 61.484 282.74 60.212 283.472 57.752C283.844 56.468 284.084 55.064 284.24 53.816ZM292.532 52.412V53.132H301.304V52.412H292.532ZM291.692 57.728V58.46H302.18V57.728H291.692ZM293.24 55.148V55.76H295.832V55.148H293.24ZM292.988 56.408V57.02H295.832V56.408H292.988ZM297.944 56.408V57.02H300.884V56.408H297.944ZM297.944 55.148V55.76H300.596V55.148H297.944ZM296.444 52.688V57.332H297.32V52.688H296.444ZM295.256 59.792V62.876H296.096V59.792H295.256ZM297.92 59.792V62.876H298.748V59.792H297.92ZM291.836 53.828V56.132H292.652V54.488H301.172V56.132H302.024V53.828H291.836ZM292.628 59.324V62.948H293.48V60.068H300.86V59.324H292.628ZM300.632 59.324V62.06C300.632 62.168 300.596 62.204 300.464 62.216C300.332 62.228 299.924 62.228 299.444 62.216C299.552 62.432 299.684 62.744 299.72 62.96C300.38 62.96 300.824 62.972 301.124 62.828C301.436 62.696 301.496 62.48 301.496 62.072V59.324H300.632ZM296.456 58.004C296.372 58.496 296.156 59.216 295.976 59.708L296.768 59.792C296.972 59.348 297.224 58.688 297.44 58.04L296.456 58.004ZM304.904 58.484V59.24H315.824V58.484H304.904ZM305.192 52.448V53.24H315.524V52.448H305.192ZM309.068 57.224C308.324 58.4 307.208 60.008 306.44 60.98L307.292 61.268C308.06 60.284 309.164 58.712 309.944 57.464L309.068 57.224ZM312.668 58.748C311.708 61.088 309.356 61.94 305.072 62.168C305.216 62.372 305.36 62.696 305.42 62.96C309.92 62.624 312.476 61.64 313.532 59L312.668 58.748ZM307.088 60.86C310.136 61.424 313.076 62.24 314.912 62.996L315.452 62.264C313.592 61.532 310.508 60.728 307.544 60.2L307.088 60.86ZM308.468 52.748V56.936H309.32V52.748H308.468ZM311.264 52.748V56.936H312.116V52.748H311.264ZM306.632 55.004H314.12V56.636H306.632V55.004ZM305.792 54.272V57.38H315.02V54.272H305.792ZM322.58 54.908L322.592 55.82C323.288 55.868 323.912 55.892 324.608 55.892C326.012 55.892 327.476 55.796 328.748 55.58V54.656C327.536 54.908 326.06 55.016 324.62 55.016C323.912 55.016 323.264 54.98 322.58 54.908ZM326.78 52.76H325.7C325.736 52.976 325.748 53.288 325.748 53.504C325.748 53.924 325.76 54.68 325.76 55.508C325.76 57.092 325.916 59.336 325.916 60.2C325.916 61.004 325.628 61.508 324.62 61.508C323.744 61.508 323.156 61.184 323.156 60.56C323.156 59.984 323.78 59.588 324.68 59.588C326.204 59.588 327.416 60.404 328.676 61.58L329.192 60.788C328.184 59.876 326.78 58.856 324.764 58.856C323.18 58.856 322.292 59.648 322.292 60.656C322.292 61.736 323.168 62.384 324.776 62.384C326.396 62.384 326.852 61.424 326.852 60.44C326.852 59.204 326.672 57.332 326.672 55.484C326.672 54.776 326.684 53.924 326.708 53.48C326.72 53.252 326.744 53 326.78 52.76ZM320.864 52.844L319.808 52.748C319.796 53.012 319.772 53.324 319.724 53.612C319.58 54.596 319.172 56.888 319.172 58.652C319.172 60.272 319.4 61.592 319.628 62.456L320.48 62.384C320.468 62.264 320.456 62.084 320.444 61.964C320.432 61.832 320.456 61.592 320.492 61.424C320.612 60.836 321.056 59.612 321.356 58.772L320.864 58.388C320.66 58.88 320.36 59.612 320.168 60.164C320.084 59.576 320.048 59.072 320.048 58.484C320.048 57.14 320.408 54.764 320.648 53.648C320.696 53.432 320.792 53.036 320.864 52.844ZM124.528 83H130.048V82.064H127.612C127.168 82.064 126.64 82.1 126.172 82.148C128.248 80.192 129.628 78.404 129.628 76.64C129.628 75.068 128.644 74.048 127.072 74.048C125.956 74.048 125.188 74.564 124.468 75.344L125.104 75.956C125.596 75.38 126.22 74.936 126.94 74.936C128.032 74.936 128.548 75.68 128.548 76.688C128.548 78.188 127.288 79.952 124.528 82.364V83ZM135.432 83.168C137.088 83.168 138.156 81.644 138.156 78.572C138.156 75.524 137.088 74.048 135.432 74.048C133.752 74.048 132.684 75.524 132.684 78.572C132.684 81.644 133.752 83.168 135.432 83.168ZM135.432 82.28C134.424 82.28 133.74 81.164 133.74 78.572C133.74 76.016 134.424 74.924 135.432 74.924C136.428 74.924 137.1 76.016 137.1 78.572C137.1 81.164 136.428 82.28 135.432 82.28ZM140.721 83H146.241V82.064H143.805C143.361 82.064 142.833 82.1 142.365 82.148C144.441 80.192 145.821 78.404 145.821 76.64C145.821 75.068 144.837 74.048 143.265 74.048C142.149 74.048 141.381 74.564 140.661 75.344L141.297 75.956C141.789 75.38 142.413 74.936 143.133 74.936C144.225 74.936 144.741 75.68 144.741 76.688C144.741 78.188 143.481 79.952 140.721 82.364V83ZM151.625 83.168C153.281 83.168 154.349 81.644 154.349 78.572C154.349 75.524 153.281 74.048 151.625 74.048C149.945 74.048 148.877 75.524 148.877 78.572C148.877 81.644 149.945 83.168 151.625 83.168ZM151.625 82.28C150.617 82.28 149.933 81.164 149.933 78.572C149.933 76.016 150.617 74.924 151.625 74.924C152.621 74.924 153.293 76.016 153.293 78.572C153.293 81.164 152.621 82.28 151.625 82.28ZM159.709 72.884C159.121 74.504 158.125 76.064 156.985 77.06C157.213 77.18 157.585 77.48 157.765 77.636C158.881 76.556 159.949 74.888 160.609 73.112L159.709 72.884ZM159.517 74.372L159.085 75.248H167.257V74.372H159.517ZM158.929 77.096V80.78H159.829V77.936H166.993V77.096H158.929ZM156.949 80.324V81.2H167.821V80.324H156.949ZM162.529 74.828V83.972H163.453V74.828H162.529ZM176.581 74.816L175.585 74.792C175.465 76.04 175.213 77.396 174.865 78.536C174.253 80.564 173.605 81.38 173.041 81.38C172.501 81.38 171.817 80.708 171.817 79.196C171.817 77.432 173.461 75.26 176.101 75.26C178.405 75.26 179.737 76.844 179.737 78.764C179.737 80.84 178.225 81.992 176.689 82.34C176.401 82.4 176.041 82.448 175.657 82.484L176.209 83.372C179.065 83 180.721 81.32 180.721 78.812C180.721 76.376 178.933 74.396 176.125 74.396C173.185 74.396 170.869 76.664 170.869 79.268C170.869 81.26 171.937 82.484 173.017 82.484C174.121 82.484 175.081 81.212 175.813 78.752C176.185 77.468 176.425 76.064 176.581 74.816ZM228.419 75.848L227.903 74.984C227.651 75.188 227.387 75.344 227.039 75.548C226.259 75.992 224.579 76.796 223.355 77.612C221.939 78.548 221.063 79.568 221.063 80.864C221.063 82.664 222.695 83.336 224.951 83.336C226.451 83.336 227.843 83.204 228.743 83.048L228.755 81.968C227.819 82.208 226.211 82.376 224.915 82.376C223.019 82.376 222.059 81.752 222.059 80.756C222.059 79.856 222.731 79.064 223.847 78.332C225.023 77.564 226.691 76.772 227.495 76.352C227.855 76.172 228.155 76.004 228.419 75.848ZM222.347 73.664L221.399 74.072C222.047 75.56 222.767 77.18 223.379 78.164L224.195 77.672C223.643 76.7 222.899 75.2 222.347 73.664ZM237.707 78.068V82.82C237.707 83 237.647 83.048 237.431 83.06C237.191 83.072 236.375 83.084 235.535 83.048C235.667 83.3 235.823 83.672 235.883 83.924C236.939 83.924 237.635 83.912 238.067 83.78C238.499 83.648 238.643 83.384 238.643 82.844V78.068H237.707ZM233.867 73.58V74.408H241.439V73.58H233.867ZM241.103 73.58V73.772C240.431 74.552 239.027 75.608 237.911 76.196C238.079 76.34 238.355 76.616 238.475 76.808C239.711 76.124 241.199 75.032 242.195 74.024L241.547 73.52L241.343 73.58H241.103ZM232.739 77.408V78.272H242.783V77.408H232.739ZM235.511 75.8C236.939 76.412 238.895 77.324 239.879 77.864L240.371 77.096C239.339 76.568 237.371 75.704 235.979 75.14L235.511 75.8ZM242.471 77.408V77.576C241.991 78.476 241.247 79.52 240.635 80.168L241.391 80.612C242.123 79.892 242.891 78.728 243.539 77.672L242.819 77.348L242.651 77.408H242.471ZM248.927 80.612V82.532C248.927 83.468 249.275 83.708 250.583 83.708C250.859 83.708 252.803 83.708 253.091 83.708C254.183 83.708 254.459 83.348 254.579 81.836C254.327 81.776 253.955 81.656 253.751 81.5C253.703 82.724 253.607 82.892 253.019 82.892C252.587 82.892 250.967 82.892 250.643 82.892C249.935 82.892 249.815 82.844 249.815 82.52V80.612H248.927ZM250.511 80.192C251.075 80.744 251.795 81.524 252.155 81.98L252.803 81.44C252.431 80.984 251.699 80.252 251.135 79.724L250.511 80.192ZM254.735 80.588C255.227 81.38 255.851 82.448 256.139 83.072L256.967 82.652C256.667 82.04 256.019 81.008 255.527 80.24L254.735 80.588ZM247.223 80.468C246.995 81.272 246.587 82.292 246.095 82.928L246.887 83.336C247.379 82.664 247.763 81.584 248.015 80.78L247.223 80.468ZM246.191 74.72V75.5H251.159V74.72H246.191ZM248.399 72.956V79.952H249.251V72.956H248.399ZM248.363 75.2C247.859 76.52 246.875 77.924 245.927 78.608C246.107 78.752 246.371 79.04 246.515 79.244C247.475 78.44 248.459 76.904 248.987 75.416L248.363 75.2ZM249.179 76.136L248.699 76.58C249.179 76.94 250.343 77.936 250.763 78.356L251.255 77.636C250.919 77.372 249.575 76.376 249.179 76.136ZM252.515 76.124H255.515V77.252H252.515V76.124ZM252.515 77.948H255.515V79.088H252.515V77.948ZM252.515 74.3H255.515V75.404H252.515V74.3ZM251.687 73.556V79.832H256.379V73.556H251.687ZM264.587 80.108H265.367L265.607 75.452L265.643 74.024H264.311L264.347 75.452L264.587 80.108ZM264.983 83.06C265.403 83.06 265.751 82.76 265.751 82.28C265.751 81.8 265.403 81.476 264.983 81.476C264.551 81.476 264.203 81.8 264.203 82.28C264.203 82.76 264.551 83.06 264.983 83.06Z" fill="#333333"/>
<path d="M189.181 78.248C189.793 79.112 190.429 80.276 190.645 81.02L191.905 80.372C191.641 79.604 190.957 78.488 190.333 77.66L189.181 78.248ZM189.577 74.852V76.208H193.885V74.852H189.577ZM193.273 74.852V75.14C193.129 80.024 192.961 82.052 192.565 82.46C192.433 82.628 192.289 82.664 192.049 82.664C191.737 82.664 191.041 82.664 190.285 82.604C190.549 83.012 190.741 83.636 190.765 84.044C191.473 84.08 192.205 84.08 192.649 84.02C193.153 83.936 193.477 83.804 193.813 83.348C194.317 82.712 194.473 80.804 194.653 75.512C194.665 75.332 194.665 74.852 194.665 74.852H193.273ZM189.649 72.8C189.253 74.372 188.521 75.944 187.609 76.892C187.969 77.096 188.605 77.528 188.893 77.768C189.805 76.676 190.633 74.912 191.137 73.124L189.649 72.8ZM185.425 72.824C185.149 73.664 184.633 74.816 184.201 75.536L185.173 75.932C185.641 75.272 186.205 74.204 186.697 73.268L185.425 72.824ZM186.865 74.24C186.229 75.524 185.137 77.288 184.213 78.368L185.089 78.812C186.013 77.792 187.189 76.124 188.077 74.744L186.865 74.24ZM183.577 75.668C184.189 76.244 184.921 77.072 185.221 77.648L185.953 76.52C185.641 75.992 184.897 75.224 184.249 74.672L183.577 75.668ZM186.565 77.132C187.021 77.96 187.465 79.052 187.609 79.736L188.701 79.232C188.545 78.536 188.065 77.492 187.585 76.688L186.565 77.132ZM183.565 78.104L183.685 79.352C184.873 79.28 186.433 79.172 187.945 79.052V77.912C186.337 77.996 184.681 78.068 183.565 78.104ZM186.781 80.144C187.069 80.876 187.381 81.848 187.489 82.472L188.617 82.064C188.473 81.452 188.149 80.516 187.837 79.796L186.781 80.144ZM184.081 79.868C183.985 80.888 183.793 81.956 183.445 82.664C183.745 82.784 184.285 83.036 184.537 83.192C184.885 82.424 185.149 81.224 185.269 80.072L184.081 79.868ZM185.473 78.74V84.092H186.757V78.74H185.473ZM199.981 83.168C201.685 83.168 203.113 82.232 203.113 80.6C203.113 79.424 202.345 78.692 201.337 78.404V78.344C202.285 77.984 202.813 77.276 202.813 76.328C202.813 74.804 201.649 73.964 199.933 73.964C198.901 73.964 198.049 74.384 197.281 75.044L198.181 76.136C198.709 75.644 199.225 75.344 199.861 75.344C200.617 75.344 201.049 75.764 201.049 76.46C201.049 77.252 200.521 77.804 198.889 77.804V79.076C200.821 79.076 201.337 79.616 201.337 80.492C201.337 81.284 200.725 81.74 199.813 81.74C199.009 81.74 198.373 81.332 197.845 80.816L197.005 81.932C197.629 82.652 198.577 83.168 199.981 83.168ZM212.171 72.824V74.684H213.647V72.824H212.171ZM209.291 74.012V75.308H216.659V74.012H209.291ZM210.563 82.244V83.576H215.327V82.244H210.563ZM208.847 77.132V78.452H216.899V77.132H208.847ZM210.215 75.476C210.455 76.064 210.683 76.832 210.719 77.3L212.051 76.964C211.991 76.484 211.739 75.74 211.463 75.188L210.215 75.476ZM214.223 75.224C214.103 75.764 213.863 76.508 213.647 77L214.919 77.252C215.135 76.808 215.399 76.16 215.663 75.476L214.223 75.224ZM209.843 79.328V84.08H211.247V80.636H214.703V84.02H216.167V79.328H209.843ZM208.067 72.86C207.455 74.576 206.411 76.28 205.319 77.372C205.571 77.72 205.955 78.512 206.087 78.86C207.395 77.492 208.643 75.332 209.423 73.28L208.067 72.86ZM206.903 76.172V84.068H208.283V74.816L208.271 74.804L206.903 76.172Z" fill="#32A2DB"/>
<g clip-path="url(#clip0_465_579)">
<path d="M295.848 249.656L284.356 252.562L295.931 245.852C295.682 235.155 291.721 224.062 291.721 224.062C291.721 224.062 266.983 230.818 260.491 242.517C253.998 254.216 259.109 261.939 268.21 266.427C277.31 270.915 286.955 270.469 293.448 258.77C294.893 256.167 295.608 253.002 295.848 249.656Z" fill="#F2F2F2"/>
<path d="M282.359 251.976L282.028 252.543C278.144 259.109 273.903 263.665 269.357 266.143C269.291 266.18 269.224 266.213 269.159 266.25L268.973 265.974L268.798 265.706C273.78 263.065 277.96 257.991 281.35 252.264C281.461 252.081 281.574 251.894 281.68 251.705C283.091 249.269 284.362 246.732 285.492 244.219C285.581 244.025 285.669 243.827 285.757 243.628C287.228 240.303 288.456 237.042 289.439 234.171C289.51 233.968 289.577 233.764 289.643 233.563C291.285 228.696 292.197 225.041 292.392 224.229C292.418 224.13 292.43 224.075 292.433 224.062L292.775 224.126L292.78 224.125L293.125 224.19C293.121 224.203 293.081 224.387 292.995 224.726C292.681 225.993 291.791 229.415 290.323 233.792C290.255 233.989 290.188 234.193 290.117 234.396C289.322 236.727 288.371 239.303 287.261 241.954C286.983 242.621 286.701 243.274 286.415 243.915C286.33 244.115 286.242 244.313 286.153 244.507C284.932 247.224 283.668 249.714 282.359 251.976Z" fill="white"/>
<path d="M290.414 233.71C290.191 233.636 289.966 233.561 289.741 233.479C289.13 233.256 288.531 233.005 287.948 232.726C285.461 231.542 283.296 229.863 281.614 227.812C281.398 227.9 281.182 227.988 280.961 228.077C282.718 230.256 284.997 232.04 287.624 233.292C288.247 233.589 288.886 233.856 289.54 234.092C289.762 234.173 289.987 234.248 290.211 234.319C292.051 234.913 293.98 235.248 295.931 235.312C295.887 235.093 295.845 234.879 295.804 234.668C293.965 234.593 292.149 234.27 290.414 233.71V233.71Z" fill="white"/>
<path d="M286.079 244.308C285.855 244.216 285.635 244.118 285.417 244.014C285.35 243.986 285.28 243.953 285.214 243.921C282.475 242.614 280.122 240.722 278.358 238.407C276.593 236.092 275.469 233.422 275.08 230.625C274.857 230.734 274.634 230.844 274.412 230.957C274.853 233.81 276.033 236.526 277.854 238.881C279.675 241.235 282.085 243.16 284.885 244.495C284.973 244.537 285.061 244.58 285.151 244.619C285.373 244.721 285.594 244.819 285.816 244.914C289.268 246.361 293.105 246.871 296.867 246.382C296.863 246.165 296.86 245.947 296.853 245.728C293.187 246.221 289.442 245.727 286.079 244.308V244.308Z" fill="white"/>
<path d="M281.855 252.117C281.63 252.033 281.408 251.943 281.188 251.851C280.952 251.752 280.718 251.65 280.487 251.542C276.891 249.862 274.004 247.191 272.256 243.927C270.508 240.663 269.994 236.983 270.792 233.438C270.523 233.595 270.256 233.75 269.993 233.91C269.327 237.508 269.952 241.201 271.778 244.465C273.604 247.729 276.539 250.397 280.165 252.091C280.396 252.198 280.628 252.303 280.863 252.398C281.084 252.494 281.306 252.584 281.53 252.671C286.06 254.395 291.157 254.522 295.788 253.025C295.842 252.793 295.886 252.558 295.931 252.321C291.388 253.885 286.339 253.812 281.855 252.117V252.117Z" fill="white"/>
<path d="M145.379 250.464L156.872 253.249L145.296 246.819C145.545 236.567 149.506 225.938 149.506 225.938C149.506 225.938 174.244 232.412 180.737 243.623C187.23 254.834 182.119 262.236 173.018 266.537C163.917 270.838 154.272 270.41 147.78 259.199C146.335 256.704 145.62 253.671 145.379 250.464Z" fill="#F2F2F2"/>
<path d="M158.454 252.611L158.772 253.152C162.507 259.427 166.585 263.78 170.957 266.148C171.02 266.183 171.084 266.215 171.147 266.25L171.326 265.986L171.494 265.73C166.704 263.206 162.684 258.358 159.425 252.886C159.318 252.71 159.21 252.532 159.107 252.351C157.75 250.024 156.528 247.6 155.442 245.198C155.356 245.012 155.272 244.823 155.188 244.634C153.772 241.457 152.592 238.341 151.647 235.597C151.579 235.403 151.514 235.208 151.451 235.016C149.871 230.365 148.995 226.872 148.808 226.096C148.783 226.002 148.771 225.95 148.768 225.938L148.439 225.998L148.435 225.997L148.103 226.059C148.106 226.071 148.145 226.248 148.228 226.571C148.529 227.782 149.386 231.052 150.797 235.235C150.862 235.423 150.927 235.618 150.995 235.812C151.759 238.039 152.673 240.501 153.741 243.034C154.008 243.671 154.279 244.296 154.555 244.908C154.636 245.099 154.721 245.288 154.807 245.473C155.98 248.07 157.196 250.449 158.454 252.611Z" fill="white"/>
<path d="M145.424 235.686C145.383 235.87 145.34 236.058 145.296 236.25C147.247 236.193 149.176 235.9 151.017 235.38C151.241 235.318 151.466 235.253 151.688 235.182C152.341 234.976 152.981 234.742 153.603 234.482C156.23 233.386 158.509 231.826 160.266 229.919C160.046 229.841 159.83 229.764 159.614 229.688C157.931 231.481 155.767 232.951 153.279 233.987C152.696 234.231 152.098 234.451 151.486 234.645C151.261 234.717 151.036 234.783 150.814 234.848C149.079 235.338 147.262 235.62 145.424 235.686V235.686Z" fill="white"/>
<path d="M144.374 245.777C144.368 245.983 144.364 246.188 144.36 246.393C148.122 246.853 151.959 246.373 155.412 245.011C155.634 244.922 155.854 244.829 156.077 244.733C156.166 244.696 156.255 244.657 156.343 244.617C159.142 243.36 161.552 241.548 163.373 239.333C165.195 237.117 166.375 234.56 166.815 231.875C166.594 231.768 166.371 231.665 166.147 231.562C165.759 234.195 164.634 236.708 162.87 238.887C161.105 241.066 158.753 242.846 156.013 244.076C155.947 244.106 155.878 244.137 155.81 244.164C155.593 244.262 155.372 244.354 155.148 244.441C151.785 245.777 148.041 246.241 144.374 245.777V245.777Z" fill="white"/>
<path d="M144.36 253.258C144.406 253.496 144.449 253.73 144.504 253.963C149.135 255.459 154.232 255.332 158.762 253.608C158.986 253.521 159.207 253.432 159.429 253.336C159.663 253.24 159.896 253.136 160.127 253.028C163.753 251.334 166.687 248.666 168.514 245.402C170.34 242.139 170.964 238.446 170.299 234.848C170.036 234.687 169.769 234.533 169.5 234.375C170.297 237.92 169.784 241.601 168.036 244.864C166.288 248.128 163.4 250.8 159.805 252.48C159.574 252.587 159.34 252.69 159.104 252.789C158.884 252.881 158.662 252.97 158.437 253.054C153.953 254.75 148.904 254.823 144.36 253.258V253.258Z" fill="white"/>
<path d="M198.677 258.679L205.685 260.375L198.627 256.46C198.778 250.22 201.194 243.75 201.194 243.75C201.194 243.75 216.278 247.691 220.237 254.515C224.196 261.339 221.079 265.845 215.53 268.463C209.981 271.081 204.1 270.82 200.141 263.996C199.26 262.477 198.824 260.631 198.677 258.679Z" fill="#F2F2F2"/>
<path d="M206.709 260.498L206.899 260.838C209.14 264.778 211.587 267.512 214.21 268.998C214.248 269.02 214.286 269.04 214.324 269.063L214.431 268.897L214.532 268.736C211.658 267.151 209.246 264.107 207.291 260.671C207.227 260.561 207.162 260.449 207.1 260.335C206.286 258.874 205.553 257.352 204.901 255.844C204.85 255.727 204.799 255.608 204.749 255.49C203.899 253.495 203.191 251.538 202.624 249.815C202.583 249.694 202.544 249.571 202.506 249.45C201.559 246.53 201.033 244.337 200.92 243.85C200.906 243.791 200.899 243.758 200.897 243.75L200.7 243.788L200.697 243.787L200.498 243.826C200.5 243.834 200.523 243.945 200.573 244.148C200.754 244.908 201.267 246.962 202.114 249.588C202.153 249.706 202.192 249.828 202.233 249.95C202.692 251.349 203.24 252.894 203.881 254.485C204.041 254.885 204.204 255.277 204.369 255.662C204.418 255.781 204.468 255.9 204.52 256.017C205.224 257.647 205.954 259.141 206.709 260.498Z" fill="white"/>
<path d="M199.634 249.91C199.611 250.041 199.587 250.176 199.562 250.312C200.66 250.272 201.745 250.063 202.78 249.691C202.906 249.647 203.033 249.6 203.157 249.55C203.525 249.402 203.885 249.235 204.235 249.05C205.713 248.267 206.995 247.152 207.983 245.79C207.859 245.735 207.737 245.68 207.616 245.625C206.67 246.906 205.452 247.956 204.053 248.696C203.725 248.87 203.388 249.027 203.044 249.166C202.918 249.218 202.791 249.265 202.666 249.311C201.69 249.661 200.668 249.863 199.634 249.91V249.91Z" fill="white"/>
<path d="M198.635 256.384C198.631 256.513 198.629 256.641 198.627 256.769C200.821 257.056 203.059 256.757 205.073 255.905C205.203 255.849 205.331 255.792 205.461 255.732C205.513 255.709 205.565 255.684 205.616 255.659C207.249 254.873 208.655 253.741 209.717 252.356C210.78 250.971 211.468 249.374 211.725 247.696C211.596 247.629 211.466 247.564 211.336 247.5C211.109 249.145 210.453 250.716 209.424 252.078C208.394 253.44 207.022 254.552 205.424 255.321C205.385 255.34 205.345 255.359 205.305 255.376C205.179 255.437 205.05 255.495 204.919 255.549C202.958 256.384 200.773 256.674 198.635 256.384V256.384Z" fill="white"/>
<path d="M198.627 260.533C198.654 260.673 198.681 260.812 198.714 260.95C201.526 261.834 204.62 261.759 207.37 260.74C207.506 260.689 207.641 260.636 207.775 260.579C207.918 260.523 208.059 260.461 208.199 260.397C210.401 259.396 212.182 257.82 213.291 255.891C214.4 253.963 214.779 251.78 214.375 249.654C214.215 249.56 214.053 249.468 213.89 249.375C214.374 251.47 214.062 253.645 213.001 255.573C211.94 257.502 210.187 259.081 208.003 260.073C207.863 260.137 207.721 260.197 207.578 260.256C207.444 260.31 207.31 260.363 207.173 260.413C204.451 261.415 201.385 261.458 198.627 260.533V260.533Z" fill="white"/>
<path d="M120.034 210.938H118.163V211.875H120.034V210.938Z" fill="#F0F0F0"/>
<path d="M324 211.875H319.76V210.938H324V211.875ZM315.52 211.875H311.279V210.938H315.52V211.875ZM307.039 211.875H302.799V210.938H307.039V211.875ZM298.559 211.875H294.319V210.938H298.559V211.875ZM290.079 211.875H285.839V210.938H290.079V211.875ZM281.598 211.875H277.358V210.938H281.598L281.598 211.875ZM273.118 211.875H268.878V210.938H273.118V211.875ZM264.638 211.875H260.398V210.938H264.638V211.875ZM256.157 211.875H251.917V210.938H256.157V211.875ZM247.677 211.875H243.437V210.938H247.677L247.677 211.875ZM239.197 211.875H234.957V210.938H239.197L239.197 211.875ZM230.717 211.875H226.476V210.938H230.717L230.717 211.875ZM222.236 211.875H217.996V210.938H222.236L222.236 211.875ZM213.756 211.875H209.516V210.938H213.756L213.756 211.875ZM205.275 211.875H201.035V210.938H205.275L205.275 211.875ZM196.795 211.875H192.555V210.938H196.795L196.795 211.875ZM188.315 211.875H184.075V210.938H188.315L188.315 211.875ZM179.835 211.875H175.594V210.938H179.835L179.835 211.875ZM171.354 211.875H167.114V210.938H171.354L171.354 211.875ZM162.874 211.875H158.634V210.938H162.874L162.874 211.875ZM154.393 211.875H150.153V210.938H154.394L154.393 211.875ZM145.913 211.875H141.673V210.938H145.913L145.913 211.875ZM137.433 211.875H133.193V210.938H137.433L137.433 211.875ZM128.953 211.875H124.712V210.938H128.953L128.953 211.875Z" fill="#F0F0F0"/>
<path d="M120.034 168.75H118.163V169.688H120.034V168.75Z" fill="#F0F0F0"/>
<path d="M324 169.688H319.76V168.75H324V169.688ZM315.52 169.688H311.279V168.75H315.52V169.688ZM307.039 169.688H302.799V168.75H307.039V169.688ZM298.559 169.688H294.319V168.75H298.559V169.688ZM290.079 169.688H285.839V168.75H290.079V169.688ZM281.598 169.688H277.358V168.75H281.598L281.598 169.688ZM273.118 169.688H268.878V168.75H273.118V169.688ZM264.638 169.688H260.398V168.75H264.638V169.688ZM256.157 169.688H251.917V168.75H256.157V169.688ZM247.677 169.688H243.437V168.75H247.677L247.677 169.688ZM239.197 169.688H234.957V168.75H239.197L239.197 169.688ZM230.717 169.688H226.476V168.75H230.717L230.717 169.688ZM222.236 169.688H217.996V168.75H222.236L222.236 169.688ZM213.756 169.688H209.516V168.75H213.756L213.756 169.688ZM205.275 169.688H201.035V168.75H205.275L205.275 169.688ZM196.795 169.688H192.555V168.75H196.795L196.795 169.688ZM188.315 169.688H184.075V168.75H188.315L188.315 169.688ZM179.835 169.688H175.594V168.75H179.835L179.835 169.688ZM171.354 169.688H167.114V168.75H171.354L171.354 169.688ZM162.874 169.688H158.634V168.75H162.874L162.874 169.688ZM154.393 169.688H150.153V168.75H154.394L154.393 169.688ZM145.913 169.688H141.673V168.75H145.913L145.913 169.688ZM137.433 169.688H133.193V168.75H137.433L137.433 169.688ZM128.953 169.688H124.712V168.75H128.953L128.953 169.688Z" fill="#F0F0F0"/>
<path d="M188.335 210.938H170.558V270H188.335V210.938Z" fill="#3F3D56"/>
<path d="M191.142 210.938H173.365V270H191.142V210.938Z" fill="#32A2DB"/>
<path d="M229.502 168.75H211.725V270H229.502V168.75Z" fill="#3F3D56"/>
<path d="M233.245 168.75H215.468V270H233.245V168.75Z" fill="#32A2DB"/>
<path d="M270.67 128.438H253.828V270H270.67V128.438Z" fill="#3F3D56"/>
<path d="M274.412 128.438H257.571V270H274.412V128.438Z" fill="#32A2DB"/>
<path d="M117.695 173.438C120.021 173.438 121.906 171.759 121.906 169.688C121.906 167.616 120.021 165.938 117.695 165.938C115.37 165.938 113.485 167.616 113.485 169.688C113.485 171.759 115.37 173.438 117.695 173.438Z" fill="#F0F0F0"/>
<path d="M117.695 215.625C120.021 215.625 121.906 213.736 121.906 211.406C121.906 209.076 120.021 207.188 117.695 207.188C115.37 207.188 113.485 209.076 113.485 211.406C113.485 213.736 115.37 215.625 117.695 215.625Z" fill="#F0F0F0"/>
<path d="M348.326 269.062H106V270H348.326V269.062Z" fill="#3F3D56"/>
</g>
<defs>
<clipPath id="clip0_465_579">
<rect width="218" height="135" fill="white" transform="translate(106 135)"/>
</clipPath>
</defs>
</svg>
