<svg width="187" height="85" viewBox="0 0 187 85" fill="none" xmlns="http://www.w3.org/2000/svg">
<circle cx="42.5" cy="42.5" r="42" stroke="#264B8D"/>
<path d="M40.8288 52V36.64L42.5088 38.32H37.4688V35.2H44.7168V52H40.8288Z" fill="#264B8D"/>
<rect x="58" y="40" width="129" height="42" rx="20" fill="#F9F9F9"/>
<path d="M79.86 49.624V69.424C79.86 69.832 79.716 69.976 79.26 70C78.852 70 77.436 70.024 76.284 69.976C76.644 70.552 77.1 71.56 77.244 72.232C79.284 72.232 80.58 72.184 81.516 71.824C82.428 71.416 82.788 70.84 82.788 69.424V49.624H79.86ZM70.86 51.184V53.464H91.98V51.184H70.86ZM76.068 56.248H86.676V57.4H76.068V56.248ZM73.332 54.424V59.224H89.628V54.424H73.332ZM72.732 60.28V62.248H87.108V69.664H90.036V60.28H72.732ZM70.308 63.256V65.44H92.532V63.256H70.308ZM72.54 66.568V68.656H88.668V66.568H72.54ZM95.22 53.176V55.792H117.06V53.176H95.22ZM98.052 61.36V63.472H104.292V61.36H98.052ZM98.052 65.032V67.168H104.292V65.032H98.052ZM108.108 57.688V67.528H110.772V57.688H108.108ZM103.284 57.448V69.28C103.284 69.568 103.188 69.664 102.876 69.664C102.588 69.688 101.604 69.688 100.716 69.64C101.076 70.312 101.484 71.368 101.628 72.088C103.116 72.088 104.22 72.064 105.012 71.632C105.828 71.224 106.068 70.552 106.068 69.328V57.448H103.284ZM112.932 57.04V68.968C112.932 69.304 112.812 69.4 112.428 69.4C112.02 69.424 110.772 69.424 109.548 69.352C109.956 70.096 110.412 71.32 110.556 72.088C112.332 72.112 113.628 72.016 114.54 71.584C115.5 71.152 115.764 70.408 115.764 69.016V57.04H112.932ZM98.532 50.56C99.372 51.52 100.26 52.888 100.596 53.752L103.5 52.72C103.092 51.808 102.132 50.536 101.268 49.6L98.532 50.56ZM110.844 49.552C110.316 50.848 109.332 52.6 108.516 53.728L111.108 54.616C111.948 53.56 113.004 52.024 113.988 50.488L110.844 49.552ZM96.54 57.448V72.016H99.252V59.848H104.1V57.448H96.54ZM124.452 57.832V60.304H135.516V57.832H124.452ZM120.156 63.208V65.872H141.636V63.208H120.156ZM129.396 61.672V68.992C129.396 69.328 129.252 69.448 128.772 69.448C128.292 69.448 126.492 69.448 124.956 69.4C125.412 70.144 125.94 71.368 126.132 72.184C128.172 72.184 129.708 72.136 130.836 71.752C131.988 71.32 132.348 70.576 132.348 69.088V61.672H129.396ZM134.58 57.832V58.36C133.692 59.536 131.652 61.24 129.804 62.2C130.236 62.584 131.004 63.376 131.34 63.856C133.692 62.728 136.068 60.856 137.724 59.08L135.9 57.688L135.3 57.832H134.58ZM120.444 53.44V59.32H123.156V55.984H138.516V59.32H141.372V53.44H120.444ZM137.076 49.792C136.5 51.136 135.42 52.936 134.508 54.112L136.86 54.976C137.844 53.92 139.092 52.288 140.196 50.704L137.076 49.792ZM122.052 50.968C122.868 51.976 123.756 53.344 124.092 54.232L126.708 53.032C126.324 52.096 125.364 50.8 124.5 49.864L122.052 50.968ZM128.1 50.44C128.82 51.544 129.564 53.056 129.804 54.016L132.54 52.96C132.228 52 131.412 50.536 130.644 49.48L128.1 50.44ZM147.66 62.056V72.208H150.516V64.24H160.812V72.208H163.812V62.056H147.66ZM149.1 65.608V67.768H161.58V65.608H149.1ZM149.244 69.184V71.344H161.7V69.184H149.244ZM154.044 59.872C153.828 60.784 153.348 62.056 152.916 62.992L155.268 63.496C155.82 62.728 156.516 61.528 157.14 60.304L154.044 59.872ZM145.044 50.704V52.912H152.796V50.704H145.044ZM152.148 50.704V58.648C152.148 58.888 152.052 58.984 151.764 58.984C151.5 58.984 150.588 58.984 149.748 58.96C150.036 59.536 150.372 60.376 150.468 61C151.932 61 152.988 61 153.756 60.664C154.5 60.328 154.74 59.776 154.74 58.648V50.704H152.148ZM156.012 50.704V52.912H164.292V50.704H156.012ZM162.948 50.704V58.552C162.948 58.84 162.852 58.888 162.54 58.912C162.252 58.936 161.172 58.936 160.284 58.888C160.596 59.488 160.908 60.4 161.028 61.048C162.612 61.072 163.764 61.048 164.58 60.712C165.396 60.328 165.636 59.752 165.636 58.576V50.704H162.948ZM155.316 57.76L156.276 59.896C158.076 59.272 160.308 58.432 162.372 57.64L161.94 55.576C159.516 56.44 157.02 57.256 155.316 57.76ZM156.444 54.328C157.524 54.928 158.94 55.84 159.588 56.512L161.028 54.64C160.332 53.992 158.892 53.152 157.812 52.648L156.444 54.328ZM144.396 58.168L145.428 60.52C147.108 59.848 149.148 58.984 151.092 58.144L150.684 56.08C148.356 56.896 146.004 57.712 144.396 58.168ZM145.668 54.352C146.748 54.952 148.092 55.888 148.716 56.536L150.156 54.712C149.508 54.064 148.116 53.224 147.06 52.696L145.668 54.352Z" fill="#264B8D"/>
</svg>
