<svg width="149" height="29" viewBox="0 0 149 29" fill="none" xmlns="http://www.w3.org/2000/svg">
<path d="M60.2055 10.6475H52.0798C51.8359 10.6475 51.6734 10.8068 51.6734 11.0461V23.5265C51.6734 23.7656 51.8359 23.9251 52.0798 23.9251H54.0298C54.2736 23.9251 54.4362 23.7656 54.4362 23.5265V18.6618H59.3118C59.5556 18.6618 59.7179 18.5023 59.7179 18.2632V16.5485C59.7179 16.3094 59.5556 16.1499 59.3118 16.1499H54.4362V13.1595H60.2462C60.49 13.1595 60.6525 12.9997 60.6525 12.7606V11.0461C60.6119 10.8468 60.4087 10.6475 60.2055 10.6475ZM81.4952 18.2635C82.1048 18.0241 82.633 17.6255 83.0798 17.1071C83.6081 16.4691 83.8519 15.6716 83.8519 14.7146C83.8519 13.9572 83.6893 13.2393 83.3236 12.6414C82.9579 12.0432 82.4299 11.5249 81.7797 11.2059C81.1297 10.8471 80.3577 10.6873 79.5045 10.6873H74.5477C74.3038 10.6873 74.1413 10.8471 74.1413 11.0862V23.5665C74.1413 23.8056 74.3038 23.9651 74.5477 23.9651H76.498C76.7418 23.9651 76.9043 23.8056 76.9043 23.5665V18.7019H78.6512L81.211 23.726C81.2923 23.8455 81.414 23.9651 81.5765 23.9651H83.8112C83.9332 23.9651 84.0957 23.8855 84.177 23.7661C84.2168 23.7069 84.238 23.6375 84.238 23.5666C84.238 23.4958 84.2168 23.4264 84.177 23.3672L81.4952 18.2635ZM76.9043 13.1597H79.342C79.9109 13.1597 80.317 13.2791 80.6421 13.5981C80.9672 13.8773 81.0891 14.2361 81.0891 14.7545C81.0891 15.233 80.9266 15.592 80.6421 15.871C80.317 16.1501 79.9109 16.3096 79.342 16.3096H76.9043V13.1597ZM99.4535 10.6478H90.515C90.2712 10.6478 90.1086 10.807 90.1086 11.0464V12.7608C90.1086 13.0002 90.2712 13.1597 90.515 13.1597H93.6029V23.5267C93.6029 23.7658 93.7654 23.9253 94.0092 23.9253H95.9186C96.1624 23.9253 96.325 23.7658 96.325 23.5267V13.1597H99.4128C99.6567 13.1597 99.8192 13 99.8192 12.7608V11.0464C99.8599 10.8471 99.6567 10.6475 99.4535 10.6475V10.6478ZM110.18 10.6478H102.054C101.81 10.6478 101.647 10.807 101.647 11.0464V23.5267C101.647 23.7658 101.81 23.9253 102.054 23.9253H110.18C110.423 23.9253 110.586 23.7658 110.586 23.5267V21.812C110.586 21.5729 110.423 21.4134 110.18 21.4134H104.37V18.4628H109.245C109.489 18.4628 109.651 18.3033 109.651 18.0639V16.3893C109.651 16.1501 109.489 15.9906 109.245 15.9906H104.37V13.1595H110.18C110.423 13.1595 110.586 13.0002 110.586 12.7608V11.0464C110.586 10.8471 110.383 10.6475 110.18 10.6475V10.6478ZM118.874 10.9267C118.834 10.7672 118.671 10.6475 118.509 10.6475H116.965C116.802 10.6475 116.64 10.7672 116.599 10.9267L111.927 23.407C111.886 23.5267 111.886 23.6461 111.967 23.7658C112.049 23.8855 112.17 23.9256 112.292 23.9256H114.365C114.527 23.9256 114.689 23.8056 114.73 23.6461L115.502 21.4134H119.931L120.703 23.6461C120.743 23.8059 120.906 23.9253 121.068 23.9253H123.14C123.262 23.9253 123.384 23.8457 123.465 23.7658C123.547 23.6461 123.547 23.5267 123.506 23.407L118.874 10.9267ZM119.118 19.0209H116.355L117.777 15.1133L119.118 19.0209ZM136.792 10.6478H134.842C134.679 10.6478 134.557 10.7274 134.476 10.8869L131.226 17.8646L127.894 10.8869C127.813 10.7274 127.691 10.6475 127.528 10.6475H125.578C125.334 10.6475 125.172 10.8073 125.172 11.0464V23.5267C125.172 23.7658 125.334 23.9253 125.578 23.9253H127.528C127.772 23.9253 127.935 23.7658 127.935 23.5267V16.9476L130.169 21.4532C130.251 21.5729 130.372 21.6926 130.535 21.6926H131.957C132.119 21.6926 132.241 21.6127 132.323 21.4532L134.476 16.9875V23.5665C134.476 23.8056 134.639 23.9651 134.882 23.9651H136.832C137.076 23.9651 137.239 23.8056 137.239 23.5665V11.0862C137.198 10.8471 137.036 10.6475 136.792 10.6475V10.6478ZM147.721 17.147C147.437 16.8678 147.071 16.6685 146.665 16.509C146.259 16.3495 145.771 16.2298 145.161 16.1501L143.699 15.9508C143.455 15.9108 143.211 15.871 142.968 15.7513C142.764 15.6716 142.561 15.5522 142.48 15.4723C142.236 15.2728 142.155 14.9938 142.155 14.595C142.155 14.2762 142.236 14.0368 142.358 13.7977C142.521 13.5583 142.724 13.3988 142.968 13.2791C143.252 13.1597 143.617 13.0801 144.024 13.0801C144.39 13.0801 144.715 13.1196 144.999 13.1597C145.283 13.1995 145.568 13.3192 145.812 13.4386C146.083 13.5708 146.33 13.7461 146.543 13.9572C146.705 14.1167 146.949 14.1167 147.112 13.9572L148.371 12.7608C148.452 12.6812 148.493 12.5618 148.493 12.4819C148.493 12.3622 148.452 12.2823 148.371 12.2027C147.802 11.6841 147.152 11.2855 146.502 11.0464C145.852 10.807 145.039 10.6876 144.146 10.6876C143.211 10.6876 142.399 10.8471 141.708 11.1661C141.017 11.4851 140.449 12.0034 140.083 12.6013C139.717 13.1995 139.514 13.9171 139.514 14.7149C139.514 15.8311 139.88 16.7481 140.57 17.3863C141.22 17.9843 142.074 18.3431 143.211 18.5026L144.715 18.7019C145.039 18.742 145.324 18.8216 145.486 18.8616C145.649 18.9015 145.771 18.9811 145.893 19.1406C146.137 19.3399 146.259 19.6987 146.259 20.1374C146.259 20.6159 146.096 20.9747 145.73 21.2138C145.324 21.493 144.755 21.6525 144.024 21.6525C143.617 21.6525 143.211 21.6127 142.886 21.5331C142.549 21.4488 142.222 21.3285 141.911 21.1743C141.599 21.0005 141.311 20.7859 141.058 20.5363C140.977 20.4564 140.895 20.4166 140.773 20.4166C140.651 20.4166 140.57 20.4564 140.489 20.5363L139.189 21.7722C139.108 21.8521 139.067 21.9317 139.067 22.0514C139.067 22.1708 139.108 22.2505 139.189 22.3303C139.839 22.9683 140.53 23.4068 141.302 23.6862C142.074 23.9651 142.968 24.0848 143.983 24.0848C144.674 24.0848 145.365 24.005 145.933 23.8056C146.514 23.6541 147.054 23.3821 147.518 23.0081C147.965 22.6493 148.331 22.2109 148.574 21.6926C148.818 21.174 148.94 20.6159 148.94 20.0177C148.899 18.742 148.493 17.785 147.721 17.147ZM67.2406 10.5696C66.5566 10.5517 65.8761 10.6731 65.2417 10.9265C64.6065 11.1805 64.0318 11.5605 63.5538 12.0427C62.2088 13.3708 62.2088 15.0361 62.2088 17.1433V17.5095C62.2088 19.6164 62.2088 21.2944 63.5538 22.61C64.0316 23.0925 64.6062 23.4727 65.2414 23.7268C65.8754 23.9801 66.5562 24.1015 67.2406 24.0831C67.9219 24.1003 68.5995 23.9784 69.2306 23.725C69.8625 23.471 70.4339 23.0913 70.9085 22.61C72.2728 21.263 72.2424 19.8022 72.2424 17.5721V17.3954C72.2424 15.1622 72.2728 13.3959 70.9085 12.0491C70.4343 11.5667 69.8631 11.186 69.2311 10.9309C68.6004 10.6764 67.9225 10.5533 67.2406 10.5696ZM65.7679 13.8628C65.9555 13.6648 66.184 13.5082 66.4382 13.4035C66.6919 13.2992 66.9656 13.2493 67.2406 13.2573C67.5126 13.2483 67.7832 13.2978 68.0336 13.4023C68.2843 13.5072 68.5088 13.6643 68.6913 13.8628C69.1352 14.3487 69.2727 14.8879 69.2727 17.3325C69.2727 19.7774 69.1352 20.3008 68.6847 20.8027C68.5029 21.0021 68.2787 21.1601 68.0278 21.2654C67.7775 21.3706 67.5066 21.4203 67.2344 21.4112C66.9582 21.419 66.6836 21.3685 66.4292 21.263C66.1742 21.1572 65.9454 20.999 65.7582 20.7992C65.3302 20.3293 65.196 19.7899 65.196 17.3453C65.196 14.9007 65.3365 14.3548 65.7679 13.8628Z" fill="#2F3337"/>
<path d="M37.6398 10.2803H38.4465V23.7176H37.6398V10.2803Z" fill="#D6D9DC"/>
<path d="M21.076 18.6348V26.2534H2.75926V18.6348H0V28.9568H23.83V18.6348H21.076Z" fill="#BCBBBB"/>
<path d="M5.28197 23.796H18.5623V21.3383H5.28197V23.796ZM5.54737 17.9186L18.4479 20.5713L18.9787 18.0486L6.0784 15.3958L5.54737 17.9186ZM7.24632 11.859L19.1912 17.3204L20.3059 14.9797L8.36106 9.51839L7.24632 11.859ZM10.5642 6.11163L20.704 14.3815L22.4029 12.4051L12.2363 4.1352L10.5642 6.11163ZM17.0941 0L14.9702 1.5343L22.8274 11.9109L24.9507 10.3766L17.0941 0Z" fill="#F48024"/>
</svg>
