<svg width="220" height="88" viewBox="0 0 220 88" fill="none" xmlns="http://www.w3.org/2000/svg">
<circle cx="42.5" cy="42.5" r="42" stroke="#264B8D"/>
<path d="M36.2139 52V49.48L42.6939 43.36C43.2059 42.896 43.5819 42.48 43.8219 42.112C44.0619 41.744 44.2219 41.408 44.3019 41.104C44.3979 40.8 44.4459 40.52 44.4459 40.264C44.4459 39.592 44.2139 39.08 43.7499 38.728C43.3019 38.36 42.6379 38.176 41.7579 38.176C41.0539 38.176 40.3979 38.312 39.7899 38.584C39.1979 38.856 38.6939 39.28 38.2779 39.856L35.4459 38.032C36.0859 37.072 36.9819 36.312 38.1339 35.752C39.2859 35.192 40.6139 34.912 42.1179 34.912C43.3659 34.912 44.4539 35.12 45.3819 35.536C46.3259 35.936 47.0539 36.504 47.5659 37.24C48.0939 37.976 48.3579 38.856 48.3579 39.88C48.3579 40.424 48.2859 40.968 48.1419 41.512C48.0139 42.04 47.7419 42.6 47.3259 43.192C46.9259 43.784 46.3339 44.448 45.5499 45.184L40.1739 50.248L39.4299 48.832H48.9099V52H36.2139Z" fill="#264B8D"/>
<rect x="66" y="33" width="154" height="55" rx="20" fill="#F9F9F9"/>
<path d="M72.3338 68.776V71.296H84.3818V68.776H72.3338ZM74.8538 49.36C73.1978 52.288 70.2698 54.952 67.1738 56.536C67.7978 57.016 68.8538 58.12 69.3098 58.672C72.4058 56.776 75.5978 53.704 77.5898 50.32L74.8538 49.36ZM83.5898 51.928V52.36C80.8058 56.944 73.5098 60.184 66.6938 61.408C67.2218 62.056 67.8458 63.232 68.1098 64C75.5018 62.392 83.1338 58.936 86.7338 53.104L84.6698 51.784L84.1898 51.928H83.5898ZM73.6298 53.296L71.2058 54.424C74.9018 59.224 80.8538 62.488 87.8618 63.856C88.2698 63.064 89.0618 61.816 89.7338 61.168C82.8218 60.064 76.7018 57.16 73.6298 53.296ZM70.8698 63.16V72.208H73.7738V65.752H82.5338V72.112H85.6058V63.16H70.8698ZM74.7818 51.928L73.0538 54.4H84.2378V51.928H74.7818ZM100.606 61.768V64.312H113.71V61.768H100.606ZM109.102 63.28L107.062 64.024C108.31 66.712 110.446 69.544 112.486 71.152C112.918 70.456 113.83 69.472 114.454 68.968C112.438 67.744 110.254 65.416 109.102 63.28ZM103.846 56.536H110.47V58.096H103.846V56.536ZM103.846 52.816H110.47V54.328H103.846V52.816ZM101.302 50.536V60.352H113.134V50.536H101.302ZM105.238 63.088C104.11 65.44 101.878 67.816 99.5978 69.04C100.198 69.544 101.086 70.576 101.518 71.248C103.918 69.688 106.126 66.808 107.398 63.832L105.238 63.088ZM105.886 51.664V59.272H105.742V72.136H108.526V59.272H108.358V51.664H105.886ZM92.6618 56.992V59.152H99.6938V56.992H92.6618ZM92.7338 50.368V52.552H99.6218V50.368H92.7338ZM92.6618 60.256V62.44H99.6938V60.256H92.6618ZM91.5578 53.608V55.888H100.318V53.608H91.5578ZM93.9098 63.592V65.872H97.3178V68.608H93.9098V70.888H99.7178V63.592H93.9098ZM92.6138 63.592V71.848H94.9658V63.592H92.6138ZM120.262 55.432H123.67V56.584H120.262V55.432ZM120.262 52.48H123.67V53.608H120.262V52.48ZM117.718 50.56V58.528H126.334V50.56H117.718ZM116.59 59.896V62.008H127.414V59.896H116.59ZM127.318 50.632V52.648H138.382V50.632H127.318ZM121.078 60.568V68.824L123.478 70.216V60.568H121.078ZM122.326 63.952V66.016H126.982V63.952H122.326ZM131.95 51.112C131.71 52.24 131.254 53.8 130.822 54.88L132.862 55.408C133.366 54.472 133.99 53.032 134.566 51.688L131.95 51.112ZM130.63 58.84H134.998V59.968H130.63V58.84ZM130.63 61.792H134.998V62.944H130.63V61.792ZM130.63 55.864H134.998V56.992H130.63V55.864ZM128.062 53.92V64.912H137.662V53.92H128.062ZM130.006 65.08C129.19 66.064 127.75 67.048 126.31 67.672C126.838 68.056 127.75 68.896 128.158 69.352C129.646 68.536 131.35 67.168 132.382 65.8L130.006 65.08ZM117.694 62.944C117.622 65.848 117.382 68.68 116.014 70.36C116.59 70.792 117.358 71.704 117.694 72.304C119.518 70.144 119.878 66.616 119.998 62.944H117.694ZM119.614 64.96L117.91 65.464C119.614 70.888 122.902 71.704 128.854 71.704H138.118C138.262 70.984 138.67 69.88 139.054 69.328C137.086 69.424 130.462 69.424 128.854 69.424C123.958 69.4 120.958 68.992 119.614 64.96ZM133.414 65.944C134.614 66.832 136.102 68.224 136.846 69.184L138.91 67.96C138.166 67.048 136.678 65.752 135.382 64.912L133.414 65.944ZM141.19 62.872L144.094 65.848C144.526 65.224 145.078 64.36 145.63 63.592C146.662 62.224 148.342 59.848 149.302 58.624C149.998 57.76 150.454 57.64 151.318 58.552C152.422 59.824 154.222 62.128 155.71 63.88C157.246 65.68 159.286 67.984 160.99 69.616L163.486 66.736C161.206 64.696 159.142 62.56 157.606 60.88C156.19 59.32 154.294 56.848 152.638 55.264C150.886 53.56 149.35 53.728 147.67 55.648C146.158 57.376 144.334 59.848 143.206 61C142.486 61.744 141.91 62.296 141.19 62.872ZM165.502 61.792L166.222 64.552C168.334 63.76 170.974 62.752 173.422 61.792L172.918 59.248C170.206 60.232 167.398 61.24 165.502 61.792ZM165.814 54.184V56.824H173.086V54.184H165.814ZM168.43 49.648V69.112C168.43 69.448 168.31 69.52 168.022 69.52C167.734 69.544 166.894 69.544 166.03 69.496C166.366 70.288 166.702 71.464 166.774 72.184C168.334 72.184 169.366 72.088 170.086 71.632C170.83 71.2 171.07 70.456 171.07 69.112V49.648H168.43ZM176.59 49.888V60.376C176.59 64.432 176.062 67.84 171.79 70.048C172.414 70.504 173.398 71.464 173.83 72.088C178.606 69.448 179.23 65.2 179.23 60.4V49.888H176.59ZM180.766 49.888V68.056C180.766 71.08 181.39 71.944 183.55 71.944C183.982 71.944 185.206 71.944 185.662 71.944C187.534 71.944 188.23 70.672 188.494 67.36C187.726 67.192 186.694 66.712 186.07 66.232C185.998 68.68 185.878 69.376 185.422 69.376C185.158 69.376 184.27 69.376 184.054 69.376C183.574 69.376 183.478 69.208 183.478 68.08V49.888H180.766ZM172.798 53.824C173.71 55.36 174.742 57.424 175.174 58.768L177.406 57.424C176.95 56.128 175.918 54.16 174.934 52.648L172.798 53.824ZM182.446 61.624C183.982 62.992 185.806 64.984 186.67 66.184L188.494 64.192C187.582 62.992 185.758 61.216 184.174 59.92L182.446 61.624ZM172.03 63.928L173.494 66.328C174.742 65.392 176.182 64.264 177.478 63.184L176.542 61C174.862 62.128 173.158 63.256 172.03 63.928ZM185.446 52.36C184.918 54.016 183.886 56.248 183.07 57.664L185.038 58.768C185.926 57.472 186.982 55.432 188.014 53.656L185.446 52.36ZM202.87 56.632L203.182 59.32L213.118 58.072L212.806 55.432L202.87 56.632ZM208.222 51.064C209.158 52.336 210.118 54.136 210.502 55.264L212.806 53.968C212.422 52.84 211.366 51.184 210.406 49.936L208.222 51.064ZM190.462 50.896C191.134 52.192 191.782 53.896 191.926 54.976L194.422 54.112C194.206 53.008 193.51 51.376 192.79 50.152L190.462 50.896ZM194.758 50.176C195.238 51.496 195.694 53.248 195.814 54.304L198.334 53.656C198.19 52.6 197.686 50.896 197.158 49.624L194.758 50.176ZM193.654 60.736H200.206V62.104H193.654V60.736ZM193.654 57.376H200.206V58.744H193.654V57.376ZM191.302 55.24V64.216H202.654V55.24H191.302ZM190.438 65.656V68.176H203.326V65.656H190.438ZM200.83 49.72C200.398 51.208 199.558 53.2 198.814 54.52L201.094 55.264C201.886 54.088 202.918 52.24 203.806 50.512L200.83 49.72ZM195.742 55.936V63.16H195.574V72.136H198.334V63.16H198.166V55.936H195.742ZM210.334 58.792C208.774 63.616 205.366 68.152 200.926 70.168C201.67 70.672 202.51 71.512 203.014 72.184C207.31 69.832 210.838 65.056 212.518 60.04L210.334 58.792ZM204.766 49.72C205.102 62.944 206.302 71.896 210.55 72.064C211.558 72.112 212.758 71.176 213.382 67.12C212.95 66.856 211.798 66.064 211.318 65.464C211.198 67.552 210.958 68.656 210.55 68.656C208.846 68.488 207.598 59.92 207.478 49.72H204.766Z" fill="#264B8D"/>
</svg>
